%TF.GenerationSoftware,KiCad,Pcbnew,8.0.3*%
%TF.CreationDate,2024-06-27T17:01:22-04:00*%
%TF.ProjectId,reversiblepurringcat,72657665-7273-4696-926c-657075727269,rev?*%
%TF.SameCoordinates,Original*%
%TF.FileFunction,Profile,NP*%
%FSLAX46Y46*%
G04 Gerber Fmt 4.6, Leading zero omitted, Abs format (unit mm)*
G04 Created by KiCad (PCBNEW 8.0.3) date 2024-06-27 17:01:22*
%MOMM*%
%LPD*%
G01*
G04 APERTURE LIST*
%TA.AperFunction,Profile*%
%ADD10C,0.050000*%
%TD*%
G04 APERTURE END LIST*
D10*
X226585260Y-33500000D02*
X226589732Y-32594929D01*
X240367296Y-108493025D02*
G75*
G02*
X237642146Y-109108257I-1782996J1554625D01*
G01*
X228589650Y-35425878D02*
G75*
G02*
X226585222Y-33500001I-9850J1995778D01*
G01*
X225517635Y-31503068D02*
G75*
G02*
X226589731Y-32594929I-9835J-1081932D01*
G01*
X192734972Y-23377939D02*
X206032621Y-23371741D01*
X188963821Y-18367941D02*
G75*
G02*
X190030765Y-19453833I-9821J-1076759D01*
G01*
X206032621Y-23371741D02*
G75*
G02*
X207099579Y-24432233I-9821J-1076859D01*
G01*
X228589650Y-35425878D02*
X247263349Y-35426534D01*
X170314986Y-19305572D02*
G75*
G02*
X171254786Y-18361595I943914J72D01*
G01*
X131644235Y-38933077D02*
G75*
G02*
X132267657Y-38190150I683265J59677D01*
G01*
X137014290Y-88177118D02*
G75*
G02*
X237641326Y-109110505I-21805620J-357144232D01*
G01*
X247640877Y-88500363D02*
X240367296Y-108493025D01*
X170314986Y-19305572D02*
X170325003Y-24094244D01*
X247263349Y-35428980D02*
G75*
G02*
X247689858Y-35849712I5651J-420820D01*
G01*
X150258869Y-36684080D02*
X132267654Y-38190116D01*
X247689817Y-35849712D02*
X247691677Y-88246363D01*
X225517635Y-31503068D02*
X207752579Y-31493649D01*
X207117579Y-30858649D02*
X207099601Y-24432233D01*
X170325003Y-24094244D02*
G75*
G02*
X169563003Y-24856303I-762103J44D01*
G01*
X137014290Y-88177117D02*
G75*
G02*
X135820483Y-86983317I10J1193817D01*
G01*
X169563003Y-24856244D02*
X150945799Y-25867063D01*
X150709158Y-36163380D02*
G75*
G02*
X150258874Y-36684121I-507958J-15820D01*
G01*
X131644235Y-38933077D02*
X135820490Y-86983317D01*
X207752579Y-31493649D02*
G75*
G02*
X207117651Y-30858649I21J634949D01*
G01*
X150183799Y-26654463D02*
X150709158Y-36163380D01*
X150183799Y-26654463D02*
G75*
G02*
X150945798Y-25867022I787801J63D01*
G01*
X190030801Y-21181033D02*
G75*
G02*
X192734946Y-23377945I-25401J-2793967D01*
G01*
X247691677Y-88246363D02*
G75*
G02*
X247640888Y-88500368I-660877J63D01*
G01*
X188963821Y-18367941D02*
X171254786Y-18361633D01*
X190030801Y-21181033D02*
X190030801Y-19453833D01*
M02*
