%TF.GenerationSoftware,KiCad,Pcbnew,8.0.3*%
%TF.CreationDate,2024-06-27T17:01:22-04:00*%
%TF.ProjectId,reversiblepurringcat,72657665-7273-4696-926c-657075727269,rev?*%
%TF.SameCoordinates,Original*%
%TF.FileFunction,Soldermask,Top*%
%TF.FilePolarity,Negative*%
%FSLAX46Y46*%
G04 Gerber Fmt 4.6, Leading zero omitted, Abs format (unit mm)*
G04 Created by KiCad (PCBNEW 8.0.3) date 2024-06-27 17:01:22*
%MOMM*%
%LPD*%
G01*
G04 APERTURE LIST*
G04 Aperture macros list*
%AMRotRect*
0 Rectangle, with rotation*
0 The origin of the aperture is its center*
0 $1 length*
0 $2 width*
0 $3 Rotation angle, in degrees counterclockwise*
0 Add horizontal line*
21,1,$1,$2,0,0,$3*%
%AMOutline5P*
0 Free polygon, 5 corners , with rotation*
0 The origin of the aperture is its center*
0 number of corners: always 5*
0 $1 to $10 corner X, Y*
0 $11 Rotation angle, in degrees counterclockwise*
0 create outline with 5 corners*
4,1,5,$1,$2,$3,$4,$5,$6,$7,$8,$9,$10,$1,$2,$11*%
%AMOutline6P*
0 Free polygon, 6 corners , with rotation*
0 The origin of the aperture is its center*
0 number of corners: always 6*
0 $1 to $12 corner X, Y*
0 $13 Rotation angle, in degrees counterclockwise*
0 create outline with 6 corners*
4,1,6,$1,$2,$3,$4,$5,$6,$7,$8,$9,$10,$11,$12,$1,$2,$13*%
%AMOutline7P*
0 Free polygon, 7 corners , with rotation*
0 The origin of the aperture is its center*
0 number of corners: always 7*
0 $1 to $14 corner X, Y*
0 $15 Rotation angle, in degrees counterclockwise*
0 create outline with 7 corners*
4,1,7,$1,$2,$3,$4,$5,$6,$7,$8,$9,$10,$11,$12,$13,$14,$1,$2,$15*%
%AMOutline8P*
0 Free polygon, 8 corners , with rotation*
0 The origin of the aperture is its center*
0 number of corners: always 8*
0 $1 to $16 corner X, Y*
0 $17 Rotation angle, in degrees counterclockwise*
0 create outline with 8 corners*
4,1,8,$1,$2,$3,$4,$5,$6,$7,$8,$9,$10,$11,$12,$13,$14,$15,$16,$1,$2,$17*%
%AMFreePoly0*
4,1,6,1.000000,0.000000,0.500000,-0.750000,-0.500000,-0.750000,-0.500000,0.750000,0.500000,0.750000,1.000000,0.000000,1.000000,0.000000,$1*%
%AMFreePoly1*
4,1,6,0.500000,-0.750000,-0.650000,-0.750000,-0.150000,0.000000,-0.650000,0.750000,0.500000,0.750000,0.500000,-0.750000,0.500000,-0.750000,$1*%
G04 Aperture macros list end*
%ADD10C,2.000000*%
%ADD11C,1.701800*%
%ADD12C,3.000000*%
%ADD13C,3.429000*%
%ADD14Outline5P,-1.300000X0.260000X-0.260000X1.300000X1.300000X1.300000X1.300000X-1.300000X-1.300000X-1.300000X3.000000*%
%ADD15RotRect,2.600000X2.600000X3.000000*%
%ADD16Outline5P,-1.300000X0.260000X-0.260000X1.300000X1.300000X1.300000X1.300000X-1.300000X-1.300000X-1.300000X345.000000*%
%ADD17RotRect,2.600000X2.600000X345.000000*%
%ADD18Outline5P,-1.300000X0.260000X-0.260000X1.300000X1.300000X1.300000X1.300000X-1.300000X-1.300000X-1.300000X0.000000*%
%ADD19R,2.600000X2.600000*%
%ADD20Outline5P,-1.300000X0.260000X-0.260000X1.300000X1.300000X1.300000X1.300000X-1.300000X-1.300000X-1.300000X5.000000*%
%ADD21RotRect,2.600000X2.600000X5.000000*%
%ADD22Outline5P,-1.300000X0.260000X-0.260000X1.300000X1.300000X1.300000X1.300000X-1.300000X-1.300000X-1.300000X340.000000*%
%ADD23RotRect,2.600000X2.600000X340.000000*%
%ADD24C,0.700000*%
%ADD25C,4.400000*%
%ADD26FreePoly0,90.000000*%
%ADD27FreePoly1,90.000000*%
%ADD28C,1.397000*%
%ADD29C,1.752600*%
%ADD30R,0.700000X1.500000*%
%ADD31R,1.000000X0.800000*%
%ADD32C,0.900000*%
G04 APERTURE END LIST*
D10*
%TO.C,RSW0*%
X199178980Y-93675713D03*
X192821020Y-92324287D03*
%TD*%
D11*
%TO.C,20/25*%
X156833580Y-68412243D03*
D12*
X157529154Y-72130936D03*
D13*
X162326042Y-68124395D03*
D12*
X162637441Y-74066241D03*
X167515450Y-71607576D03*
D11*
X167818504Y-67836547D03*
D14*
X159366929Y-74237641D03*
D15*
X170785961Y-71436176D03*
%TD*%
D11*
%TO.C,26/29*%
X212074009Y-87931128D03*
D12*
X211586400Y-91682760D03*
D13*
X217386601Y-89354633D03*
D12*
X215846628Y-95101892D03*
X221245659Y-94270950D03*
D11*
X222699193Y-90778138D03*
D16*
X212683221Y-94254259D03*
D17*
X224409066Y-95118582D03*
%TD*%
D11*
%TO.C,21/24*%
X175005801Y-61236833D03*
D12*
X175505801Y-64986833D03*
D13*
X180505801Y-61236833D03*
D12*
X180505801Y-67186833D03*
X185505801Y-64986833D03*
D11*
X186005801Y-61236833D03*
D18*
X177230801Y-67186833D03*
D19*
X188780801Y-64986833D03*
%TD*%
D11*
%TO.C,22/23*%
X193014401Y-66596233D03*
D12*
X193514401Y-70346233D03*
D13*
X198514401Y-66596233D03*
D12*
X198514401Y-72546233D03*
X203514401Y-70346233D03*
D11*
X204014401Y-66596233D03*
D18*
X195239401Y-72546233D03*
D19*
X206789401Y-70346233D03*
%TD*%
D11*
%TO.C,1/8*%
X155067004Y-34218637D03*
D12*
X155762578Y-37937330D03*
D13*
X160559466Y-33930789D03*
D12*
X160870865Y-39872635D03*
X165748874Y-37413970D03*
D11*
X166051928Y-33642941D03*
D14*
X157600353Y-40044035D03*
D15*
X169019385Y-37242570D03*
%TD*%
D11*
%TO.C,0/9*%
X137031071Y-46450205D03*
D12*
X137856003Y-50142357D03*
D13*
X142510142Y-45970848D03*
D12*
X143028719Y-51898206D03*
X147817950Y-49270799D03*
D11*
X147989213Y-45491491D03*
D20*
X139766181Y-52183642D03*
D21*
X151080487Y-48985364D03*
%TD*%
D11*
%TO.C,10/19*%
X138520929Y-63479357D03*
D12*
X139345861Y-67171509D03*
D13*
X144000000Y-63000000D03*
D12*
X144518577Y-68927358D03*
X149307808Y-66299951D03*
D11*
X149479071Y-62520643D03*
D20*
X141256039Y-69212794D03*
D21*
X152570345Y-66014516D03*
%TD*%
D11*
%TO.C,13/16*%
X193014401Y-49476633D03*
D12*
X193514401Y-53226633D03*
D13*
X198514401Y-49476633D03*
D12*
X198514401Y-55426633D03*
X203514401Y-53226633D03*
D11*
X204014401Y-49476633D03*
D18*
X195239401Y-55426633D03*
D19*
X206789401Y-53226633D03*
%TD*%
D11*
%TO.C,12/17*%
X175005801Y-44117233D03*
D12*
X175505801Y-47867233D03*
D13*
X180505801Y-44117233D03*
D12*
X180505801Y-50067233D03*
X185505801Y-47867233D03*
D11*
X186005801Y-44117233D03*
D18*
X177230801Y-50067233D03*
D19*
X188780801Y-47867233D03*
%TD*%
D11*
%TO.C,3/6*%
X193039801Y-32357033D03*
D12*
X193539801Y-36107033D03*
D13*
X198539801Y-32357033D03*
D12*
X198539801Y-38307033D03*
X203539801Y-36107033D03*
D11*
X204039801Y-32357033D03*
D18*
X195264801Y-38307033D03*
D19*
X206814801Y-36107033D03*
%TD*%
D11*
%TO.C,2/7*%
X175031201Y-27023033D03*
D12*
X175531201Y-30773033D03*
D13*
X180531201Y-27023033D03*
D12*
X180531201Y-32973033D03*
X185531201Y-30773033D03*
D11*
X186031201Y-27023033D03*
D18*
X177256201Y-32973033D03*
D19*
X188806201Y-30773033D03*
%TD*%
D11*
%TO.C,11/18*%
X155937610Y-51316105D03*
D12*
X156633184Y-55034798D03*
D13*
X161430072Y-51028257D03*
D12*
X161741471Y-56970103D03*
X166619480Y-54511438D03*
D11*
X166922534Y-50740409D03*
D14*
X158470959Y-57141503D03*
D15*
X169889991Y-54340038D03*
%TD*%
D11*
%TO.C,14/15*%
X211000000Y-57600000D03*
D12*
X211500000Y-61350000D03*
D13*
X216500000Y-57600000D03*
D12*
X216500000Y-63550000D03*
X221500000Y-61350000D03*
D11*
X222000000Y-57600000D03*
D18*
X213225000Y-63550000D03*
D19*
X224775000Y-61350000D03*
%TD*%
D11*
%TO.C,27/28*%
X229312730Y-92805143D03*
D12*
X228500000Y-96500001D03*
D13*
X234481039Y-94686254D03*
D12*
X232446019Y-100277425D03*
X237896927Y-99920202D03*
D11*
X239649348Y-96567365D03*
D22*
X229368526Y-99157309D03*
D23*
X240974420Y-101040318D03*
%TD*%
D11*
%TO.C,4/5*%
X211000000Y-40480400D03*
D12*
X211500000Y-44230400D03*
D13*
X216500000Y-40480400D03*
D12*
X216500000Y-46430400D03*
X221500000Y-44230400D03*
D11*
X222000000Y-40480400D03*
D18*
X213225000Y-46430400D03*
D19*
X224775000Y-44230400D03*
%TD*%
D24*
%TO.C,H1*%
X187994067Y-58119461D03*
X188477341Y-56952735D03*
X188477341Y-59286187D03*
X189644067Y-56469461D03*
D25*
X189644067Y-58119461D03*
D24*
X189644067Y-59769461D03*
X190810793Y-56952735D03*
X190810793Y-59286187D03*
X191294067Y-58119461D03*
%TD*%
%TO.C,H4*%
X137683274Y-84833274D03*
X138166548Y-83666548D03*
X138166548Y-86000000D03*
X139333274Y-83183274D03*
D25*
X139333274Y-84833274D03*
D24*
X139333274Y-86483274D03*
X140500000Y-83666548D03*
X140500000Y-86000000D03*
X140983274Y-84833274D03*
%TD*%
D26*
%TO.C,JP1*%
X243840000Y-76126000D03*
D27*
X243840000Y-74676000D03*
%TD*%
D26*
%TO.C,JP3*%
X241300000Y-76126000D03*
D27*
X241300000Y-74676000D03*
%TD*%
D24*
%TO.C,H2*%
X221705122Y-100275354D03*
X222188396Y-99108628D03*
X222188396Y-101442080D03*
X223355122Y-98625354D03*
D25*
X223355122Y-100275354D03*
D24*
X223355122Y-101925354D03*
X224521848Y-99108628D03*
X224521848Y-101442080D03*
X225005122Y-100275354D03*
%TD*%
D26*
%TO.C,JP5*%
X236220000Y-76126000D03*
D27*
X236220000Y-74676000D03*
%TD*%
D28*
%TO.C,Bat+0*%
X232531040Y-36866072D03*
%TD*%
D24*
%TO.C,H3*%
X151498104Y-60051128D03*
X151981378Y-58884402D03*
X151981378Y-61217854D03*
X153148104Y-58401128D03*
D25*
X153148104Y-60051128D03*
D24*
X153148104Y-61701128D03*
X154314830Y-58884402D03*
X154314830Y-61217854D03*
X154798104Y-60051128D03*
%TD*%
D28*
%TO.C,Bat-0*%
X244672240Y-36916872D03*
%TD*%
D26*
%TO.C,JP7*%
X233680000Y-76126000D03*
D27*
X233680000Y-74676000D03*
%TD*%
D24*
%TO.C,H0*%
X188424150Y-23901893D03*
X188907424Y-22735167D03*
X188907424Y-25068619D03*
X190074150Y-22251893D03*
D25*
X190074150Y-23901893D03*
D24*
X190074150Y-25551893D03*
X191240876Y-22735167D03*
X191240876Y-25068619D03*
X191724150Y-23901893D03*
%TD*%
D29*
%TO.C,J0*%
X243880000Y-71675000D03*
X241340000Y-71675000D03*
X238800000Y-71675000D03*
X236260000Y-71675000D03*
X233720000Y-71675000D03*
%TD*%
D30*
%TO.C,SW_PWR0*%
X236317446Y-38999423D03*
X237817446Y-38999423D03*
X240817446Y-38999423D03*
D31*
X242217446Y-38349423D03*
X242217446Y-36139423D03*
D32*
X240075000Y-37240000D03*
X237075000Y-37240000D03*
D31*
X234917446Y-38349423D03*
X234917446Y-36139423D03*
%TD*%
M02*
