M48
; DRILL file {KiCad 8.0.3} date 2024-06-27T17:02:08-0400
; FORMAT={-:-/ absolute / inch / decimal}
; #@! TF.CreationDate,2024-06-27T17:02:08-04:00
; #@! TF.GenerationSoftware,Kicad,Pcbnew,8.0.3
; #@! TF.FileFunction,MixedPlating,1,2
FMAT,2
INCH
; #@! TA.AperFunction,Plated,PTH,ViaDrill
T1C0.0157
; #@! TA.AperFunction,Plated,PTH,ComponentDrill
T2C0.0157
; #@! TA.AperFunction,Plated,PTH,ComponentDrill
T3C0.0320
; #@! TA.AperFunction,Plated,PTH,ComponentDrill
T4C0.0430
; #@! TA.AperFunction,Plated,PTH,ComponentDrill
T5C0.0512
; #@! TA.AperFunction,Plated,PTH,ComponentDrill
T6C0.0866
; #@! TA.AperFunction,NonPlated,NPTH,ComponentDrill
T7C0.0354
; #@! TA.AperFunction,NonPlated,NPTH,ComponentDrill
T8C0.0670
; #@! TA.AperFunction,NonPlated,NPTH,ComponentDrill
T9C0.1181
; #@! TA.AperFunction,NonPlated,NPTH,ComponentDrill
T10C0.1350
%
G90
G05
T1
X5.6496Y-2.2441
X5.7874Y-2.3756
X5.9449Y-1.6722
X6.0039Y-1.4075
X6.594Y-1.1924
X6.6886Y-2.0528
X6.7239Y-2.6772
X7.104Y-2.532
X7.4311Y-1.1122
X7.4311Y-1.6211
X7.815Y-2.0522
X7.815Y-2.7362
X8.1423Y-1.3474
X8.5236Y-2.3819
X8.8588Y-3.3076
X8.9675Y-1.7402
X9.1999Y-3.0407
X9.3Y-3.0406
X9.3041Y-1.6033
X9.3888Y-1.4636
X9.4Y-2.96
X9.4882Y-3.563
X9.5105Y-2.0512
X9.5955Y-2.1701
X9.597Y-3.0406
X9.6351Y-2.1708
T2
X5.4206Y-3.3399
X5.4396Y-3.294
X5.4396Y-3.3858
X5.4856Y-3.2749
X5.4856Y-3.4049
X5.5315Y-3.294
X5.5315Y-3.3858
X5.5505Y-3.3399
X5.9645Y-2.3642
X5.9835Y-2.3183
X5.9835Y-2.4102
X6.0295Y-2.2993
X6.0295Y-2.4292
X6.0754Y-2.3183
X6.0754Y-2.4102
X6.0944Y-2.3642
X7.4013Y-2.2882
X7.4183Y-0.941
X7.4204Y-2.2422
X7.4204Y-2.3341
X7.4373Y-0.8951
X7.4373Y-0.987
X7.4663Y-2.2232
X7.4663Y-2.3531
X7.4832Y-0.8761
X7.4832Y-1.006
X7.5122Y-2.2422
X7.5122Y-2.3341
X7.5292Y-0.8951
X7.5292Y-0.987
X7.5313Y-2.2882
X7.5482Y-0.941
X8.7285Y-3.9478
X8.7476Y-3.9019
X8.7476Y-3.9938
X8.7935Y-3.8829
X8.7935Y-4.0128
X8.8394Y-3.9019
X8.8394Y-3.9938
X8.8585Y-3.9478
T3
X9.099Y-1.548
X9.099Y-1.648
X9.099Y-1.748
X9.099Y-1.848
X9.099Y-1.948
X9.099Y-2.048
X9.099Y-2.148
X9.099Y-2.248
X9.099Y-2.348
X9.099Y-2.448
X9.099Y-2.548
X9.099Y-2.648
X9.1548Y-1.4514
X9.6328Y-1.4534
X9.6983Y-1.548
X9.6983Y-1.648
X9.6983Y-1.748
X9.6983Y-1.848
X9.6983Y-1.948
X9.6983Y-2.048
X9.6983Y-2.148
X9.6983Y-2.248
X9.6983Y-2.348
X9.6983Y-2.448
X9.6983Y-2.548
X9.6983Y-2.648
T4
X9.2016Y-2.8219
X9.3016Y-2.8219
X9.4016Y-2.8219
X9.5016Y-2.8219
X9.6016Y-2.8219
T5
X7.5914Y-3.6348
X7.8417Y-3.688
T6
X5.4856Y-3.3399
X6.0295Y-2.3642
X7.4663Y-2.2882
X7.4832Y-0.941
X8.7935Y-3.9478
T7
X9.3337Y-1.4661
X9.4518Y-1.4661
T8
X5.3949Y-1.8287
X5.4536Y-2.4992
X5.8263Y-1.791
X5.885Y-2.4614
X6.105Y-1.3472
X6.1393Y-2.0203
X6.1746Y-2.6934
X6.5375Y-1.3245
X6.5718Y-1.9977
X6.607Y-2.6707
X6.89Y-1.7369
X6.89Y-2.4109
X6.891Y-1.0639
X7.3231Y-1.7369
X7.3231Y-2.4109
X7.3241Y-1.0639
X7.599Y-1.9479
X7.599Y-2.6219
X7.6Y-1.2739
X8.0321Y-1.9479
X8.0321Y-2.6219
X8.0331Y-1.2739
X8.3071Y-1.5937
X8.3071Y-2.2677
X8.3494Y-3.4619
X8.7402Y-1.5937
X8.7402Y-2.2677
X8.7677Y-3.5739
X9.0281Y-3.6537
X9.435Y-3.8019
T9
X5.4274Y-1.9741
X5.4861Y-2.6445
X5.6311Y-2.0432
X5.6897Y-2.7137
X5.8196Y-1.9398
X5.8783Y-2.6102
X6.1324Y-1.4936
X6.1667Y-2.1667
X6.2019Y-2.8398
X6.3335Y-1.5698
X6.3678Y-2.2429
X6.403Y-2.916
X6.5255Y-1.473
X6.5598Y-2.1461
X6.5951Y-2.8192
X6.9097Y-1.8845
X6.9097Y-2.5585
X6.9107Y-1.2115
X7.1065Y-1.9712
X7.1065Y-2.6452
X7.1075Y-1.2982
X7.3034Y-1.8845
X7.3034Y-2.5585
X7.3044Y-1.2115
X7.6187Y-2.0955
X7.6187Y-2.7695
X7.6197Y-1.4215
X7.8155Y-2.1822
X7.8155Y-2.8562
X7.8165Y-1.5082
X8.0124Y-2.0955
X8.0124Y-2.7695
X8.0134Y-1.4215
X8.3268Y-1.7414
X8.3268Y-2.4154
X8.3302Y-3.6096
X8.4979Y-3.7442
X8.5236Y-1.828
X8.5236Y-2.502
X8.7105Y-3.7115
X8.7205Y-1.7414
X8.7205Y-2.4154
X8.9961Y-3.7992
X9.1514Y-3.9479
X9.366Y-3.9339
T10
X5.6106Y-1.8099
X5.6693Y-2.4803
X6.3212Y-1.3359
X6.3555Y-2.009
X6.3908Y-2.6821
X7.1065Y-1.7369
X7.1065Y-2.4109
X7.1075Y-1.0639
X7.8155Y-1.9479
X7.8155Y-2.6219
X7.8165Y-1.2739
X8.5236Y-1.5937
X8.5236Y-2.2677
X8.5585Y-3.5179
X9.2315Y-3.7278
M30
