%TF.GenerationSoftware,KiCad,Pcbnew,8.0.3*%
%TF.CreationDate,2024-06-27T17:01:22-04:00*%
%TF.ProjectId,reversiblepurringcat,72657665-7273-4696-926c-657075727269,rev?*%
%TF.SameCoordinates,Original*%
%TF.FileFunction,Legend,Top*%
%TF.FilePolarity,Positive*%
%FSLAX46Y46*%
G04 Gerber Fmt 4.6, Leading zero omitted, Abs format (unit mm)*
G04 Created by KiCad (PCBNEW 8.0.3) date 2024-06-27 17:01:22*
%MOMM*%
%LPD*%
G01*
G04 APERTURE LIST*
%ADD10C,0.150000*%
%ADD11C,0.300000*%
%ADD12C,0.125000*%
%ADD13C,0.120000*%
%ADD14C,2.000000*%
%ADD15C,1.524000*%
%ADD16C,1.397000*%
G04 APERTURE END LIST*
D10*
G36*
X161910063Y-86394602D02*
G01*
X162545089Y-86432122D01*
X163472923Y-86472457D01*
X163887153Y-86474056D01*
X164781159Y-86473032D01*
X165657859Y-86370546D01*
X165771889Y-86349707D01*
X166601928Y-86075659D01*
X166920385Y-85871354D01*
X167191438Y-85424656D01*
X166899210Y-84679172D01*
X166598742Y-84332977D01*
X166129331Y-83670970D01*
X165829312Y-82953491D01*
X165750937Y-82603695D01*
X165706922Y-82403839D01*
X165692475Y-81630957D01*
X165749561Y-81179101D01*
X165943203Y-80440004D01*
X166203965Y-79912011D01*
X166623883Y-79284160D01*
X166951370Y-78902758D01*
X167038370Y-78831223D01*
X167064423Y-78835350D01*
X166875718Y-79380405D01*
X166677316Y-80130718D01*
X166555769Y-80754105D01*
X166534449Y-81366474D01*
X167167641Y-81893332D01*
X167286359Y-81930682D01*
X167577754Y-81720892D01*
X167851939Y-81025938D01*
X167872945Y-80981272D01*
X167989174Y-80725192D01*
X168320686Y-80034822D01*
X168546579Y-79622787D01*
X168610964Y-79525415D01*
X169024687Y-78892676D01*
X169112203Y-78777627D01*
X169451369Y-78098012D01*
X169550250Y-77782435D01*
X169532287Y-77586706D01*
X168922476Y-77022652D01*
X168356051Y-76806918D01*
X168256179Y-76791100D01*
X167582501Y-77243608D01*
X167526015Y-77354257D01*
X167415827Y-77403573D01*
X167345448Y-77370170D01*
X167275069Y-77336767D01*
X166785453Y-77196162D01*
X165894678Y-77291374D01*
X165165354Y-77735974D01*
X165112712Y-77780658D01*
X164581135Y-78343184D01*
X164524210Y-78433019D01*
X164491853Y-78468697D01*
X164138843Y-79136684D01*
X163898966Y-79880900D01*
X163826128Y-80255005D01*
X163779821Y-80992537D01*
X163864205Y-81644608D01*
X164052322Y-82440452D01*
X164353987Y-83174750D01*
X164772129Y-83911060D01*
X164820053Y-83984493D01*
X165107828Y-84415840D01*
X165196433Y-84811933D01*
X164557611Y-85304243D01*
X164532461Y-85322516D01*
X163701933Y-85520715D01*
X163500767Y-85541170D01*
X163397456Y-85547064D01*
X162496860Y-85618227D01*
X162134302Y-85625198D01*
X161526806Y-85610585D01*
X161177949Y-85536785D01*
X161053501Y-85535621D01*
X160691153Y-85715626D01*
X160684849Y-85755430D01*
X160874539Y-86019161D01*
X161689197Y-86354917D01*
X161910063Y-86394602D01*
G37*
G36*
X171484867Y-87825788D02*
G01*
X171661423Y-87835205D01*
X171764733Y-87829312D01*
X171816840Y-87837565D01*
X171876718Y-87847793D01*
X172678675Y-88185497D01*
X173110910Y-88828899D01*
X173117478Y-88956056D01*
X173056531Y-89031717D01*
X172949782Y-89059322D01*
X172782970Y-88988389D01*
X172607804Y-88942099D01*
X172406098Y-88950955D01*
X172122794Y-88969142D01*
X171402684Y-89054347D01*
X170500194Y-89187541D01*
X169585528Y-89335106D01*
X169149619Y-89408699D01*
X168284614Y-89511120D01*
X167798128Y-89519383D01*
X167534310Y-89414540D01*
X167280889Y-89230434D01*
X166853972Y-88538957D01*
X166851747Y-88412488D01*
X167197212Y-88170460D01*
X167703375Y-88059258D01*
X168578821Y-87962714D01*
X169561537Y-87884675D01*
X169710145Y-87872832D01*
X170583594Y-87820849D01*
X171484867Y-87825788D01*
G37*
G36*
X173163226Y-77397672D02*
G01*
X173761304Y-77617176D01*
X174416146Y-78171058D01*
X174486788Y-78371422D01*
X174473297Y-78625227D01*
X174425532Y-78617662D01*
X174338923Y-79305004D01*
X173944535Y-81008171D01*
X173780670Y-81705533D01*
X173531100Y-83112636D01*
X173496529Y-83362523D01*
X173451652Y-84120113D01*
X173398925Y-84453018D01*
X173364114Y-85319193D01*
X173536590Y-85494883D01*
X174072210Y-85713447D01*
X174658184Y-86310527D01*
X174744564Y-86580151D01*
X174592275Y-86726659D01*
X174495842Y-86689130D01*
X174229158Y-86602379D01*
X173771591Y-86596675D01*
X173742672Y-86610642D01*
X173452490Y-86672251D01*
X173475368Y-86865050D01*
X173590808Y-87366412D01*
X173944695Y-88089270D01*
X173999027Y-88223992D01*
X173753171Y-88314878D01*
X173679353Y-88303186D01*
X172891337Y-87966946D01*
X172476209Y-87599699D01*
X172092592Y-86883435D01*
X171938962Y-86729277D01*
X171784448Y-86749316D01*
X171027529Y-86863118D01*
X170786194Y-86896703D01*
X169922016Y-87070081D01*
X169422348Y-87161570D01*
X169165097Y-87183884D01*
X168906943Y-87183798D01*
X168575611Y-87027460D01*
X168251156Y-86827699D01*
X167916054Y-86667054D01*
X167637449Y-86177810D01*
X167665630Y-86069813D01*
X167822815Y-85633014D01*
X170122919Y-85633014D01*
X170145533Y-85658852D01*
X170189859Y-85688128D01*
X170245405Y-85674670D01*
X170643349Y-85610972D01*
X171521168Y-85516928D01*
X171788735Y-85429480D01*
X171775864Y-85342128D01*
X171738199Y-84764928D01*
X171729670Y-84678263D01*
X171706070Y-83843640D01*
X171701026Y-83397724D01*
X171725475Y-82934223D01*
X171748973Y-82785863D01*
X171670502Y-82944063D01*
X171424599Y-83372489D01*
X171192536Y-83872647D01*
X170801149Y-84572071D01*
X170361944Y-85248011D01*
X170122919Y-85633014D01*
X167822815Y-85633014D01*
X167924111Y-85351525D01*
X168075806Y-85012039D01*
X168241587Y-84611725D01*
X168876889Y-83354739D01*
X168993691Y-83095041D01*
X169314625Y-82530126D01*
X169504392Y-82233593D01*
X169870816Y-81575902D01*
X170003356Y-81385463D01*
X170248352Y-80988507D01*
X170676942Y-80364519D01*
X171013284Y-79842847D01*
X171318171Y-79379251D01*
X171604961Y-79001813D01*
X171776555Y-78732546D01*
X172233008Y-78099772D01*
X172594830Y-77585845D01*
X173111119Y-77389419D01*
X173163226Y-77397672D01*
G37*
G36*
X175003133Y-92170233D02*
G01*
X175412363Y-92171990D01*
X175425544Y-92088764D01*
X175281657Y-91873090D01*
X175173876Y-91429448D01*
X175329650Y-90923689D01*
X175612094Y-90219440D01*
X175946866Y-89520980D01*
X176304086Y-88853829D01*
X176721030Y-88134370D01*
X176785453Y-88027317D01*
X176891939Y-87832752D01*
X177276451Y-87178944D01*
X177747336Y-86426954D01*
X178228768Y-85709154D01*
X178720972Y-85024113D01*
X179224177Y-84370401D01*
X179479975Y-84054845D01*
X179969125Y-83449116D01*
X180513816Y-82792533D01*
X181031943Y-82187686D01*
X181593466Y-81556799D01*
X181862638Y-81264471D01*
X182404043Y-80671411D01*
X182914845Y-80059143D01*
X183303154Y-79413058D01*
X183308469Y-79386580D01*
X183314774Y-79346776D01*
X182844011Y-78674205D01*
X182409543Y-78457830D01*
X182357436Y-78449577D01*
X181534269Y-78672512D01*
X180898727Y-79156095D01*
X180469936Y-79575001D01*
X179879762Y-80219042D01*
X179373555Y-80815370D01*
X178877415Y-81440681D01*
X178391865Y-82093429D01*
X178187145Y-82381194D01*
X177747972Y-83017260D01*
X177292026Y-83708308D01*
X176904773Y-84359900D01*
X176791897Y-84586097D01*
X176638798Y-83834431D01*
X176575264Y-83087580D01*
X176582201Y-82277179D01*
X176607936Y-81897385D01*
X176631168Y-81120849D01*
X176599696Y-80358069D01*
X176561378Y-80083577D01*
X176130794Y-79570262D01*
X175403987Y-79325321D01*
X174856554Y-79409245D01*
X174629827Y-79885219D01*
X174563331Y-80637895D01*
X174554520Y-81316214D01*
X174568734Y-81704233D01*
X174653863Y-82580602D01*
X174762867Y-83352994D01*
X174933234Y-84171888D01*
X175188613Y-84938912D01*
X175678351Y-85646603D01*
X175938006Y-85789916D01*
X176044445Y-85932890D01*
X176005210Y-86011990D01*
X175552439Y-86779698D01*
X175153017Y-87495783D01*
X174806679Y-88159940D01*
X174448002Y-88916654D01*
X174125800Y-89716155D01*
X173897965Y-90497939D01*
X173861972Y-90691232D01*
X173866705Y-91307727D01*
X174360791Y-91897867D01*
X175003133Y-92170233D01*
G37*
G36*
X191398619Y-93873079D02*
G01*
X191480218Y-93863747D01*
X191503143Y-93719005D01*
X191555870Y-93386100D01*
X191711568Y-92669015D01*
X191911088Y-91925938D01*
X191972873Y-91708771D01*
X192214514Y-90992585D01*
X192510162Y-90257818D01*
X192819020Y-89560725D01*
X193184733Y-88786921D01*
X193518269Y-88112881D01*
X193888246Y-87390146D01*
X193986437Y-87201875D01*
X194139036Y-86884788D01*
X194517478Y-86265923D01*
X195110141Y-86233675D01*
X195355686Y-86313368D01*
X195522809Y-86213721D01*
X195493627Y-86060727D01*
X194976959Y-85441672D01*
X194910316Y-85415652D01*
X194147713Y-85228100D01*
X193571098Y-85159029D01*
X192943279Y-85104104D01*
X192050120Y-85080905D01*
X191873873Y-85083100D01*
X190961468Y-85141297D01*
X190427859Y-85191621D01*
X189596415Y-85419779D01*
X189461143Y-85505881D01*
X189321726Y-85739742D01*
X189343128Y-85913760D01*
X189903597Y-86512415D01*
X189963138Y-86523845D01*
X190774390Y-86544764D01*
X191637748Y-86573937D01*
X191860106Y-86631411D01*
X192084379Y-86985933D01*
X191782283Y-87664147D01*
X191697846Y-87796400D01*
X191294253Y-88433537D01*
X190555142Y-88831096D01*
X189716076Y-89114102D01*
X189597111Y-89143994D01*
X188708019Y-89295345D01*
X187793400Y-89262629D01*
X187232180Y-88665624D01*
X187210876Y-87844128D01*
X187248650Y-87559090D01*
X187436528Y-86746346D01*
X187745451Y-85916293D01*
X188095319Y-85211566D01*
X188529189Y-84495184D01*
X189047035Y-83767311D01*
X189648829Y-83028114D01*
X190214525Y-82443776D01*
X190824510Y-81886959D01*
X191468777Y-81393048D01*
X191777451Y-81195308D01*
X192513589Y-80789779D01*
X192931349Y-80654751D01*
X192976578Y-80706427D01*
X192574744Y-81381864D01*
X192494515Y-81501764D01*
X192053471Y-82132969D01*
X191873346Y-82360382D01*
X191804618Y-82457067D01*
X191901314Y-82661557D01*
X192132202Y-82805696D01*
X192254688Y-82847351D01*
X192492763Y-82777489D01*
X193034567Y-82193818D01*
X193498322Y-81768321D01*
X194050235Y-81211137D01*
X194393673Y-80611872D01*
X194110056Y-79900392D01*
X193968052Y-79758086D01*
X193207639Y-79319104D01*
X192777994Y-79206087D01*
X191885686Y-79226723D01*
X191105299Y-79453043D01*
X190272706Y-79855372D01*
X189556964Y-80300991D01*
X188855682Y-80834597D01*
X188267924Y-81362472D01*
X187883726Y-81750744D01*
X187341165Y-82359750D01*
X186852262Y-82981215D01*
X186419190Y-83614751D01*
X185987406Y-84368612D01*
X185638026Y-85137755D01*
X185420003Y-85871038D01*
X185322729Y-86341563D01*
X185262466Y-87105078D01*
X185352365Y-87864407D01*
X185611833Y-88535044D01*
X186072018Y-89253794D01*
X186661468Y-89830518D01*
X187179108Y-90077825D01*
X188054291Y-90296693D01*
X188212407Y-90326798D01*
X189151128Y-90371036D01*
X190027679Y-90236158D01*
X190829553Y-89974162D01*
X191008887Y-89898029D01*
X190897438Y-90433064D01*
X190743827Y-91164088D01*
X190639338Y-91753502D01*
X190559774Y-92500742D01*
X190558367Y-93079739D01*
X191044575Y-93733433D01*
X191254421Y-93827984D01*
X191398619Y-93873079D01*
G37*
G36*
X197416752Y-91932995D02*
G01*
X197593308Y-91942412D01*
X197696618Y-91936519D01*
X197748725Y-91944772D01*
X197808603Y-91955000D01*
X198610560Y-92292704D01*
X199042795Y-92936106D01*
X199049363Y-93063263D01*
X198988416Y-93138924D01*
X198881667Y-93166529D01*
X198714855Y-93095597D01*
X198539688Y-93049306D01*
X198337983Y-93058162D01*
X198054679Y-93076349D01*
X197334569Y-93161554D01*
X196432079Y-93294748D01*
X195517413Y-93442313D01*
X195081504Y-93515906D01*
X194216499Y-93618327D01*
X193730013Y-93626590D01*
X193466194Y-93521747D01*
X193212774Y-93337641D01*
X192785857Y-92646165D01*
X192783632Y-92519696D01*
X193129097Y-92277667D01*
X193635260Y-92166465D01*
X194510706Y-92069922D01*
X195493421Y-91991882D01*
X195642030Y-91980040D01*
X196515479Y-91928057D01*
X197416752Y-91932995D01*
G37*
G36*
X199095111Y-81504879D02*
G01*
X199693189Y-81724383D01*
X200348031Y-82278265D01*
X200418673Y-82478629D01*
X200405181Y-82732434D01*
X200357417Y-82724869D01*
X200270808Y-83412211D01*
X199876420Y-85115378D01*
X199712555Y-85812740D01*
X199462985Y-87219843D01*
X199428414Y-87469730D01*
X199383537Y-88227320D01*
X199330810Y-88560225D01*
X199295999Y-89426400D01*
X199468475Y-89602090D01*
X200004094Y-89820654D01*
X200590069Y-90417734D01*
X200676449Y-90687358D01*
X200524160Y-90833866D01*
X200427727Y-90796337D01*
X200161043Y-90709586D01*
X199703476Y-90703882D01*
X199674557Y-90717849D01*
X199384375Y-90779458D01*
X199407253Y-90972257D01*
X199522693Y-91473619D01*
X199876580Y-92196477D01*
X199930912Y-92331199D01*
X199685056Y-92422085D01*
X199611238Y-92410393D01*
X198823222Y-92074153D01*
X198408094Y-91706906D01*
X198024477Y-90990642D01*
X197870847Y-90836484D01*
X197716333Y-90856523D01*
X196959414Y-90970325D01*
X196718079Y-91003910D01*
X195853901Y-91177288D01*
X195354233Y-91268777D01*
X195096982Y-91291091D01*
X194838828Y-91291005D01*
X194507495Y-91134667D01*
X194183041Y-90934906D01*
X193847939Y-90774261D01*
X193569334Y-90285017D01*
X193597515Y-90177020D01*
X193754700Y-89740221D01*
X196054803Y-89740221D01*
X196077418Y-89766059D01*
X196121744Y-89795335D01*
X196177290Y-89781877D01*
X196575234Y-89718179D01*
X197453053Y-89624135D01*
X197720620Y-89536688D01*
X197707749Y-89449335D01*
X197670084Y-88872135D01*
X197661555Y-88785470D01*
X197637955Y-87950847D01*
X197632911Y-87504931D01*
X197657359Y-87041430D01*
X197680857Y-86893070D01*
X197602387Y-87051270D01*
X197356484Y-87479696D01*
X197124421Y-87979854D01*
X196733033Y-88679278D01*
X196293829Y-89355218D01*
X196054803Y-89740221D01*
X193754700Y-89740221D01*
X193855996Y-89458732D01*
X194007691Y-89119246D01*
X194173472Y-88718932D01*
X194808773Y-87461946D01*
X194925576Y-87202248D01*
X195246510Y-86637333D01*
X195436277Y-86340800D01*
X195802701Y-85683109D01*
X195935241Y-85492670D01*
X196180237Y-85095714D01*
X196608827Y-84471726D01*
X196945169Y-83950054D01*
X197250056Y-83486458D01*
X197536846Y-83109020D01*
X197708440Y-82839754D01*
X198164893Y-82206979D01*
X198526715Y-81693052D01*
X199043004Y-81496626D01*
X199095111Y-81504879D01*
G37*
G36*
X200935018Y-96277440D02*
G01*
X201344248Y-96279197D01*
X201357429Y-96195971D01*
X201213542Y-95980297D01*
X201105761Y-95536655D01*
X201261535Y-95030896D01*
X201543979Y-94326647D01*
X201878750Y-93628187D01*
X202235971Y-92961036D01*
X202652915Y-92241577D01*
X202717338Y-92134524D01*
X202823824Y-91939959D01*
X203208336Y-91286151D01*
X203679221Y-90534161D01*
X204160653Y-89816361D01*
X204652857Y-89131320D01*
X205156062Y-88477608D01*
X205411860Y-88162052D01*
X205901009Y-87556324D01*
X206445701Y-86899740D01*
X206963828Y-86294893D01*
X207525351Y-85664006D01*
X207794523Y-85371678D01*
X208335928Y-84778618D01*
X208846730Y-84166350D01*
X209235039Y-83520265D01*
X209240354Y-83493787D01*
X209246659Y-83453983D01*
X208775896Y-82781412D01*
X208341428Y-82565037D01*
X208289321Y-82556784D01*
X207466154Y-82779719D01*
X206830612Y-83263302D01*
X206401821Y-83682209D01*
X205811647Y-84326249D01*
X205305440Y-84922577D01*
X204809300Y-85547888D01*
X204323750Y-86200636D01*
X204119030Y-86488401D01*
X203679857Y-87124467D01*
X203223911Y-87815515D01*
X202836658Y-88467107D01*
X202723782Y-88693305D01*
X202570683Y-87941638D01*
X202507149Y-87194787D01*
X202514086Y-86384387D01*
X202539821Y-86004592D01*
X202563052Y-85228056D01*
X202531581Y-84465276D01*
X202493262Y-84190784D01*
X202062679Y-83677469D01*
X201335872Y-83432528D01*
X200788439Y-83516452D01*
X200561712Y-83992427D01*
X200495216Y-84745102D01*
X200486405Y-85423421D01*
X200500618Y-85811440D01*
X200585747Y-86687809D01*
X200694752Y-87460201D01*
X200865119Y-88279095D01*
X201120498Y-89046119D01*
X201610236Y-89753810D01*
X201869891Y-89897123D01*
X201976330Y-90040097D01*
X201937095Y-90119197D01*
X201484324Y-90886905D01*
X201084902Y-91602990D01*
X200738564Y-92267147D01*
X200379887Y-93023861D01*
X200057685Y-93823362D01*
X199829850Y-94605146D01*
X199793856Y-94798439D01*
X199798590Y-95414934D01*
X200292676Y-96005074D01*
X200935018Y-96277440D01*
G37*
D11*
X238138654Y-60525529D02*
X238138654Y-61025529D01*
X238924368Y-61025529D02*
X237424368Y-61025529D01*
X237424368Y-61025529D02*
X237424368Y-60311243D01*
X238924368Y-59096958D02*
X238138654Y-59096958D01*
X238138654Y-59096958D02*
X237995797Y-59168386D01*
X237995797Y-59168386D02*
X237924368Y-59311243D01*
X237924368Y-59311243D02*
X237924368Y-59596958D01*
X237924368Y-59596958D02*
X237995797Y-59739815D01*
X238852940Y-59096958D02*
X238924368Y-59239815D01*
X238924368Y-59239815D02*
X238924368Y-59596958D01*
X238924368Y-59596958D02*
X238852940Y-59739815D01*
X238852940Y-59739815D02*
X238710082Y-59811243D01*
X238710082Y-59811243D02*
X238567225Y-59811243D01*
X238567225Y-59811243D02*
X238424368Y-59739815D01*
X238424368Y-59739815D02*
X238352940Y-59596958D01*
X238352940Y-59596958D02*
X238352940Y-59239815D01*
X238352940Y-59239815D02*
X238281511Y-59096958D01*
X238852940Y-57739815D02*
X238924368Y-57882672D01*
X238924368Y-57882672D02*
X238924368Y-58168386D01*
X238924368Y-58168386D02*
X238852940Y-58311243D01*
X238852940Y-58311243D02*
X238781511Y-58382672D01*
X238781511Y-58382672D02*
X238638654Y-58454100D01*
X238638654Y-58454100D02*
X238210082Y-58454100D01*
X238210082Y-58454100D02*
X238067225Y-58382672D01*
X238067225Y-58382672D02*
X237995797Y-58311243D01*
X237995797Y-58311243D02*
X237924368Y-58168386D01*
X237924368Y-58168386D02*
X237924368Y-57882672D01*
X237924368Y-57882672D02*
X237995797Y-57739815D01*
X238852940Y-56525529D02*
X238924368Y-56668386D01*
X238924368Y-56668386D02*
X238924368Y-56954101D01*
X238924368Y-56954101D02*
X238852940Y-57096958D01*
X238852940Y-57096958D02*
X238710082Y-57168386D01*
X238710082Y-57168386D02*
X238138654Y-57168386D01*
X238138654Y-57168386D02*
X237995797Y-57096958D01*
X237995797Y-57096958D02*
X237924368Y-56954101D01*
X237924368Y-56954101D02*
X237924368Y-56668386D01*
X237924368Y-56668386D02*
X237995797Y-56525529D01*
X237995797Y-56525529D02*
X238138654Y-56454101D01*
X238138654Y-56454101D02*
X238281511Y-56454101D01*
X238281511Y-56454101D02*
X238424368Y-57168386D01*
X238924368Y-54025530D02*
X237424368Y-54025530D01*
X238852940Y-54025530D02*
X238924368Y-54168387D01*
X238924368Y-54168387D02*
X238924368Y-54454101D01*
X238924368Y-54454101D02*
X238852940Y-54596958D01*
X238852940Y-54596958D02*
X238781511Y-54668387D01*
X238781511Y-54668387D02*
X238638654Y-54739815D01*
X238638654Y-54739815D02*
X238210082Y-54739815D01*
X238210082Y-54739815D02*
X238067225Y-54668387D01*
X238067225Y-54668387D02*
X237995797Y-54596958D01*
X237995797Y-54596958D02*
X237924368Y-54454101D01*
X237924368Y-54454101D02*
X237924368Y-54168387D01*
X237924368Y-54168387D02*
X237995797Y-54025530D01*
X238924368Y-53096958D02*
X238852940Y-53239815D01*
X238852940Y-53239815D02*
X238781511Y-53311244D01*
X238781511Y-53311244D02*
X238638654Y-53382672D01*
X238638654Y-53382672D02*
X238210082Y-53382672D01*
X238210082Y-53382672D02*
X238067225Y-53311244D01*
X238067225Y-53311244D02*
X237995797Y-53239815D01*
X237995797Y-53239815D02*
X237924368Y-53096958D01*
X237924368Y-53096958D02*
X237924368Y-52882672D01*
X237924368Y-52882672D02*
X237995797Y-52739815D01*
X237995797Y-52739815D02*
X238067225Y-52668387D01*
X238067225Y-52668387D02*
X238210082Y-52596958D01*
X238210082Y-52596958D02*
X238638654Y-52596958D01*
X238638654Y-52596958D02*
X238781511Y-52668387D01*
X238781511Y-52668387D02*
X238852940Y-52739815D01*
X238852940Y-52739815D02*
X238924368Y-52882672D01*
X238924368Y-52882672D02*
X238924368Y-53096958D01*
X237924368Y-52096958D02*
X238924368Y-51811244D01*
X238924368Y-51811244D02*
X238210082Y-51525529D01*
X238210082Y-51525529D02*
X238924368Y-51239815D01*
X238924368Y-51239815D02*
X237924368Y-50954101D01*
X237924368Y-50382672D02*
X238924368Y-50382672D01*
X238067225Y-50382672D02*
X237995797Y-50311243D01*
X237995797Y-50311243D02*
X237924368Y-50168386D01*
X237924368Y-50168386D02*
X237924368Y-49954100D01*
X237924368Y-49954100D02*
X237995797Y-49811243D01*
X237995797Y-49811243D02*
X238138654Y-49739815D01*
X238138654Y-49739815D02*
X238924368Y-49739815D01*
D12*
X241642574Y-57252422D02*
X241706383Y-57288136D01*
X241706383Y-57288136D02*
X241834002Y-57288136D01*
X241834002Y-57288136D02*
X241897812Y-57252422D01*
X241897812Y-57252422D02*
X241929716Y-57180993D01*
X241929716Y-57180993D02*
X241929716Y-57145279D01*
X241929716Y-57145279D02*
X241897812Y-57073850D01*
X241897812Y-57073850D02*
X241834002Y-57038136D01*
X241834002Y-57038136D02*
X241738288Y-57038136D01*
X241738288Y-57038136D02*
X241674478Y-57002422D01*
X241674478Y-57002422D02*
X241642574Y-56930993D01*
X241642574Y-56930993D02*
X241642574Y-56895279D01*
X241642574Y-56895279D02*
X241674478Y-56823850D01*
X241674478Y-56823850D02*
X241738288Y-56788136D01*
X241738288Y-56788136D02*
X241834002Y-56788136D01*
X241834002Y-56788136D02*
X241897812Y-56823850D01*
X242567812Y-57288136D02*
X242184955Y-57288136D01*
X242376383Y-57288136D02*
X242376383Y-56538136D01*
X242376383Y-56538136D02*
X242312574Y-56645279D01*
X242312574Y-56645279D02*
X242248764Y-56716707D01*
X242248764Y-56716707D02*
X242184955Y-56752422D01*
X243142097Y-56788136D02*
X243142097Y-57288136D01*
X242982573Y-56502422D02*
X242823050Y-57038136D01*
X242823050Y-57038136D02*
X243237811Y-57038136D01*
X243971621Y-56502422D02*
X243397335Y-57466707D01*
X244194954Y-57288136D02*
X244194954Y-56538136D01*
X244194954Y-56538136D02*
X244354478Y-56538136D01*
X244354478Y-56538136D02*
X244450192Y-56573850D01*
X244450192Y-56573850D02*
X244514002Y-56645279D01*
X244514002Y-56645279D02*
X244545907Y-56716707D01*
X244545907Y-56716707D02*
X244577811Y-56859564D01*
X244577811Y-56859564D02*
X244577811Y-56966707D01*
X244577811Y-56966707D02*
X244545907Y-57109564D01*
X244545907Y-57109564D02*
X244514002Y-57180993D01*
X244514002Y-57180993D02*
X244450192Y-57252422D01*
X244450192Y-57252422D02*
X244354478Y-57288136D01*
X244354478Y-57288136D02*
X244194954Y-57288136D01*
X245184002Y-56538136D02*
X244864954Y-56538136D01*
X244864954Y-56538136D02*
X244833050Y-56895279D01*
X244833050Y-56895279D02*
X244864954Y-56859564D01*
X244864954Y-56859564D02*
X244928764Y-56823850D01*
X244928764Y-56823850D02*
X245088288Y-56823850D01*
X245088288Y-56823850D02*
X245152097Y-56859564D01*
X245152097Y-56859564D02*
X245184002Y-56895279D01*
X245184002Y-56895279D02*
X245215907Y-56966707D01*
X245215907Y-56966707D02*
X245215907Y-57145279D01*
X245215907Y-57145279D02*
X245184002Y-57216707D01*
X245184002Y-57216707D02*
X245152097Y-57252422D01*
X245152097Y-57252422D02*
X245088288Y-57288136D01*
X245088288Y-57288136D02*
X244928764Y-57288136D01*
X244928764Y-57288136D02*
X244864954Y-57252422D01*
X244864954Y-57252422D02*
X244833050Y-57216707D01*
D10*
X238174819Y-75805588D02*
X239174819Y-75472255D01*
X239174819Y-75472255D02*
X238174819Y-75138922D01*
X239079580Y-74234160D02*
X239127200Y-74281779D01*
X239127200Y-74281779D02*
X239174819Y-74424636D01*
X239174819Y-74424636D02*
X239174819Y-74519874D01*
X239174819Y-74519874D02*
X239127200Y-74662731D01*
X239127200Y-74662731D02*
X239031961Y-74757969D01*
X239031961Y-74757969D02*
X238936723Y-74805588D01*
X238936723Y-74805588D02*
X238746247Y-74853207D01*
X238746247Y-74853207D02*
X238603390Y-74853207D01*
X238603390Y-74853207D02*
X238412914Y-74805588D01*
X238412914Y-74805588D02*
X238317676Y-74757969D01*
X238317676Y-74757969D02*
X238222438Y-74662731D01*
X238222438Y-74662731D02*
X238174819Y-74519874D01*
X238174819Y-74519874D02*
X238174819Y-74424636D01*
X238174819Y-74424636D02*
X238222438Y-74281779D01*
X238222438Y-74281779D02*
X238270057Y-74234160D01*
X239079580Y-73234160D02*
X239127200Y-73281779D01*
X239127200Y-73281779D02*
X239174819Y-73424636D01*
X239174819Y-73424636D02*
X239174819Y-73519874D01*
X239174819Y-73519874D02*
X239127200Y-73662731D01*
X239127200Y-73662731D02*
X239031961Y-73757969D01*
X239031961Y-73757969D02*
X238936723Y-73805588D01*
X238936723Y-73805588D02*
X238746247Y-73853207D01*
X238746247Y-73853207D02*
X238603390Y-73853207D01*
X238603390Y-73853207D02*
X238412914Y-73805588D01*
X238412914Y-73805588D02*
X238317676Y-73757969D01*
X238317676Y-73757969D02*
X238222438Y-73662731D01*
X238222438Y-73662731D02*
X238174819Y-73519874D01*
X238174819Y-73519874D02*
X238174819Y-73424636D01*
X238174819Y-73424636D02*
X238222438Y-73281779D01*
X238222438Y-73281779D02*
X238270057Y-73234160D01*
X194484794Y-93142913D02*
X194257750Y-92607824D01*
X193925853Y-93024106D02*
X194133764Y-92045958D01*
X194133764Y-92045958D02*
X194506392Y-92125163D01*
X194506392Y-92125163D02*
X194589648Y-92191542D01*
X194589648Y-92191542D02*
X194626326Y-92248021D01*
X194626326Y-92248021D02*
X194653104Y-92351079D01*
X194653104Y-92351079D02*
X194623402Y-92490814D01*
X194623402Y-92490814D02*
X194557022Y-92574071D01*
X194557022Y-92574071D02*
X194500543Y-92610748D01*
X194500543Y-92610748D02*
X194397486Y-92637526D01*
X194397486Y-92637526D02*
X194024858Y-92558321D01*
X195012906Y-92719655D02*
X195338956Y-92788959D01*
X195369785Y-93331023D02*
X194904000Y-93232018D01*
X194904000Y-93232018D02*
X195111912Y-92253870D01*
X195111912Y-92253870D02*
X195577697Y-92352876D01*
X195752313Y-93363649D02*
X195882148Y-93439929D01*
X195882148Y-93439929D02*
X196115040Y-93489432D01*
X196115040Y-93489432D02*
X196218098Y-93462655D01*
X196218098Y-93462655D02*
X196274577Y-93425977D01*
X196274577Y-93425977D02*
X196340956Y-93342721D01*
X196340956Y-93342721D02*
X196360757Y-93249564D01*
X196360757Y-93249564D02*
X196333980Y-93146506D01*
X196333980Y-93146506D02*
X196297302Y-93090027D01*
X196297302Y-93090027D02*
X196214046Y-93023648D01*
X196214046Y-93023648D02*
X196037633Y-92937467D01*
X196037633Y-92937467D02*
X195954376Y-92871087D01*
X195954376Y-92871087D02*
X195917698Y-92814608D01*
X195917698Y-92814608D02*
X195890921Y-92711551D01*
X195890921Y-92711551D02*
X195910722Y-92618394D01*
X195910722Y-92618394D02*
X195977102Y-92535138D01*
X195977102Y-92535138D02*
X196033581Y-92498460D01*
X196033581Y-92498460D02*
X196136638Y-92471682D01*
X196136638Y-92471682D02*
X196369530Y-92521185D01*
X196369530Y-92521185D02*
X196499365Y-92597465D01*
X196829466Y-93105776D02*
X197155516Y-93175080D01*
X197186345Y-93717145D02*
X196720560Y-93618139D01*
X196720560Y-93618139D02*
X196928472Y-92639992D01*
X196928472Y-92639992D02*
X197394256Y-92738997D01*
X197673727Y-92798401D02*
X198232669Y-92917207D01*
X197745286Y-93835952D02*
X197953198Y-92857804D01*
X164406674Y-65657178D02*
X164451735Y-65607132D01*
X164451735Y-65607132D02*
X164544351Y-65554594D01*
X164544351Y-65554594D02*
X164782120Y-65542133D01*
X164782120Y-65542133D02*
X164879719Y-65584702D01*
X164879719Y-65584702D02*
X164929765Y-65629764D01*
X164929765Y-65629764D02*
X164982304Y-65722379D01*
X164982304Y-65722379D02*
X164987288Y-65817487D01*
X164987288Y-65817487D02*
X164947211Y-65962641D01*
X164947211Y-65962641D02*
X164406472Y-66563192D01*
X164406472Y-66563192D02*
X165024671Y-66530794D01*
X165590534Y-65499766D02*
X165685642Y-65494781D01*
X165685642Y-65494781D02*
X165783241Y-65537351D01*
X165783241Y-65537351D02*
X165833287Y-65582412D01*
X165833287Y-65582412D02*
X165885826Y-65675028D01*
X165885826Y-65675028D02*
X165943348Y-65862751D01*
X165943348Y-65862751D02*
X165955809Y-66100520D01*
X165955809Y-66100520D02*
X165918224Y-66293227D01*
X165918224Y-66293227D02*
X165875655Y-66390827D01*
X165875655Y-66390827D02*
X165830593Y-66440873D01*
X165830593Y-66440873D02*
X165737978Y-66493411D01*
X165737978Y-66493411D02*
X165642870Y-66498395D01*
X165642870Y-66498395D02*
X165545270Y-66455826D01*
X165545270Y-66455826D02*
X165495224Y-66410764D01*
X165495224Y-66410764D02*
X165442686Y-66318149D01*
X165442686Y-66318149D02*
X165385164Y-66130426D01*
X165385164Y-66130426D02*
X165372703Y-65892657D01*
X165372703Y-65892657D02*
X165410288Y-65699950D01*
X165410288Y-65699950D02*
X165452857Y-65602350D01*
X165452857Y-65602350D02*
X165497919Y-65552304D01*
X165497919Y-65552304D02*
X165590534Y-65499766D01*
X167062209Y-65374954D02*
X166273530Y-66703766D01*
X167355009Y-65502662D02*
X167400070Y-65452616D01*
X167400070Y-65452616D02*
X167492686Y-65400078D01*
X167492686Y-65400078D02*
X167730455Y-65387617D01*
X167730455Y-65387617D02*
X167828054Y-65430187D01*
X167828054Y-65430187D02*
X167878100Y-65475248D01*
X167878100Y-65475248D02*
X167930638Y-65567864D01*
X167930638Y-65567864D02*
X167935623Y-65662971D01*
X167935623Y-65662971D02*
X167895546Y-65808125D01*
X167895546Y-65808125D02*
X167354806Y-66408677D01*
X167354806Y-66408677D02*
X167973006Y-66376278D01*
X168824192Y-65330297D02*
X168348654Y-65355219D01*
X168348654Y-65355219D02*
X168326022Y-65833249D01*
X168326022Y-65833249D02*
X168371083Y-65783203D01*
X168371083Y-65783203D02*
X168463699Y-65730665D01*
X168463699Y-65730665D02*
X168701468Y-65718204D01*
X168701468Y-65718204D02*
X168799068Y-65760773D01*
X168799068Y-65760773D02*
X168849114Y-65805835D01*
X168849114Y-65805835D02*
X168901652Y-65898450D01*
X168901652Y-65898450D02*
X168914113Y-66136219D01*
X168914113Y-66136219D02*
X168871543Y-66233819D01*
X168871543Y-66233819D02*
X168826482Y-66283865D01*
X168826482Y-66283865D02*
X168733866Y-66336403D01*
X168733866Y-66336403D02*
X168496097Y-66348864D01*
X168496097Y-66348864D02*
X168398498Y-66306295D01*
X168398498Y-66306295D02*
X168348452Y-66261233D01*
X220127812Y-87651122D02*
X220186133Y-87617450D01*
X220186133Y-87617450D02*
X220290451Y-87596103D01*
X220290451Y-87596103D02*
X220520433Y-87657726D01*
X220520433Y-87657726D02*
X220600101Y-87728372D01*
X220600101Y-87728372D02*
X220633773Y-87786693D01*
X220633773Y-87786693D02*
X220655120Y-87891011D01*
X220655120Y-87891011D02*
X220630470Y-87983004D01*
X220630470Y-87983004D02*
X220547500Y-88108669D01*
X220547500Y-88108669D02*
X219847646Y-88512730D01*
X219847646Y-88512730D02*
X220445600Y-88672951D01*
X221532355Y-87928870D02*
X221348369Y-87879571D01*
X221348369Y-87879571D02*
X221244052Y-87900918D01*
X221244052Y-87900918D02*
X221185731Y-87934590D01*
X221185731Y-87934590D02*
X221056763Y-88047930D01*
X221056763Y-88047930D02*
X220961468Y-88219591D01*
X220961468Y-88219591D02*
X220862870Y-88587563D01*
X220862870Y-88587563D02*
X220884217Y-88691881D01*
X220884217Y-88691881D02*
X220917889Y-88750202D01*
X220917889Y-88750202D02*
X220997557Y-88820848D01*
X220997557Y-88820848D02*
X221181543Y-88870146D01*
X221181543Y-88870146D02*
X221285861Y-88848799D01*
X221285861Y-88848799D02*
X221344182Y-88815128D01*
X221344182Y-88815128D02*
X221414828Y-88735459D01*
X221414828Y-88735459D02*
X221476452Y-88505477D01*
X221476452Y-88505477D02*
X221455105Y-88401159D01*
X221455105Y-88401159D02*
X221421433Y-88342838D01*
X221421433Y-88342838D02*
X221341765Y-88272192D01*
X221341765Y-88272192D02*
X221157779Y-88222894D01*
X221157779Y-88222894D02*
X221053461Y-88244241D01*
X221053461Y-88244241D02*
X220995140Y-88277912D01*
X220995140Y-88277912D02*
X220924494Y-88357581D01*
X222740588Y-88203316D02*
X221579884Y-89223376D01*
X222979593Y-88415254D02*
X223037914Y-88381582D01*
X223037914Y-88381582D02*
X223142232Y-88360235D01*
X223142232Y-88360235D02*
X223372214Y-88421859D01*
X223372214Y-88421859D02*
X223451882Y-88492505D01*
X223451882Y-88492505D02*
X223485554Y-88550826D01*
X223485554Y-88550826D02*
X223506901Y-88655143D01*
X223506901Y-88655143D02*
X223482252Y-88747136D01*
X223482252Y-88747136D02*
X223399281Y-88872801D01*
X223399281Y-88872801D02*
X222699427Y-89276862D01*
X222699427Y-89276862D02*
X223297381Y-89437083D01*
X223757345Y-89560331D02*
X223941331Y-89609629D01*
X223941331Y-89609629D02*
X224045649Y-89588282D01*
X224045649Y-89588282D02*
X224103970Y-89554611D01*
X224103970Y-89554611D02*
X224232937Y-89441271D01*
X224232937Y-89441271D02*
X224328233Y-89269610D01*
X224328233Y-89269610D02*
X224426830Y-88901638D01*
X224426830Y-88901638D02*
X224405483Y-88797320D01*
X224405483Y-88797320D02*
X224371812Y-88738999D01*
X224371812Y-88738999D02*
X224292143Y-88668353D01*
X224292143Y-88668353D02*
X224108157Y-88619054D01*
X224108157Y-88619054D02*
X224003840Y-88640401D01*
X224003840Y-88640401D02*
X223945519Y-88674073D01*
X223945519Y-88674073D02*
X223874873Y-88753741D01*
X223874873Y-88753741D02*
X223813249Y-88983724D01*
X223813249Y-88983724D02*
X223834596Y-89088041D01*
X223834596Y-89088041D02*
X223868268Y-89146362D01*
X223868268Y-89146362D02*
X223947936Y-89217008D01*
X223947936Y-89217008D02*
X224131922Y-89266307D01*
X224131922Y-89266307D02*
X224236240Y-89244960D01*
X224236240Y-89244960D02*
X224294561Y-89211288D01*
X224294561Y-89211288D02*
X224365207Y-89131620D01*
X182712706Y-58881890D02*
X182760325Y-58834271D01*
X182760325Y-58834271D02*
X182855563Y-58786652D01*
X182855563Y-58786652D02*
X183093658Y-58786652D01*
X183093658Y-58786652D02*
X183188896Y-58834271D01*
X183188896Y-58834271D02*
X183236515Y-58881890D01*
X183236515Y-58881890D02*
X183284134Y-58977128D01*
X183284134Y-58977128D02*
X183284134Y-59072366D01*
X183284134Y-59072366D02*
X183236515Y-59215223D01*
X183236515Y-59215223D02*
X182665087Y-59786652D01*
X182665087Y-59786652D02*
X183284134Y-59786652D01*
X184236515Y-59786652D02*
X183665087Y-59786652D01*
X183950801Y-59786652D02*
X183950801Y-58786652D01*
X183950801Y-58786652D02*
X183855563Y-58929509D01*
X183855563Y-58929509D02*
X183760325Y-59024747D01*
X183760325Y-59024747D02*
X183665087Y-59072366D01*
X185379372Y-58739033D02*
X184522230Y-60024747D01*
X185665087Y-58881890D02*
X185712706Y-58834271D01*
X185712706Y-58834271D02*
X185807944Y-58786652D01*
X185807944Y-58786652D02*
X186046039Y-58786652D01*
X186046039Y-58786652D02*
X186141277Y-58834271D01*
X186141277Y-58834271D02*
X186188896Y-58881890D01*
X186188896Y-58881890D02*
X186236515Y-58977128D01*
X186236515Y-58977128D02*
X186236515Y-59072366D01*
X186236515Y-59072366D02*
X186188896Y-59215223D01*
X186188896Y-59215223D02*
X185617468Y-59786652D01*
X185617468Y-59786652D02*
X186236515Y-59786652D01*
X187093658Y-59119985D02*
X187093658Y-59786652D01*
X186855563Y-58739033D02*
X186617468Y-59453318D01*
X186617468Y-59453318D02*
X187236515Y-59453318D01*
X200721306Y-64241290D02*
X200768925Y-64193671D01*
X200768925Y-64193671D02*
X200864163Y-64146052D01*
X200864163Y-64146052D02*
X201102258Y-64146052D01*
X201102258Y-64146052D02*
X201197496Y-64193671D01*
X201197496Y-64193671D02*
X201245115Y-64241290D01*
X201245115Y-64241290D02*
X201292734Y-64336528D01*
X201292734Y-64336528D02*
X201292734Y-64431766D01*
X201292734Y-64431766D02*
X201245115Y-64574623D01*
X201245115Y-64574623D02*
X200673687Y-65146052D01*
X200673687Y-65146052D02*
X201292734Y-65146052D01*
X201673687Y-64241290D02*
X201721306Y-64193671D01*
X201721306Y-64193671D02*
X201816544Y-64146052D01*
X201816544Y-64146052D02*
X202054639Y-64146052D01*
X202054639Y-64146052D02*
X202149877Y-64193671D01*
X202149877Y-64193671D02*
X202197496Y-64241290D01*
X202197496Y-64241290D02*
X202245115Y-64336528D01*
X202245115Y-64336528D02*
X202245115Y-64431766D01*
X202245115Y-64431766D02*
X202197496Y-64574623D01*
X202197496Y-64574623D02*
X201626068Y-65146052D01*
X201626068Y-65146052D02*
X202245115Y-65146052D01*
X203387972Y-64098433D02*
X202530830Y-65384147D01*
X203673687Y-64241290D02*
X203721306Y-64193671D01*
X203721306Y-64193671D02*
X203816544Y-64146052D01*
X203816544Y-64146052D02*
X204054639Y-64146052D01*
X204054639Y-64146052D02*
X204149877Y-64193671D01*
X204149877Y-64193671D02*
X204197496Y-64241290D01*
X204197496Y-64241290D02*
X204245115Y-64336528D01*
X204245115Y-64336528D02*
X204245115Y-64431766D01*
X204245115Y-64431766D02*
X204197496Y-64574623D01*
X204197496Y-64574623D02*
X203626068Y-65146052D01*
X203626068Y-65146052D02*
X204245115Y-65146052D01*
X204578449Y-64146052D02*
X205197496Y-64146052D01*
X205197496Y-64146052D02*
X204864163Y-64527004D01*
X204864163Y-64527004D02*
X205007020Y-64527004D01*
X205007020Y-64527004D02*
X205102258Y-64574623D01*
X205102258Y-64574623D02*
X205149877Y-64622242D01*
X205149877Y-64622242D02*
X205197496Y-64717480D01*
X205197496Y-64717480D02*
X205197496Y-64955575D01*
X205197496Y-64955575D02*
X205149877Y-65050813D01*
X205149877Y-65050813D02*
X205102258Y-65098433D01*
X205102258Y-65098433D02*
X205007020Y-65146052D01*
X205007020Y-65146052D02*
X204721306Y-65146052D01*
X204721306Y-65146052D02*
X204626068Y-65098433D01*
X204626068Y-65098433D02*
X204578449Y-65050813D01*
X164209171Y-32287344D02*
X163638525Y-32317250D01*
X163923848Y-32302297D02*
X163871512Y-31303668D01*
X163871512Y-31303668D02*
X163783881Y-31451313D01*
X163783881Y-31451313D02*
X163693758Y-31551405D01*
X163693758Y-31551405D02*
X163601142Y-31603943D01*
X165295633Y-31181348D02*
X164506954Y-32510160D01*
X165796093Y-31631964D02*
X165698493Y-31589395D01*
X165698493Y-31589395D02*
X165648447Y-31544333D01*
X165648447Y-31544333D02*
X165595909Y-31451718D01*
X165595909Y-31451718D02*
X165593417Y-31404164D01*
X165593417Y-31404164D02*
X165635986Y-31306564D01*
X165635986Y-31306564D02*
X165681048Y-31256518D01*
X165681048Y-31256518D02*
X165773663Y-31203980D01*
X165773663Y-31203980D02*
X165963879Y-31194011D01*
X165963879Y-31194011D02*
X166061478Y-31236581D01*
X166061478Y-31236581D02*
X166111524Y-31281642D01*
X166111524Y-31281642D02*
X166164062Y-31374258D01*
X166164062Y-31374258D02*
X166166555Y-31421812D01*
X166166555Y-31421812D02*
X166123985Y-31519411D01*
X166123985Y-31519411D02*
X166078924Y-31569457D01*
X166078924Y-31569457D02*
X165986308Y-31621995D01*
X165986308Y-31621995D02*
X165796093Y-31631964D01*
X165796093Y-31631964D02*
X165703478Y-31684502D01*
X165703478Y-31684502D02*
X165658416Y-31734548D01*
X165658416Y-31734548D02*
X165615847Y-31832148D01*
X165615847Y-31832148D02*
X165625815Y-32022363D01*
X165625815Y-32022363D02*
X165678354Y-32114979D01*
X165678354Y-32114979D02*
X165728400Y-32160040D01*
X165728400Y-32160040D02*
X165825999Y-32202610D01*
X165825999Y-32202610D02*
X166016214Y-32192641D01*
X166016214Y-32192641D02*
X166108830Y-32140103D01*
X166108830Y-32140103D02*
X166153891Y-32090057D01*
X166153891Y-32090057D02*
X166196461Y-31992457D01*
X166196461Y-31992457D02*
X166186492Y-31802242D01*
X166186492Y-31802242D02*
X166133954Y-31709626D01*
X166133954Y-31709626D02*
X166083908Y-31664565D01*
X166083908Y-31664565D02*
X165986308Y-31621995D01*
X145681048Y-43233889D02*
X145775923Y-43225589D01*
X145775923Y-43225589D02*
X145874949Y-43264726D01*
X145874949Y-43264726D02*
X145926538Y-43308013D01*
X145926538Y-43308013D02*
X145982276Y-43398739D01*
X145982276Y-43398739D02*
X146046315Y-43584340D01*
X146046315Y-43584340D02*
X146067066Y-43821529D01*
X146067066Y-43821529D02*
X146036229Y-44015431D01*
X146036229Y-44015431D02*
X145997092Y-44114457D01*
X145997092Y-44114457D02*
X145953805Y-44166045D01*
X145953805Y-44166045D02*
X145863079Y-44221783D01*
X145863079Y-44221783D02*
X145768204Y-44230084D01*
X145768204Y-44230084D02*
X145669178Y-44190947D01*
X145669178Y-44190947D02*
X145617589Y-44147659D01*
X145617589Y-44147659D02*
X145561851Y-44056934D01*
X145561851Y-44056934D02*
X145497812Y-43871332D01*
X145497812Y-43871332D02*
X145477061Y-43634143D01*
X145477061Y-43634143D02*
X145507898Y-43440242D01*
X145507898Y-43440242D02*
X145547035Y-43341216D01*
X145547035Y-43341216D02*
X145590322Y-43289627D01*
X145590322Y-43289627D02*
X145681048Y-43233889D01*
X147147471Y-43057793D02*
X146405647Y-44413319D01*
X147618279Y-44068223D02*
X147808031Y-44051622D01*
X147808031Y-44051622D02*
X147898756Y-43995884D01*
X147898756Y-43995884D02*
X147942044Y-43944296D01*
X147942044Y-43944296D02*
X148024469Y-43793681D01*
X148024469Y-43793681D02*
X148055305Y-43599780D01*
X148055305Y-43599780D02*
X148022103Y-43220277D01*
X148022103Y-43220277D02*
X147966365Y-43129552D01*
X147966365Y-43129552D02*
X147914777Y-43086264D01*
X147914777Y-43086264D02*
X147815751Y-43047127D01*
X147815751Y-43047127D02*
X147625999Y-43063728D01*
X147625999Y-43063728D02*
X147535274Y-43119466D01*
X147535274Y-43119466D02*
X147491986Y-43171054D01*
X147491986Y-43171054D02*
X147452849Y-43270080D01*
X147452849Y-43270080D02*
X147473600Y-43507270D01*
X147473600Y-43507270D02*
X147529339Y-43597995D01*
X147529339Y-43597995D02*
X147580927Y-43641283D01*
X147580927Y-43641283D02*
X147679953Y-43680420D01*
X147679953Y-43680420D02*
X147869704Y-43663819D01*
X147869704Y-43663819D02*
X147960430Y-43608080D01*
X147960430Y-43608080D02*
X148003717Y-43556492D01*
X148003717Y-43556492D02*
X148042855Y-43457466D01*
X146641370Y-61313189D02*
X146072115Y-61362993D01*
X146356742Y-61338091D02*
X146269587Y-60341896D01*
X146269587Y-60341896D02*
X146187162Y-60492510D01*
X146187162Y-60492510D02*
X146100587Y-60595687D01*
X146100587Y-60595687D02*
X146009861Y-60651425D01*
X147170906Y-60263041D02*
X147265781Y-60254741D01*
X147265781Y-60254741D02*
X147364807Y-60293878D01*
X147364807Y-60293878D02*
X147416396Y-60337165D01*
X147416396Y-60337165D02*
X147472134Y-60427891D01*
X147472134Y-60427891D02*
X147536173Y-60613492D01*
X147536173Y-60613492D02*
X147556924Y-60850681D01*
X147556924Y-60850681D02*
X147526087Y-61044583D01*
X147526087Y-61044583D02*
X147486950Y-61143609D01*
X147486950Y-61143609D02*
X147443663Y-61195197D01*
X147443663Y-61195197D02*
X147352937Y-61250935D01*
X147352937Y-61250935D02*
X147258062Y-61259236D01*
X147258062Y-61259236D02*
X147159036Y-61220099D01*
X147159036Y-61220099D02*
X147107447Y-61176811D01*
X147107447Y-61176811D02*
X147051709Y-61086086D01*
X147051709Y-61086086D02*
X146987670Y-60900484D01*
X146987670Y-60900484D02*
X146966919Y-60663295D01*
X146966919Y-60663295D02*
X146997756Y-60469394D01*
X146997756Y-60469394D02*
X147036893Y-60370368D01*
X147036893Y-60370368D02*
X147080180Y-60318779D01*
X147080180Y-60318779D02*
X147170906Y-60263041D01*
X148637329Y-60086945D02*
X147895505Y-61442471D01*
X149582516Y-61055872D02*
X149013262Y-61105676D01*
X149297889Y-61080774D02*
X149210733Y-60084579D01*
X149210733Y-60084579D02*
X149128308Y-60235193D01*
X149128308Y-60235193D02*
X149041733Y-60338370D01*
X149041733Y-60338370D02*
X148951008Y-60394108D01*
X150056894Y-61014370D02*
X150246646Y-60997769D01*
X150246646Y-60997769D02*
X150337371Y-60942030D01*
X150337371Y-60942030D02*
X150380659Y-60890442D01*
X150380659Y-60890442D02*
X150463084Y-60739828D01*
X150463084Y-60739828D02*
X150493920Y-60545926D01*
X150493920Y-60545926D02*
X150460718Y-60166424D01*
X150460718Y-60166424D02*
X150404980Y-60075698D01*
X150404980Y-60075698D02*
X150353392Y-60032411D01*
X150353392Y-60032411D02*
X150254366Y-59993273D01*
X150254366Y-59993273D02*
X150064614Y-60009874D01*
X150064614Y-60009874D02*
X149973889Y-60065613D01*
X149973889Y-60065613D02*
X149930601Y-60117201D01*
X149930601Y-60117201D02*
X149891464Y-60216227D01*
X149891464Y-60216227D02*
X149912215Y-60453416D01*
X149912215Y-60453416D02*
X149967954Y-60544142D01*
X149967954Y-60544142D02*
X150019542Y-60587429D01*
X150019542Y-60587429D02*
X150118568Y-60626566D01*
X150118568Y-60626566D02*
X150308319Y-60609965D01*
X150308319Y-60609965D02*
X150399045Y-60554227D01*
X150399045Y-60554227D02*
X150442332Y-60502639D01*
X150442332Y-60502639D02*
X150481469Y-60403613D01*
X201292734Y-48026452D02*
X200721306Y-48026452D01*
X201007020Y-48026452D02*
X201007020Y-47026452D01*
X201007020Y-47026452D02*
X200911782Y-47169309D01*
X200911782Y-47169309D02*
X200816544Y-47264547D01*
X200816544Y-47264547D02*
X200721306Y-47312166D01*
X201626068Y-47026452D02*
X202245115Y-47026452D01*
X202245115Y-47026452D02*
X201911782Y-47407404D01*
X201911782Y-47407404D02*
X202054639Y-47407404D01*
X202054639Y-47407404D02*
X202149877Y-47455023D01*
X202149877Y-47455023D02*
X202197496Y-47502642D01*
X202197496Y-47502642D02*
X202245115Y-47597880D01*
X202245115Y-47597880D02*
X202245115Y-47835975D01*
X202245115Y-47835975D02*
X202197496Y-47931213D01*
X202197496Y-47931213D02*
X202149877Y-47978833D01*
X202149877Y-47978833D02*
X202054639Y-48026452D01*
X202054639Y-48026452D02*
X201768925Y-48026452D01*
X201768925Y-48026452D02*
X201673687Y-47978833D01*
X201673687Y-47978833D02*
X201626068Y-47931213D01*
X203387972Y-46978833D02*
X202530830Y-48264547D01*
X204245115Y-48026452D02*
X203673687Y-48026452D01*
X203959401Y-48026452D02*
X203959401Y-47026452D01*
X203959401Y-47026452D02*
X203864163Y-47169309D01*
X203864163Y-47169309D02*
X203768925Y-47264547D01*
X203768925Y-47264547D02*
X203673687Y-47312166D01*
X205102258Y-47026452D02*
X204911782Y-47026452D01*
X204911782Y-47026452D02*
X204816544Y-47074071D01*
X204816544Y-47074071D02*
X204768925Y-47121690D01*
X204768925Y-47121690D02*
X204673687Y-47264547D01*
X204673687Y-47264547D02*
X204626068Y-47455023D01*
X204626068Y-47455023D02*
X204626068Y-47835975D01*
X204626068Y-47835975D02*
X204673687Y-47931213D01*
X204673687Y-47931213D02*
X204721306Y-47978833D01*
X204721306Y-47978833D02*
X204816544Y-48026452D01*
X204816544Y-48026452D02*
X205007020Y-48026452D01*
X205007020Y-48026452D02*
X205102258Y-47978833D01*
X205102258Y-47978833D02*
X205149877Y-47931213D01*
X205149877Y-47931213D02*
X205197496Y-47835975D01*
X205197496Y-47835975D02*
X205197496Y-47597880D01*
X205197496Y-47597880D02*
X205149877Y-47502642D01*
X205149877Y-47502642D02*
X205102258Y-47455023D01*
X205102258Y-47455023D02*
X205007020Y-47407404D01*
X205007020Y-47407404D02*
X204816544Y-47407404D01*
X204816544Y-47407404D02*
X204721306Y-47455023D01*
X204721306Y-47455023D02*
X204673687Y-47502642D01*
X204673687Y-47502642D02*
X204626068Y-47597880D01*
X183284134Y-42667052D02*
X182712706Y-42667052D01*
X182998420Y-42667052D02*
X182998420Y-41667052D01*
X182998420Y-41667052D02*
X182903182Y-41809909D01*
X182903182Y-41809909D02*
X182807944Y-41905147D01*
X182807944Y-41905147D02*
X182712706Y-41952766D01*
X183665087Y-41762290D02*
X183712706Y-41714671D01*
X183712706Y-41714671D02*
X183807944Y-41667052D01*
X183807944Y-41667052D02*
X184046039Y-41667052D01*
X184046039Y-41667052D02*
X184141277Y-41714671D01*
X184141277Y-41714671D02*
X184188896Y-41762290D01*
X184188896Y-41762290D02*
X184236515Y-41857528D01*
X184236515Y-41857528D02*
X184236515Y-41952766D01*
X184236515Y-41952766D02*
X184188896Y-42095623D01*
X184188896Y-42095623D02*
X183617468Y-42667052D01*
X183617468Y-42667052D02*
X184236515Y-42667052D01*
X185379372Y-41619433D02*
X184522230Y-42905147D01*
X186236515Y-42667052D02*
X185665087Y-42667052D01*
X185950801Y-42667052D02*
X185950801Y-41667052D01*
X185950801Y-41667052D02*
X185855563Y-41809909D01*
X185855563Y-41809909D02*
X185760325Y-41905147D01*
X185760325Y-41905147D02*
X185665087Y-41952766D01*
X186569849Y-41667052D02*
X187236515Y-41667052D01*
X187236515Y-41667052D02*
X186807944Y-42667052D01*
X201651468Y-29906852D02*
X202270515Y-29906852D01*
X202270515Y-29906852D02*
X201937182Y-30287804D01*
X201937182Y-30287804D02*
X202080039Y-30287804D01*
X202080039Y-30287804D02*
X202175277Y-30335423D01*
X202175277Y-30335423D02*
X202222896Y-30383042D01*
X202222896Y-30383042D02*
X202270515Y-30478280D01*
X202270515Y-30478280D02*
X202270515Y-30716375D01*
X202270515Y-30716375D02*
X202222896Y-30811613D01*
X202222896Y-30811613D02*
X202175277Y-30859233D01*
X202175277Y-30859233D02*
X202080039Y-30906852D01*
X202080039Y-30906852D02*
X201794325Y-30906852D01*
X201794325Y-30906852D02*
X201699087Y-30859233D01*
X201699087Y-30859233D02*
X201651468Y-30811613D01*
X203413372Y-29859233D02*
X202556230Y-31144947D01*
X204175277Y-29906852D02*
X203984801Y-29906852D01*
X203984801Y-29906852D02*
X203889563Y-29954471D01*
X203889563Y-29954471D02*
X203841944Y-30002090D01*
X203841944Y-30002090D02*
X203746706Y-30144947D01*
X203746706Y-30144947D02*
X203699087Y-30335423D01*
X203699087Y-30335423D02*
X203699087Y-30716375D01*
X203699087Y-30716375D02*
X203746706Y-30811613D01*
X203746706Y-30811613D02*
X203794325Y-30859233D01*
X203794325Y-30859233D02*
X203889563Y-30906852D01*
X203889563Y-30906852D02*
X204080039Y-30906852D01*
X204080039Y-30906852D02*
X204175277Y-30859233D01*
X204175277Y-30859233D02*
X204222896Y-30811613D01*
X204222896Y-30811613D02*
X204270515Y-30716375D01*
X204270515Y-30716375D02*
X204270515Y-30478280D01*
X204270515Y-30478280D02*
X204222896Y-30383042D01*
X204222896Y-30383042D02*
X204175277Y-30335423D01*
X204175277Y-30335423D02*
X204080039Y-30287804D01*
X204080039Y-30287804D02*
X203889563Y-30287804D01*
X203889563Y-30287804D02*
X203794325Y-30335423D01*
X203794325Y-30335423D02*
X203746706Y-30383042D01*
X203746706Y-30383042D02*
X203699087Y-30478280D01*
X183690487Y-24668090D02*
X183738106Y-24620471D01*
X183738106Y-24620471D02*
X183833344Y-24572852D01*
X183833344Y-24572852D02*
X184071439Y-24572852D01*
X184071439Y-24572852D02*
X184166677Y-24620471D01*
X184166677Y-24620471D02*
X184214296Y-24668090D01*
X184214296Y-24668090D02*
X184261915Y-24763328D01*
X184261915Y-24763328D02*
X184261915Y-24858566D01*
X184261915Y-24858566D02*
X184214296Y-25001423D01*
X184214296Y-25001423D02*
X183642868Y-25572852D01*
X183642868Y-25572852D02*
X184261915Y-25572852D01*
X185404772Y-24525233D02*
X184547630Y-25810947D01*
X185642868Y-24572852D02*
X186309534Y-24572852D01*
X186309534Y-24572852D02*
X185880963Y-25572852D01*
X164128701Y-49434656D02*
X163558055Y-49464562D01*
X163843378Y-49449609D02*
X163791042Y-48450979D01*
X163791042Y-48450979D02*
X163703411Y-48598625D01*
X163703411Y-48598625D02*
X163613288Y-48698717D01*
X163613288Y-48698717D02*
X163520672Y-48751255D01*
X165079777Y-49384812D02*
X164509131Y-49414718D01*
X164794454Y-49399765D02*
X164742118Y-48401136D01*
X164742118Y-48401136D02*
X164654487Y-48548781D01*
X164654487Y-48548781D02*
X164564364Y-48648873D01*
X164564364Y-48648873D02*
X164471748Y-48701411D01*
X166166239Y-48278816D02*
X165377560Y-49607628D01*
X167077036Y-49280140D02*
X166506390Y-49310046D01*
X166791713Y-49295093D02*
X166739377Y-48296464D01*
X166739377Y-48296464D02*
X166651746Y-48444109D01*
X166651746Y-48444109D02*
X166561623Y-48544201D01*
X166561623Y-48544201D02*
X166469007Y-48596740D01*
X167617775Y-48679588D02*
X167520175Y-48637019D01*
X167520175Y-48637019D02*
X167470129Y-48591957D01*
X167470129Y-48591957D02*
X167417591Y-48499342D01*
X167417591Y-48499342D02*
X167415099Y-48451788D01*
X167415099Y-48451788D02*
X167457668Y-48354188D01*
X167457668Y-48354188D02*
X167502730Y-48304142D01*
X167502730Y-48304142D02*
X167595345Y-48251604D01*
X167595345Y-48251604D02*
X167785560Y-48241636D01*
X167785560Y-48241636D02*
X167883160Y-48284205D01*
X167883160Y-48284205D02*
X167933206Y-48329267D01*
X167933206Y-48329267D02*
X167985744Y-48421882D01*
X167985744Y-48421882D02*
X167988236Y-48469436D01*
X167988236Y-48469436D02*
X167945667Y-48567036D01*
X167945667Y-48567036D02*
X167900605Y-48617081D01*
X167900605Y-48617081D02*
X167807990Y-48669620D01*
X167807990Y-48669620D02*
X167617775Y-48679588D01*
X167617775Y-48679588D02*
X167525159Y-48732127D01*
X167525159Y-48732127D02*
X167480098Y-48782173D01*
X167480098Y-48782173D02*
X167437528Y-48879772D01*
X167437528Y-48879772D02*
X167447497Y-49069987D01*
X167447497Y-49069987D02*
X167500035Y-49162603D01*
X167500035Y-49162603D02*
X167550081Y-49207664D01*
X167550081Y-49207664D02*
X167647681Y-49250234D01*
X167647681Y-49250234D02*
X167837896Y-49240265D01*
X167837896Y-49240265D02*
X167930512Y-49187727D01*
X167930512Y-49187727D02*
X167975573Y-49137681D01*
X167975573Y-49137681D02*
X168018143Y-49040081D01*
X168018143Y-49040081D02*
X168008174Y-48849866D01*
X168008174Y-48849866D02*
X167955636Y-48757251D01*
X167955636Y-48757251D02*
X167905590Y-48712189D01*
X167905590Y-48712189D02*
X167807990Y-48669620D01*
X219278333Y-56149819D02*
X218706905Y-56149819D01*
X218992619Y-56149819D02*
X218992619Y-55149819D01*
X218992619Y-55149819D02*
X218897381Y-55292676D01*
X218897381Y-55292676D02*
X218802143Y-55387914D01*
X218802143Y-55387914D02*
X218706905Y-55435533D01*
X220135476Y-55483152D02*
X220135476Y-56149819D01*
X219897381Y-55102200D02*
X219659286Y-55816485D01*
X219659286Y-55816485D02*
X220278333Y-55816485D01*
X221373571Y-55102200D02*
X220516429Y-56387914D01*
X222230714Y-56149819D02*
X221659286Y-56149819D01*
X221945000Y-56149819D02*
X221945000Y-55149819D01*
X221945000Y-55149819D02*
X221849762Y-55292676D01*
X221849762Y-55292676D02*
X221754524Y-55387914D01*
X221754524Y-55387914D02*
X221659286Y-55435533D01*
X223135476Y-55149819D02*
X222659286Y-55149819D01*
X222659286Y-55149819D02*
X222611667Y-55626009D01*
X222611667Y-55626009D02*
X222659286Y-55578390D01*
X222659286Y-55578390D02*
X222754524Y-55530771D01*
X222754524Y-55530771D02*
X222992619Y-55530771D01*
X222992619Y-55530771D02*
X223087857Y-55578390D01*
X223087857Y-55578390D02*
X223135476Y-55626009D01*
X223135476Y-55626009D02*
X223183095Y-55721247D01*
X223183095Y-55721247D02*
X223183095Y-55959342D01*
X223183095Y-55959342D02*
X223135476Y-56054580D01*
X223135476Y-56054580D02*
X223087857Y-56102200D01*
X223087857Y-56102200D02*
X222992619Y-56149819D01*
X222992619Y-56149819D02*
X222754524Y-56149819D01*
X222754524Y-56149819D02*
X222659286Y-56102200D01*
X222659286Y-56102200D02*
X222611667Y-56054580D01*
X237360289Y-93228137D02*
X237421323Y-93199676D01*
X237421323Y-93199676D02*
X237527104Y-93187502D01*
X237527104Y-93187502D02*
X237750840Y-93268936D01*
X237750840Y-93268936D02*
X237824048Y-93346256D01*
X237824048Y-93346256D02*
X237852509Y-93407290D01*
X237852509Y-93407290D02*
X237864683Y-93513072D01*
X237864683Y-93513072D02*
X237832109Y-93602566D01*
X237832109Y-93602566D02*
X237738502Y-93720521D01*
X237738502Y-93720521D02*
X237006095Y-94062048D01*
X237006095Y-94062048D02*
X237587809Y-94273775D01*
X238243060Y-93448089D02*
X238869522Y-93676103D01*
X238869522Y-93676103D02*
X238124777Y-94469215D01*
X239914996Y-94005949D02*
X238669805Y-94920965D01*
X240134619Y-94237911D02*
X240195653Y-94209450D01*
X240195653Y-94209450D02*
X240301435Y-94197276D01*
X240301435Y-94197276D02*
X240525171Y-94278710D01*
X240525171Y-94278710D02*
X240598379Y-94356030D01*
X240598379Y-94356030D02*
X240626839Y-94417064D01*
X240626839Y-94417064D02*
X240639013Y-94522845D01*
X240639013Y-94522845D02*
X240606440Y-94612340D01*
X240606440Y-94612340D02*
X240512833Y-94730295D01*
X240512833Y-94730295D02*
X239780425Y-95071822D01*
X239780425Y-95071822D02*
X240362140Y-95283549D01*
X241094547Y-94942022D02*
X241021339Y-94864701D01*
X241021339Y-94864701D02*
X240992879Y-94803667D01*
X240992879Y-94803667D02*
X240980705Y-94697886D01*
X240980705Y-94697886D02*
X240996992Y-94653139D01*
X240996992Y-94653139D02*
X241074312Y-94579931D01*
X241074312Y-94579931D02*
X241135346Y-94551470D01*
X241135346Y-94551470D02*
X241241127Y-94539296D01*
X241241127Y-94539296D02*
X241420116Y-94604443D01*
X241420116Y-94604443D02*
X241493324Y-94681764D01*
X241493324Y-94681764D02*
X241521785Y-94742798D01*
X241521785Y-94742798D02*
X241533959Y-94848579D01*
X241533959Y-94848579D02*
X241517672Y-94893326D01*
X241517672Y-94893326D02*
X241440351Y-94966534D01*
X241440351Y-94966534D02*
X241379318Y-94994995D01*
X241379318Y-94994995D02*
X241273536Y-95007169D01*
X241273536Y-95007169D02*
X241094547Y-94942022D01*
X241094547Y-94942022D02*
X240988766Y-94954196D01*
X240988766Y-94954196D02*
X240927732Y-94982656D01*
X240927732Y-94982656D02*
X240850411Y-95055864D01*
X240850411Y-95055864D02*
X240785265Y-95234853D01*
X240785265Y-95234853D02*
X240797439Y-95340634D01*
X240797439Y-95340634D02*
X240825899Y-95401668D01*
X240825899Y-95401668D02*
X240899107Y-95478989D01*
X240899107Y-95478989D02*
X241078096Y-95544136D01*
X241078096Y-95544136D02*
X241183877Y-95531962D01*
X241183877Y-95531962D02*
X241244911Y-95503501D01*
X241244911Y-95503501D02*
X241322232Y-95430293D01*
X241322232Y-95430293D02*
X241387379Y-95251304D01*
X241387379Y-95251304D02*
X241375205Y-95145523D01*
X241375205Y-95145523D02*
X241346744Y-95084489D01*
X241346744Y-95084489D02*
X241273536Y-95007169D01*
X220135476Y-38363552D02*
X220135476Y-39030219D01*
X219897381Y-37982600D02*
X219659286Y-38696885D01*
X219659286Y-38696885D02*
X220278333Y-38696885D01*
X221373571Y-37982600D02*
X220516429Y-39268314D01*
X222183095Y-38030219D02*
X221706905Y-38030219D01*
X221706905Y-38030219D02*
X221659286Y-38506409D01*
X221659286Y-38506409D02*
X221706905Y-38458790D01*
X221706905Y-38458790D02*
X221802143Y-38411171D01*
X221802143Y-38411171D02*
X222040238Y-38411171D01*
X222040238Y-38411171D02*
X222135476Y-38458790D01*
X222135476Y-38458790D02*
X222183095Y-38506409D01*
X222183095Y-38506409D02*
X222230714Y-38601647D01*
X222230714Y-38601647D02*
X222230714Y-38839742D01*
X222230714Y-38839742D02*
X222183095Y-38934980D01*
X222183095Y-38934980D02*
X222135476Y-38982600D01*
X222135476Y-38982600D02*
X222040238Y-39030219D01*
X222040238Y-39030219D02*
X221802143Y-39030219D01*
X221802143Y-39030219D02*
X221706905Y-38982600D01*
X221706905Y-38982600D02*
X221659286Y-38934980D01*
D12*
X241642574Y-64902422D02*
X241706383Y-64938136D01*
X241706383Y-64938136D02*
X241834002Y-64938136D01*
X241834002Y-64938136D02*
X241897812Y-64902422D01*
X241897812Y-64902422D02*
X241929716Y-64830993D01*
X241929716Y-64830993D02*
X241929716Y-64795279D01*
X241929716Y-64795279D02*
X241897812Y-64723850D01*
X241897812Y-64723850D02*
X241834002Y-64688136D01*
X241834002Y-64688136D02*
X241738288Y-64688136D01*
X241738288Y-64688136D02*
X241674478Y-64652422D01*
X241674478Y-64652422D02*
X241642574Y-64580993D01*
X241642574Y-64580993D02*
X241642574Y-64545279D01*
X241642574Y-64545279D02*
X241674478Y-64473850D01*
X241674478Y-64473850D02*
X241738288Y-64438136D01*
X241738288Y-64438136D02*
X241834002Y-64438136D01*
X241834002Y-64438136D02*
X241897812Y-64473850D01*
X242184955Y-64259564D02*
X242216859Y-64223850D01*
X242216859Y-64223850D02*
X242280669Y-64188136D01*
X242280669Y-64188136D02*
X242440193Y-64188136D01*
X242440193Y-64188136D02*
X242504002Y-64223850D01*
X242504002Y-64223850D02*
X242535907Y-64259564D01*
X242535907Y-64259564D02*
X242567812Y-64330993D01*
X242567812Y-64330993D02*
X242567812Y-64402422D01*
X242567812Y-64402422D02*
X242535907Y-64509564D01*
X242535907Y-64509564D02*
X242153050Y-64938136D01*
X242153050Y-64938136D02*
X242567812Y-64938136D01*
X242823050Y-64259564D02*
X242854954Y-64223850D01*
X242854954Y-64223850D02*
X242918764Y-64188136D01*
X242918764Y-64188136D02*
X243078288Y-64188136D01*
X243078288Y-64188136D02*
X243142097Y-64223850D01*
X243142097Y-64223850D02*
X243174002Y-64259564D01*
X243174002Y-64259564D02*
X243205907Y-64330993D01*
X243205907Y-64330993D02*
X243205907Y-64402422D01*
X243205907Y-64402422D02*
X243174002Y-64509564D01*
X243174002Y-64509564D02*
X242791145Y-64938136D01*
X242791145Y-64938136D02*
X243205907Y-64938136D01*
X243971621Y-64152422D02*
X243397335Y-65116707D01*
X244194954Y-64938136D02*
X244194954Y-64188136D01*
X244194954Y-64188136D02*
X244354478Y-64188136D01*
X244354478Y-64188136D02*
X244450192Y-64223850D01*
X244450192Y-64223850D02*
X244514002Y-64295279D01*
X244514002Y-64295279D02*
X244545907Y-64366707D01*
X244545907Y-64366707D02*
X244577811Y-64509564D01*
X244577811Y-64509564D02*
X244577811Y-64616707D01*
X244577811Y-64616707D02*
X244545907Y-64759564D01*
X244545907Y-64759564D02*
X244514002Y-64830993D01*
X244514002Y-64830993D02*
X244450192Y-64902422D01*
X244450192Y-64902422D02*
X244354478Y-64938136D01*
X244354478Y-64938136D02*
X244194954Y-64938136D01*
X244960669Y-64509564D02*
X244896859Y-64473850D01*
X244896859Y-64473850D02*
X244864954Y-64438136D01*
X244864954Y-64438136D02*
X244833050Y-64366707D01*
X244833050Y-64366707D02*
X244833050Y-64330993D01*
X244833050Y-64330993D02*
X244864954Y-64259564D01*
X244864954Y-64259564D02*
X244896859Y-64223850D01*
X244896859Y-64223850D02*
X244960669Y-64188136D01*
X244960669Y-64188136D02*
X245088288Y-64188136D01*
X245088288Y-64188136D02*
X245152097Y-64223850D01*
X245152097Y-64223850D02*
X245184002Y-64259564D01*
X245184002Y-64259564D02*
X245215907Y-64330993D01*
X245215907Y-64330993D02*
X245215907Y-64366707D01*
X245215907Y-64366707D02*
X245184002Y-64438136D01*
X245184002Y-64438136D02*
X245152097Y-64473850D01*
X245152097Y-64473850D02*
X245088288Y-64509564D01*
X245088288Y-64509564D02*
X244960669Y-64509564D01*
X244960669Y-64509564D02*
X244896859Y-64545279D01*
X244896859Y-64545279D02*
X244864954Y-64580993D01*
X244864954Y-64580993D02*
X244833050Y-64652422D01*
X244833050Y-64652422D02*
X244833050Y-64795279D01*
X244833050Y-64795279D02*
X244864954Y-64866707D01*
X244864954Y-64866707D02*
X244896859Y-64902422D01*
X244896859Y-64902422D02*
X244960669Y-64938136D01*
X244960669Y-64938136D02*
X245088288Y-64938136D01*
X245088288Y-64938136D02*
X245152097Y-64902422D01*
X245152097Y-64902422D02*
X245184002Y-64866707D01*
X245184002Y-64866707D02*
X245215907Y-64795279D01*
X245215907Y-64795279D02*
X245215907Y-64652422D01*
X245215907Y-64652422D02*
X245184002Y-64580993D01*
X245184002Y-64580993D02*
X245152097Y-64545279D01*
X245152097Y-64545279D02*
X245088288Y-64509564D01*
X243110575Y-52202422D02*
X243174384Y-52238136D01*
X243174384Y-52238136D02*
X243302003Y-52238136D01*
X243302003Y-52238136D02*
X243365813Y-52202422D01*
X243365813Y-52202422D02*
X243397717Y-52130993D01*
X243397717Y-52130993D02*
X243397717Y-52095279D01*
X243397717Y-52095279D02*
X243365813Y-52023850D01*
X243365813Y-52023850D02*
X243302003Y-51988136D01*
X243302003Y-51988136D02*
X243206289Y-51988136D01*
X243206289Y-51988136D02*
X243142479Y-51952422D01*
X243142479Y-51952422D02*
X243110575Y-51880993D01*
X243110575Y-51880993D02*
X243110575Y-51845279D01*
X243110575Y-51845279D02*
X243142479Y-51773850D01*
X243142479Y-51773850D02*
X243206289Y-51738136D01*
X243206289Y-51738136D02*
X243302003Y-51738136D01*
X243302003Y-51738136D02*
X243365813Y-51773850D01*
X243972003Y-52202422D02*
X243908194Y-52238136D01*
X243908194Y-52238136D02*
X243780575Y-52238136D01*
X243780575Y-52238136D02*
X243716765Y-52202422D01*
X243716765Y-52202422D02*
X243684860Y-52166707D01*
X243684860Y-52166707D02*
X243652956Y-52095279D01*
X243652956Y-52095279D02*
X243652956Y-51880993D01*
X243652956Y-51880993D02*
X243684860Y-51809564D01*
X243684860Y-51809564D02*
X243716765Y-51773850D01*
X243716765Y-51773850D02*
X243780575Y-51738136D01*
X243780575Y-51738136D02*
X243908194Y-51738136D01*
X243908194Y-51738136D02*
X243972003Y-51773850D01*
X244259146Y-52238136D02*
X244259146Y-51488136D01*
X244322956Y-51952422D02*
X244514384Y-52238136D01*
X244514384Y-51738136D02*
X244259146Y-52023850D01*
X232589212Y-54813150D02*
X232653021Y-54848864D01*
X232653021Y-54848864D02*
X232780640Y-54848864D01*
X232780640Y-54848864D02*
X232844450Y-54813150D01*
X232844450Y-54813150D02*
X232876354Y-54741721D01*
X232876354Y-54741721D02*
X232876354Y-54706007D01*
X232876354Y-54706007D02*
X232844450Y-54634578D01*
X232844450Y-54634578D02*
X232780640Y-54598864D01*
X232780640Y-54598864D02*
X232684926Y-54598864D01*
X232684926Y-54598864D02*
X232621116Y-54563150D01*
X232621116Y-54563150D02*
X232589212Y-54491721D01*
X232589212Y-54491721D02*
X232589212Y-54456007D01*
X232589212Y-54456007D02*
X232621116Y-54384578D01*
X232621116Y-54384578D02*
X232684926Y-54348864D01*
X232684926Y-54348864D02*
X232780640Y-54348864D01*
X232780640Y-54348864D02*
X232844450Y-54384578D01*
X233131593Y-54170292D02*
X233163497Y-54134578D01*
X233163497Y-54134578D02*
X233227307Y-54098864D01*
X233227307Y-54098864D02*
X233386831Y-54098864D01*
X233386831Y-54098864D02*
X233450640Y-54134578D01*
X233450640Y-54134578D02*
X233482545Y-54170292D01*
X233482545Y-54170292D02*
X233514450Y-54241721D01*
X233514450Y-54241721D02*
X233514450Y-54313150D01*
X233514450Y-54313150D02*
X233482545Y-54420292D01*
X233482545Y-54420292D02*
X233099688Y-54848864D01*
X233099688Y-54848864D02*
X233514450Y-54848864D01*
X234280164Y-54063150D02*
X233705878Y-55027435D01*
X234503497Y-54848864D02*
X234503497Y-54098864D01*
X234503497Y-54098864D02*
X234663021Y-54098864D01*
X234663021Y-54098864D02*
X234758735Y-54134578D01*
X234758735Y-54134578D02*
X234822545Y-54206007D01*
X234822545Y-54206007D02*
X234854450Y-54277435D01*
X234854450Y-54277435D02*
X234886354Y-54420292D01*
X234886354Y-54420292D02*
X234886354Y-54527435D01*
X234886354Y-54527435D02*
X234854450Y-54670292D01*
X234854450Y-54670292D02*
X234822545Y-54741721D01*
X234822545Y-54741721D02*
X234758735Y-54813150D01*
X234758735Y-54813150D02*
X234663021Y-54848864D01*
X234663021Y-54848864D02*
X234503497Y-54848864D01*
X235524450Y-54848864D02*
X235141593Y-54848864D01*
X235333021Y-54848864D02*
X235333021Y-54098864D01*
X235333021Y-54098864D02*
X235269212Y-54206007D01*
X235269212Y-54206007D02*
X235205402Y-54277435D01*
X235205402Y-54277435D02*
X235141593Y-54313150D01*
X235843497Y-54848864D02*
X235971116Y-54848864D01*
X235971116Y-54848864D02*
X236034926Y-54813150D01*
X236034926Y-54813150D02*
X236066830Y-54777435D01*
X236066830Y-54777435D02*
X236130640Y-54670292D01*
X236130640Y-54670292D02*
X236162545Y-54527435D01*
X236162545Y-54527435D02*
X236162545Y-54241721D01*
X236162545Y-54241721D02*
X236130640Y-54170292D01*
X236130640Y-54170292D02*
X236098735Y-54134578D01*
X236098735Y-54134578D02*
X236034926Y-54098864D01*
X236034926Y-54098864D02*
X235907307Y-54098864D01*
X235907307Y-54098864D02*
X235843497Y-54134578D01*
X235843497Y-54134578D02*
X235811592Y-54170292D01*
X235811592Y-54170292D02*
X235779688Y-54241721D01*
X235779688Y-54241721D02*
X235779688Y-54420292D01*
X235779688Y-54420292D02*
X235811592Y-54491721D01*
X235811592Y-54491721D02*
X235843497Y-54527435D01*
X235843497Y-54527435D02*
X235907307Y-54563150D01*
X235907307Y-54563150D02*
X236034926Y-54563150D01*
X236034926Y-54563150D02*
X236098735Y-54527435D01*
X236098735Y-54527435D02*
X236130640Y-54491721D01*
X236130640Y-54491721D02*
X236162545Y-54420292D01*
X242367733Y-39928750D02*
X242303924Y-39964464D01*
X242303924Y-39964464D02*
X242176305Y-39964464D01*
X242176305Y-39964464D02*
X242112495Y-39928750D01*
X242112495Y-39928750D02*
X242080590Y-39893035D01*
X242080590Y-39893035D02*
X242048686Y-39821607D01*
X242048686Y-39821607D02*
X242048686Y-39607321D01*
X242048686Y-39607321D02*
X242080590Y-39535892D01*
X242080590Y-39535892D02*
X242112495Y-39500178D01*
X242112495Y-39500178D02*
X242176305Y-39464464D01*
X242176305Y-39464464D02*
X242303924Y-39464464D01*
X242303924Y-39464464D02*
X242367733Y-39500178D01*
X242622972Y-39928750D02*
X242686781Y-39964464D01*
X242686781Y-39964464D02*
X242814400Y-39964464D01*
X242814400Y-39964464D02*
X242878210Y-39928750D01*
X242878210Y-39928750D02*
X242910114Y-39857321D01*
X242910114Y-39857321D02*
X242910114Y-39821607D01*
X242910114Y-39821607D02*
X242878210Y-39750178D01*
X242878210Y-39750178D02*
X242814400Y-39714464D01*
X242814400Y-39714464D02*
X242718686Y-39714464D01*
X242718686Y-39714464D02*
X242654876Y-39678750D01*
X242654876Y-39678750D02*
X242622972Y-39607321D01*
X242622972Y-39607321D02*
X242622972Y-39571607D01*
X242622972Y-39571607D02*
X242654876Y-39500178D01*
X242654876Y-39500178D02*
X242718686Y-39464464D01*
X242718686Y-39464464D02*
X242814400Y-39464464D01*
X242814400Y-39464464D02*
X242878210Y-39500178D01*
X243675829Y-39178750D02*
X243101543Y-40143035D01*
X243899162Y-39964464D02*
X243899162Y-39214464D01*
X243899162Y-39214464D02*
X244058686Y-39214464D01*
X244058686Y-39214464D02*
X244154400Y-39250178D01*
X244154400Y-39250178D02*
X244218210Y-39321607D01*
X244218210Y-39321607D02*
X244250115Y-39393035D01*
X244250115Y-39393035D02*
X244282019Y-39535892D01*
X244282019Y-39535892D02*
X244282019Y-39643035D01*
X244282019Y-39643035D02*
X244250115Y-39785892D01*
X244250115Y-39785892D02*
X244218210Y-39857321D01*
X244218210Y-39857321D02*
X244154400Y-39928750D01*
X244154400Y-39928750D02*
X244058686Y-39964464D01*
X244058686Y-39964464D02*
X243899162Y-39964464D01*
X244920115Y-39964464D02*
X244537258Y-39964464D01*
X244728686Y-39964464D02*
X244728686Y-39214464D01*
X244728686Y-39214464D02*
X244664877Y-39321607D01*
X244664877Y-39321607D02*
X244601067Y-39393035D01*
X244601067Y-39393035D02*
X244537258Y-39428750D01*
X232589212Y-57353150D02*
X232653021Y-57388864D01*
X232653021Y-57388864D02*
X232780640Y-57388864D01*
X232780640Y-57388864D02*
X232844450Y-57353150D01*
X232844450Y-57353150D02*
X232876354Y-57281721D01*
X232876354Y-57281721D02*
X232876354Y-57246007D01*
X232876354Y-57246007D02*
X232844450Y-57174578D01*
X232844450Y-57174578D02*
X232780640Y-57138864D01*
X232780640Y-57138864D02*
X232684926Y-57138864D01*
X232684926Y-57138864D02*
X232621116Y-57103150D01*
X232621116Y-57103150D02*
X232589212Y-57031721D01*
X232589212Y-57031721D02*
X232589212Y-56996007D01*
X232589212Y-56996007D02*
X232621116Y-56924578D01*
X232621116Y-56924578D02*
X232684926Y-56888864D01*
X232684926Y-56888864D02*
X232780640Y-56888864D01*
X232780640Y-56888864D02*
X232844450Y-56924578D01*
X233099688Y-56638864D02*
X233514450Y-56638864D01*
X233514450Y-56638864D02*
X233291116Y-56924578D01*
X233291116Y-56924578D02*
X233386831Y-56924578D01*
X233386831Y-56924578D02*
X233450640Y-56960292D01*
X233450640Y-56960292D02*
X233482545Y-56996007D01*
X233482545Y-56996007D02*
X233514450Y-57067435D01*
X233514450Y-57067435D02*
X233514450Y-57246007D01*
X233514450Y-57246007D02*
X233482545Y-57317435D01*
X233482545Y-57317435D02*
X233450640Y-57353150D01*
X233450640Y-57353150D02*
X233386831Y-57388864D01*
X233386831Y-57388864D02*
X233195402Y-57388864D01*
X233195402Y-57388864D02*
X233131593Y-57353150D01*
X233131593Y-57353150D02*
X233099688Y-57317435D01*
X234280164Y-56603150D02*
X233705878Y-57567435D01*
X234503497Y-57388864D02*
X234503497Y-56638864D01*
X234503497Y-56638864D02*
X234663021Y-56638864D01*
X234663021Y-56638864D02*
X234758735Y-56674578D01*
X234758735Y-56674578D02*
X234822545Y-56746007D01*
X234822545Y-56746007D02*
X234854450Y-56817435D01*
X234854450Y-56817435D02*
X234886354Y-56960292D01*
X234886354Y-56960292D02*
X234886354Y-57067435D01*
X234886354Y-57067435D02*
X234854450Y-57210292D01*
X234854450Y-57210292D02*
X234822545Y-57281721D01*
X234822545Y-57281721D02*
X234758735Y-57353150D01*
X234758735Y-57353150D02*
X234663021Y-57388864D01*
X234663021Y-57388864D02*
X234503497Y-57388864D01*
X235524450Y-57388864D02*
X235141593Y-57388864D01*
X235333021Y-57388864D02*
X235333021Y-56638864D01*
X235333021Y-56638864D02*
X235269212Y-56746007D01*
X235269212Y-56746007D02*
X235205402Y-56817435D01*
X235205402Y-56817435D02*
X235141593Y-56853150D01*
X235907307Y-56960292D02*
X235843497Y-56924578D01*
X235843497Y-56924578D02*
X235811592Y-56888864D01*
X235811592Y-56888864D02*
X235779688Y-56817435D01*
X235779688Y-56817435D02*
X235779688Y-56781721D01*
X235779688Y-56781721D02*
X235811592Y-56710292D01*
X235811592Y-56710292D02*
X235843497Y-56674578D01*
X235843497Y-56674578D02*
X235907307Y-56638864D01*
X235907307Y-56638864D02*
X236034926Y-56638864D01*
X236034926Y-56638864D02*
X236098735Y-56674578D01*
X236098735Y-56674578D02*
X236130640Y-56710292D01*
X236130640Y-56710292D02*
X236162545Y-56781721D01*
X236162545Y-56781721D02*
X236162545Y-56817435D01*
X236162545Y-56817435D02*
X236130640Y-56888864D01*
X236130640Y-56888864D02*
X236098735Y-56924578D01*
X236098735Y-56924578D02*
X236034926Y-56960292D01*
X236034926Y-56960292D02*
X235907307Y-56960292D01*
X235907307Y-56960292D02*
X235843497Y-56996007D01*
X235843497Y-56996007D02*
X235811592Y-57031721D01*
X235811592Y-57031721D02*
X235779688Y-57103150D01*
X235779688Y-57103150D02*
X235779688Y-57246007D01*
X235779688Y-57246007D02*
X235811592Y-57317435D01*
X235811592Y-57317435D02*
X235843497Y-57353150D01*
X235843497Y-57353150D02*
X235907307Y-57388864D01*
X235907307Y-57388864D02*
X236034926Y-57388864D01*
X236034926Y-57388864D02*
X236098735Y-57353150D01*
X236098735Y-57353150D02*
X236130640Y-57317435D01*
X236130640Y-57317435D02*
X236162545Y-57246007D01*
X236162545Y-57246007D02*
X236162545Y-57103150D01*
X236162545Y-57103150D02*
X236130640Y-57031721D01*
X236130640Y-57031721D02*
X236098735Y-56996007D01*
X236098735Y-56996007D02*
X236034926Y-56960292D01*
X241545334Y-42265550D02*
X241609143Y-42301264D01*
X241609143Y-42301264D02*
X241736762Y-42301264D01*
X241736762Y-42301264D02*
X241800572Y-42265550D01*
X241800572Y-42265550D02*
X241832476Y-42194121D01*
X241832476Y-42194121D02*
X241832476Y-42158407D01*
X241832476Y-42158407D02*
X241800572Y-42086978D01*
X241800572Y-42086978D02*
X241736762Y-42051264D01*
X241736762Y-42051264D02*
X241641048Y-42051264D01*
X241641048Y-42051264D02*
X241577238Y-42015550D01*
X241577238Y-42015550D02*
X241545334Y-41944121D01*
X241545334Y-41944121D02*
X241545334Y-41908407D01*
X241545334Y-41908407D02*
X241577238Y-41836978D01*
X241577238Y-41836978D02*
X241641048Y-41801264D01*
X241641048Y-41801264D02*
X241736762Y-41801264D01*
X241736762Y-41801264D02*
X241800572Y-41836978D01*
X242087715Y-41622692D02*
X242119619Y-41586978D01*
X242119619Y-41586978D02*
X242183429Y-41551264D01*
X242183429Y-41551264D02*
X242342953Y-41551264D01*
X242342953Y-41551264D02*
X242406762Y-41586978D01*
X242406762Y-41586978D02*
X242438667Y-41622692D01*
X242438667Y-41622692D02*
X242470572Y-41694121D01*
X242470572Y-41694121D02*
X242470572Y-41765550D01*
X242470572Y-41765550D02*
X242438667Y-41872692D01*
X242438667Y-41872692D02*
X242055810Y-42301264D01*
X242055810Y-42301264D02*
X242470572Y-42301264D01*
X242693905Y-41551264D02*
X243140571Y-41551264D01*
X243140571Y-41551264D02*
X242853429Y-42301264D01*
X243874381Y-41515550D02*
X243300095Y-42479835D01*
X244097714Y-42301264D02*
X244097714Y-41551264D01*
X244097714Y-41551264D02*
X244257238Y-41551264D01*
X244257238Y-41551264D02*
X244352952Y-41586978D01*
X244352952Y-41586978D02*
X244416762Y-41658407D01*
X244416762Y-41658407D02*
X244448667Y-41729835D01*
X244448667Y-41729835D02*
X244480571Y-41872692D01*
X244480571Y-41872692D02*
X244480571Y-41979835D01*
X244480571Y-41979835D02*
X244448667Y-42122692D01*
X244448667Y-42122692D02*
X244416762Y-42194121D01*
X244416762Y-42194121D02*
X244352952Y-42265550D01*
X244352952Y-42265550D02*
X244257238Y-42301264D01*
X244257238Y-42301264D02*
X244097714Y-42301264D01*
X244895333Y-41551264D02*
X244959143Y-41551264D01*
X244959143Y-41551264D02*
X245022952Y-41586978D01*
X245022952Y-41586978D02*
X245054857Y-41622692D01*
X245054857Y-41622692D02*
X245086762Y-41694121D01*
X245086762Y-41694121D02*
X245118667Y-41836978D01*
X245118667Y-41836978D02*
X245118667Y-42015550D01*
X245118667Y-42015550D02*
X245086762Y-42158407D01*
X245086762Y-42158407D02*
X245054857Y-42229835D01*
X245054857Y-42229835D02*
X245022952Y-42265550D01*
X245022952Y-42265550D02*
X244959143Y-42301264D01*
X244959143Y-42301264D02*
X244895333Y-42301264D01*
X244895333Y-42301264D02*
X244831524Y-42265550D01*
X244831524Y-42265550D02*
X244799619Y-42229835D01*
X244799619Y-42229835D02*
X244767714Y-42158407D01*
X244767714Y-42158407D02*
X244735810Y-42015550D01*
X244735810Y-42015550D02*
X244735810Y-41836978D01*
X244735810Y-41836978D02*
X244767714Y-41694121D01*
X244767714Y-41694121D02*
X244799619Y-41622692D01*
X244799619Y-41622692D02*
X244831524Y-41586978D01*
X244831524Y-41586978D02*
X244895333Y-41551264D01*
X232589212Y-62433150D02*
X232653021Y-62468864D01*
X232653021Y-62468864D02*
X232780640Y-62468864D01*
X232780640Y-62468864D02*
X232844450Y-62433150D01*
X232844450Y-62433150D02*
X232876354Y-62361721D01*
X232876354Y-62361721D02*
X232876354Y-62326007D01*
X232876354Y-62326007D02*
X232844450Y-62254578D01*
X232844450Y-62254578D02*
X232780640Y-62218864D01*
X232780640Y-62218864D02*
X232684926Y-62218864D01*
X232684926Y-62218864D02*
X232621116Y-62183150D01*
X232621116Y-62183150D02*
X232589212Y-62111721D01*
X232589212Y-62111721D02*
X232589212Y-62076007D01*
X232589212Y-62076007D02*
X232621116Y-62004578D01*
X232621116Y-62004578D02*
X232684926Y-61968864D01*
X232684926Y-61968864D02*
X232780640Y-61968864D01*
X232780640Y-61968864D02*
X232844450Y-62004578D01*
X233514450Y-62468864D02*
X233131593Y-62468864D01*
X233323021Y-62468864D02*
X233323021Y-61718864D01*
X233323021Y-61718864D02*
X233259212Y-61826007D01*
X233259212Y-61826007D02*
X233195402Y-61897435D01*
X233195402Y-61897435D02*
X233131593Y-61933150D01*
X233929211Y-61718864D02*
X233993021Y-61718864D01*
X233993021Y-61718864D02*
X234056830Y-61754578D01*
X234056830Y-61754578D02*
X234088735Y-61790292D01*
X234088735Y-61790292D02*
X234120640Y-61861721D01*
X234120640Y-61861721D02*
X234152545Y-62004578D01*
X234152545Y-62004578D02*
X234152545Y-62183150D01*
X234152545Y-62183150D02*
X234120640Y-62326007D01*
X234120640Y-62326007D02*
X234088735Y-62397435D01*
X234088735Y-62397435D02*
X234056830Y-62433150D01*
X234056830Y-62433150D02*
X233993021Y-62468864D01*
X233993021Y-62468864D02*
X233929211Y-62468864D01*
X233929211Y-62468864D02*
X233865402Y-62433150D01*
X233865402Y-62433150D02*
X233833497Y-62397435D01*
X233833497Y-62397435D02*
X233801592Y-62326007D01*
X233801592Y-62326007D02*
X233769688Y-62183150D01*
X233769688Y-62183150D02*
X233769688Y-62004578D01*
X233769688Y-62004578D02*
X233801592Y-61861721D01*
X233801592Y-61861721D02*
X233833497Y-61790292D01*
X233833497Y-61790292D02*
X233865402Y-61754578D01*
X233865402Y-61754578D02*
X233929211Y-61718864D01*
X234918259Y-61683150D02*
X234343973Y-62647435D01*
X235141592Y-62468864D02*
X235141592Y-61718864D01*
X235141592Y-61718864D02*
X235301116Y-61718864D01*
X235301116Y-61718864D02*
X235396830Y-61754578D01*
X235396830Y-61754578D02*
X235460640Y-61826007D01*
X235460640Y-61826007D02*
X235492545Y-61897435D01*
X235492545Y-61897435D02*
X235524449Y-62040292D01*
X235524449Y-62040292D02*
X235524449Y-62147435D01*
X235524449Y-62147435D02*
X235492545Y-62290292D01*
X235492545Y-62290292D02*
X235460640Y-62361721D01*
X235460640Y-62361721D02*
X235396830Y-62433150D01*
X235396830Y-62433150D02*
X235301116Y-62468864D01*
X235301116Y-62468864D02*
X235141592Y-62468864D01*
X236162545Y-62468864D02*
X235779688Y-62468864D01*
X235971116Y-62468864D02*
X235971116Y-61718864D01*
X235971116Y-61718864D02*
X235907307Y-61826007D01*
X235907307Y-61826007D02*
X235843497Y-61897435D01*
X235843497Y-61897435D02*
X235779688Y-61933150D01*
X236736830Y-61968864D02*
X236736830Y-62468864D01*
X236577306Y-61683150D02*
X236417783Y-62218864D01*
X236417783Y-62218864D02*
X236832544Y-62218864D01*
X232589212Y-64973150D02*
X232653021Y-65008864D01*
X232653021Y-65008864D02*
X232780640Y-65008864D01*
X232780640Y-65008864D02*
X232844450Y-64973150D01*
X232844450Y-64973150D02*
X232876354Y-64901721D01*
X232876354Y-64901721D02*
X232876354Y-64866007D01*
X232876354Y-64866007D02*
X232844450Y-64794578D01*
X232844450Y-64794578D02*
X232780640Y-64758864D01*
X232780640Y-64758864D02*
X232684926Y-64758864D01*
X232684926Y-64758864D02*
X232621116Y-64723150D01*
X232621116Y-64723150D02*
X232589212Y-64651721D01*
X232589212Y-64651721D02*
X232589212Y-64616007D01*
X232589212Y-64616007D02*
X232621116Y-64544578D01*
X232621116Y-64544578D02*
X232684926Y-64508864D01*
X232684926Y-64508864D02*
X232780640Y-64508864D01*
X232780640Y-64508864D02*
X232844450Y-64544578D01*
X233514450Y-65008864D02*
X233131593Y-65008864D01*
X233323021Y-65008864D02*
X233323021Y-64258864D01*
X233323021Y-64258864D02*
X233259212Y-64366007D01*
X233259212Y-64366007D02*
X233195402Y-64437435D01*
X233195402Y-64437435D02*
X233131593Y-64473150D01*
X234152545Y-65008864D02*
X233769688Y-65008864D01*
X233961116Y-65008864D02*
X233961116Y-64258864D01*
X233961116Y-64258864D02*
X233897307Y-64366007D01*
X233897307Y-64366007D02*
X233833497Y-64437435D01*
X233833497Y-64437435D02*
X233769688Y-64473150D01*
X234918259Y-64223150D02*
X234343973Y-65187435D01*
X235141592Y-65008864D02*
X235141592Y-64258864D01*
X235141592Y-64258864D02*
X235301116Y-64258864D01*
X235301116Y-64258864D02*
X235396830Y-64294578D01*
X235396830Y-64294578D02*
X235460640Y-64366007D01*
X235460640Y-64366007D02*
X235492545Y-64437435D01*
X235492545Y-64437435D02*
X235524449Y-64580292D01*
X235524449Y-64580292D02*
X235524449Y-64687435D01*
X235524449Y-64687435D02*
X235492545Y-64830292D01*
X235492545Y-64830292D02*
X235460640Y-64901721D01*
X235460640Y-64901721D02*
X235396830Y-64973150D01*
X235396830Y-64973150D02*
X235301116Y-65008864D01*
X235301116Y-65008864D02*
X235141592Y-65008864D01*
X236162545Y-65008864D02*
X235779688Y-65008864D01*
X235971116Y-65008864D02*
X235971116Y-64258864D01*
X235971116Y-64258864D02*
X235907307Y-64366007D01*
X235907307Y-64366007D02*
X235843497Y-64437435D01*
X235843497Y-64437435D02*
X235779688Y-64473150D01*
X236736830Y-64258864D02*
X236609211Y-64258864D01*
X236609211Y-64258864D02*
X236545402Y-64294578D01*
X236545402Y-64294578D02*
X236513497Y-64330292D01*
X236513497Y-64330292D02*
X236449687Y-64437435D01*
X236449687Y-64437435D02*
X236417783Y-64580292D01*
X236417783Y-64580292D02*
X236417783Y-64866007D01*
X236417783Y-64866007D02*
X236449687Y-64937435D01*
X236449687Y-64937435D02*
X236481592Y-64973150D01*
X236481592Y-64973150D02*
X236545402Y-65008864D01*
X236545402Y-65008864D02*
X236673021Y-65008864D01*
X236673021Y-65008864D02*
X236736830Y-64973150D01*
X236736830Y-64973150D02*
X236768735Y-64937435D01*
X236768735Y-64937435D02*
X236800640Y-64866007D01*
X236800640Y-64866007D02*
X236800640Y-64687435D01*
X236800640Y-64687435D02*
X236768735Y-64616007D01*
X236768735Y-64616007D02*
X236736830Y-64580292D01*
X236736830Y-64580292D02*
X236673021Y-64544578D01*
X236673021Y-64544578D02*
X236545402Y-64544578D01*
X236545402Y-64544578D02*
X236481592Y-64580292D01*
X236481592Y-64580292D02*
X236449687Y-64616007D01*
X236449687Y-64616007D02*
X236417783Y-64687435D01*
X232589212Y-67501622D02*
X232653021Y-67537336D01*
X232653021Y-67537336D02*
X232780640Y-67537336D01*
X232780640Y-67537336D02*
X232844450Y-67501622D01*
X232844450Y-67501622D02*
X232876354Y-67430193D01*
X232876354Y-67430193D02*
X232876354Y-67394479D01*
X232876354Y-67394479D02*
X232844450Y-67323050D01*
X232844450Y-67323050D02*
X232780640Y-67287336D01*
X232780640Y-67287336D02*
X232684926Y-67287336D01*
X232684926Y-67287336D02*
X232621116Y-67251622D01*
X232621116Y-67251622D02*
X232589212Y-67180193D01*
X232589212Y-67180193D02*
X232589212Y-67144479D01*
X232589212Y-67144479D02*
X232621116Y-67073050D01*
X232621116Y-67073050D02*
X232684926Y-67037336D01*
X232684926Y-67037336D02*
X232780640Y-67037336D01*
X232780640Y-67037336D02*
X232844450Y-67073050D01*
X233514450Y-67537336D02*
X233131593Y-67537336D01*
X233323021Y-67537336D02*
X233323021Y-66787336D01*
X233323021Y-66787336D02*
X233259212Y-66894479D01*
X233259212Y-66894479D02*
X233195402Y-66965907D01*
X233195402Y-66965907D02*
X233131593Y-67001622D01*
X233769688Y-66858764D02*
X233801592Y-66823050D01*
X233801592Y-66823050D02*
X233865402Y-66787336D01*
X233865402Y-66787336D02*
X234024926Y-66787336D01*
X234024926Y-66787336D02*
X234088735Y-66823050D01*
X234088735Y-66823050D02*
X234120640Y-66858764D01*
X234120640Y-66858764D02*
X234152545Y-66930193D01*
X234152545Y-66930193D02*
X234152545Y-67001622D01*
X234152545Y-67001622D02*
X234120640Y-67108764D01*
X234120640Y-67108764D02*
X233737783Y-67537336D01*
X233737783Y-67537336D02*
X234152545Y-67537336D01*
X234918259Y-66751622D02*
X234343973Y-67715907D01*
X235141592Y-67537336D02*
X235141592Y-66787336D01*
X235141592Y-66787336D02*
X235301116Y-66787336D01*
X235301116Y-66787336D02*
X235396830Y-66823050D01*
X235396830Y-66823050D02*
X235460640Y-66894479D01*
X235460640Y-66894479D02*
X235492545Y-66965907D01*
X235492545Y-66965907D02*
X235524449Y-67108764D01*
X235524449Y-67108764D02*
X235524449Y-67215907D01*
X235524449Y-67215907D02*
X235492545Y-67358764D01*
X235492545Y-67358764D02*
X235460640Y-67430193D01*
X235460640Y-67430193D02*
X235396830Y-67501622D01*
X235396830Y-67501622D02*
X235301116Y-67537336D01*
X235301116Y-67537336D02*
X235141592Y-67537336D01*
X236162545Y-67537336D02*
X235779688Y-67537336D01*
X235971116Y-67537336D02*
X235971116Y-66787336D01*
X235971116Y-66787336D02*
X235907307Y-66894479D01*
X235907307Y-66894479D02*
X235843497Y-66965907D01*
X235843497Y-66965907D02*
X235779688Y-67001622D01*
X236577306Y-66787336D02*
X236641116Y-66787336D01*
X236641116Y-66787336D02*
X236704925Y-66823050D01*
X236704925Y-66823050D02*
X236736830Y-66858764D01*
X236736830Y-66858764D02*
X236768735Y-66930193D01*
X236768735Y-66930193D02*
X236800640Y-67073050D01*
X236800640Y-67073050D02*
X236800640Y-67251622D01*
X236800640Y-67251622D02*
X236768735Y-67394479D01*
X236768735Y-67394479D02*
X236736830Y-67465907D01*
X236736830Y-67465907D02*
X236704925Y-67501622D01*
X236704925Y-67501622D02*
X236641116Y-67537336D01*
X236641116Y-67537336D02*
X236577306Y-67537336D01*
X236577306Y-67537336D02*
X236513497Y-67501622D01*
X236513497Y-67501622D02*
X236481592Y-67465907D01*
X236481592Y-67465907D02*
X236449687Y-67394479D01*
X236449687Y-67394479D02*
X236417783Y-67251622D01*
X236417783Y-67251622D02*
X236417783Y-67073050D01*
X236417783Y-67073050D02*
X236449687Y-66930193D01*
X236449687Y-66930193D02*
X236481592Y-66858764D01*
X236481592Y-66858764D02*
X236513497Y-66823050D01*
X236513497Y-66823050D02*
X236577306Y-66787336D01*
X243168764Y-44073850D02*
X243104954Y-44038136D01*
X243104954Y-44038136D02*
X243009240Y-44038136D01*
X243009240Y-44038136D02*
X242913526Y-44073850D01*
X242913526Y-44073850D02*
X242849716Y-44145279D01*
X242849716Y-44145279D02*
X242817811Y-44216707D01*
X242817811Y-44216707D02*
X242785907Y-44359564D01*
X242785907Y-44359564D02*
X242785907Y-44466707D01*
X242785907Y-44466707D02*
X242817811Y-44609564D01*
X242817811Y-44609564D02*
X242849716Y-44680993D01*
X242849716Y-44680993D02*
X242913526Y-44752422D01*
X242913526Y-44752422D02*
X243009240Y-44788136D01*
X243009240Y-44788136D02*
X243073049Y-44788136D01*
X243073049Y-44788136D02*
X243168764Y-44752422D01*
X243168764Y-44752422D02*
X243200668Y-44716707D01*
X243200668Y-44716707D02*
X243200668Y-44466707D01*
X243200668Y-44466707D02*
X243073049Y-44466707D01*
X243487811Y-44788136D02*
X243487811Y-44038136D01*
X243487811Y-44038136D02*
X243870668Y-44788136D01*
X243870668Y-44788136D02*
X243870668Y-44038136D01*
X244189716Y-44788136D02*
X244189716Y-44038136D01*
X244189716Y-44038136D02*
X244349240Y-44038136D01*
X244349240Y-44038136D02*
X244444954Y-44073850D01*
X244444954Y-44073850D02*
X244508764Y-44145279D01*
X244508764Y-44145279D02*
X244540669Y-44216707D01*
X244540669Y-44216707D02*
X244572573Y-44359564D01*
X244572573Y-44359564D02*
X244572573Y-44466707D01*
X244572573Y-44466707D02*
X244540669Y-44609564D01*
X244540669Y-44609564D02*
X244508764Y-44680993D01*
X244508764Y-44680993D02*
X244444954Y-44752422D01*
X244444954Y-44752422D02*
X244349240Y-44788136D01*
X244349240Y-44788136D02*
X244189716Y-44788136D01*
X232835906Y-46438136D02*
X233059239Y-47188136D01*
X233059239Y-47188136D02*
X233282573Y-46438136D01*
X233888763Y-47116707D02*
X233856859Y-47152422D01*
X233856859Y-47152422D02*
X233761144Y-47188136D01*
X233761144Y-47188136D02*
X233697335Y-47188136D01*
X233697335Y-47188136D02*
X233601621Y-47152422D01*
X233601621Y-47152422D02*
X233537811Y-47080993D01*
X233537811Y-47080993D02*
X233505906Y-47009564D01*
X233505906Y-47009564D02*
X233474002Y-46866707D01*
X233474002Y-46866707D02*
X233474002Y-46759564D01*
X233474002Y-46759564D02*
X233505906Y-46616707D01*
X233505906Y-46616707D02*
X233537811Y-46545279D01*
X233537811Y-46545279D02*
X233601621Y-46473850D01*
X233601621Y-46473850D02*
X233697335Y-46438136D01*
X233697335Y-46438136D02*
X233761144Y-46438136D01*
X233761144Y-46438136D02*
X233856859Y-46473850D01*
X233856859Y-46473850D02*
X233888763Y-46509564D01*
X234558763Y-47116707D02*
X234526859Y-47152422D01*
X234526859Y-47152422D02*
X234431144Y-47188136D01*
X234431144Y-47188136D02*
X234367335Y-47188136D01*
X234367335Y-47188136D02*
X234271621Y-47152422D01*
X234271621Y-47152422D02*
X234207811Y-47080993D01*
X234207811Y-47080993D02*
X234175906Y-47009564D01*
X234175906Y-47009564D02*
X234144002Y-46866707D01*
X234144002Y-46866707D02*
X234144002Y-46759564D01*
X234144002Y-46759564D02*
X234175906Y-46616707D01*
X234175906Y-46616707D02*
X234207811Y-46545279D01*
X234207811Y-46545279D02*
X234271621Y-46473850D01*
X234271621Y-46473850D02*
X234367335Y-46438136D01*
X234367335Y-46438136D02*
X234431144Y-46438136D01*
X234431144Y-46438136D02*
X234526859Y-46473850D01*
X234526859Y-46473850D02*
X234558763Y-46509564D01*
X241642574Y-67402422D02*
X241706383Y-67438136D01*
X241706383Y-67438136D02*
X241834002Y-67438136D01*
X241834002Y-67438136D02*
X241897812Y-67402422D01*
X241897812Y-67402422D02*
X241929716Y-67330993D01*
X241929716Y-67330993D02*
X241929716Y-67295279D01*
X241929716Y-67295279D02*
X241897812Y-67223850D01*
X241897812Y-67223850D02*
X241834002Y-67188136D01*
X241834002Y-67188136D02*
X241738288Y-67188136D01*
X241738288Y-67188136D02*
X241674478Y-67152422D01*
X241674478Y-67152422D02*
X241642574Y-67080993D01*
X241642574Y-67080993D02*
X241642574Y-67045279D01*
X241642574Y-67045279D02*
X241674478Y-66973850D01*
X241674478Y-66973850D02*
X241738288Y-66938136D01*
X241738288Y-66938136D02*
X241834002Y-66938136D01*
X241834002Y-66938136D02*
X241897812Y-66973850D01*
X242184955Y-66759564D02*
X242216859Y-66723850D01*
X242216859Y-66723850D02*
X242280669Y-66688136D01*
X242280669Y-66688136D02*
X242440193Y-66688136D01*
X242440193Y-66688136D02*
X242504002Y-66723850D01*
X242504002Y-66723850D02*
X242535907Y-66759564D01*
X242535907Y-66759564D02*
X242567812Y-66830993D01*
X242567812Y-66830993D02*
X242567812Y-66902422D01*
X242567812Y-66902422D02*
X242535907Y-67009564D01*
X242535907Y-67009564D02*
X242153050Y-67438136D01*
X242153050Y-67438136D02*
X242567812Y-67438136D01*
X243142097Y-66688136D02*
X243014478Y-66688136D01*
X243014478Y-66688136D02*
X242950669Y-66723850D01*
X242950669Y-66723850D02*
X242918764Y-66759564D01*
X242918764Y-66759564D02*
X242854954Y-66866707D01*
X242854954Y-66866707D02*
X242823050Y-67009564D01*
X242823050Y-67009564D02*
X242823050Y-67295279D01*
X242823050Y-67295279D02*
X242854954Y-67366707D01*
X242854954Y-67366707D02*
X242886859Y-67402422D01*
X242886859Y-67402422D02*
X242950669Y-67438136D01*
X242950669Y-67438136D02*
X243078288Y-67438136D01*
X243078288Y-67438136D02*
X243142097Y-67402422D01*
X243142097Y-67402422D02*
X243174002Y-67366707D01*
X243174002Y-67366707D02*
X243205907Y-67295279D01*
X243205907Y-67295279D02*
X243205907Y-67116707D01*
X243205907Y-67116707D02*
X243174002Y-67045279D01*
X243174002Y-67045279D02*
X243142097Y-67009564D01*
X243142097Y-67009564D02*
X243078288Y-66973850D01*
X243078288Y-66973850D02*
X242950669Y-66973850D01*
X242950669Y-66973850D02*
X242886859Y-67009564D01*
X242886859Y-67009564D02*
X242854954Y-67045279D01*
X242854954Y-67045279D02*
X242823050Y-67116707D01*
X243971621Y-66652422D02*
X243397335Y-67616707D01*
X244194954Y-67438136D02*
X244194954Y-66688136D01*
X244194954Y-66688136D02*
X244354478Y-66688136D01*
X244354478Y-66688136D02*
X244450192Y-66723850D01*
X244450192Y-66723850D02*
X244514002Y-66795279D01*
X244514002Y-66795279D02*
X244545907Y-66866707D01*
X244545907Y-66866707D02*
X244577811Y-67009564D01*
X244577811Y-67009564D02*
X244577811Y-67116707D01*
X244577811Y-67116707D02*
X244545907Y-67259564D01*
X244545907Y-67259564D02*
X244514002Y-67330993D01*
X244514002Y-67330993D02*
X244450192Y-67402422D01*
X244450192Y-67402422D02*
X244354478Y-67438136D01*
X244354478Y-67438136D02*
X244194954Y-67438136D01*
X244896859Y-67438136D02*
X245024478Y-67438136D01*
X245024478Y-67438136D02*
X245088288Y-67402422D01*
X245088288Y-67402422D02*
X245120192Y-67366707D01*
X245120192Y-67366707D02*
X245184002Y-67259564D01*
X245184002Y-67259564D02*
X245215907Y-67116707D01*
X245215907Y-67116707D02*
X245215907Y-66830993D01*
X245215907Y-66830993D02*
X245184002Y-66759564D01*
X245184002Y-66759564D02*
X245152097Y-66723850D01*
X245152097Y-66723850D02*
X245088288Y-66688136D01*
X245088288Y-66688136D02*
X244960669Y-66688136D01*
X244960669Y-66688136D02*
X244896859Y-66723850D01*
X244896859Y-66723850D02*
X244864954Y-66759564D01*
X244864954Y-66759564D02*
X244833050Y-66830993D01*
X244833050Y-66830993D02*
X244833050Y-67009564D01*
X244833050Y-67009564D02*
X244864954Y-67080993D01*
X244864954Y-67080993D02*
X244896859Y-67116707D01*
X244896859Y-67116707D02*
X244960669Y-67152422D01*
X244960669Y-67152422D02*
X245088288Y-67152422D01*
X245088288Y-67152422D02*
X245152097Y-67116707D01*
X245152097Y-67116707D02*
X245184002Y-67080993D01*
X245184002Y-67080993D02*
X245215907Y-67009564D01*
X232589212Y-59943950D02*
X232653021Y-59979664D01*
X232653021Y-59979664D02*
X232780640Y-59979664D01*
X232780640Y-59979664D02*
X232844450Y-59943950D01*
X232844450Y-59943950D02*
X232876354Y-59872521D01*
X232876354Y-59872521D02*
X232876354Y-59836807D01*
X232876354Y-59836807D02*
X232844450Y-59765378D01*
X232844450Y-59765378D02*
X232780640Y-59729664D01*
X232780640Y-59729664D02*
X232684926Y-59729664D01*
X232684926Y-59729664D02*
X232621116Y-59693950D01*
X232621116Y-59693950D02*
X232589212Y-59622521D01*
X232589212Y-59622521D02*
X232589212Y-59586807D01*
X232589212Y-59586807D02*
X232621116Y-59515378D01*
X232621116Y-59515378D02*
X232684926Y-59479664D01*
X232684926Y-59479664D02*
X232780640Y-59479664D01*
X232780640Y-59479664D02*
X232844450Y-59515378D01*
X233450640Y-59479664D02*
X233450640Y-59979664D01*
X233291116Y-59193950D02*
X233131593Y-59729664D01*
X233131593Y-59729664D02*
X233546354Y-59729664D01*
X234280164Y-59193950D02*
X233705878Y-60158235D01*
X234503497Y-59979664D02*
X234503497Y-59229664D01*
X234503497Y-59229664D02*
X234663021Y-59229664D01*
X234663021Y-59229664D02*
X234758735Y-59265378D01*
X234758735Y-59265378D02*
X234822545Y-59336807D01*
X234822545Y-59336807D02*
X234854450Y-59408235D01*
X234854450Y-59408235D02*
X234886354Y-59551092D01*
X234886354Y-59551092D02*
X234886354Y-59658235D01*
X234886354Y-59658235D02*
X234854450Y-59801092D01*
X234854450Y-59801092D02*
X234822545Y-59872521D01*
X234822545Y-59872521D02*
X234758735Y-59943950D01*
X234758735Y-59943950D02*
X234663021Y-59979664D01*
X234663021Y-59979664D02*
X234503497Y-59979664D01*
X235524450Y-59979664D02*
X235141593Y-59979664D01*
X235333021Y-59979664D02*
X235333021Y-59229664D01*
X235333021Y-59229664D02*
X235269212Y-59336807D01*
X235269212Y-59336807D02*
X235205402Y-59408235D01*
X235205402Y-59408235D02*
X235141593Y-59443950D01*
X236130640Y-59229664D02*
X235811592Y-59229664D01*
X235811592Y-59229664D02*
X235779688Y-59586807D01*
X235779688Y-59586807D02*
X235811592Y-59551092D01*
X235811592Y-59551092D02*
X235875402Y-59515378D01*
X235875402Y-59515378D02*
X236034926Y-59515378D01*
X236034926Y-59515378D02*
X236098735Y-59551092D01*
X236098735Y-59551092D02*
X236130640Y-59586807D01*
X236130640Y-59586807D02*
X236162545Y-59658235D01*
X236162545Y-59658235D02*
X236162545Y-59836807D01*
X236162545Y-59836807D02*
X236130640Y-59908235D01*
X236130640Y-59908235D02*
X236098735Y-59943950D01*
X236098735Y-59943950D02*
X236034926Y-59979664D01*
X236034926Y-59979664D02*
X235875402Y-59979664D01*
X235875402Y-59979664D02*
X235811592Y-59943950D01*
X235811592Y-59943950D02*
X235779688Y-59908235D01*
D13*
X236227811Y-35188396D02*
X236227811Y-34438396D01*
X236227811Y-34438396D02*
X236477811Y-34974110D01*
X236477811Y-34974110D02*
X236727811Y-34438396D01*
X236727811Y-34438396D02*
X236727811Y-35188396D01*
X237084954Y-35188396D02*
X237084954Y-34688396D01*
X237084954Y-34438396D02*
X237049240Y-34474110D01*
X237049240Y-34474110D02*
X237084954Y-34509824D01*
X237084954Y-34509824D02*
X237120668Y-34474110D01*
X237120668Y-34474110D02*
X237084954Y-34438396D01*
X237084954Y-34438396D02*
X237084954Y-34509824D01*
X237763526Y-35152682D02*
X237692097Y-35188396D01*
X237692097Y-35188396D02*
X237549240Y-35188396D01*
X237549240Y-35188396D02*
X237477811Y-35152682D01*
X237477811Y-35152682D02*
X237442097Y-35116967D01*
X237442097Y-35116967D02*
X237406383Y-35045539D01*
X237406383Y-35045539D02*
X237406383Y-34831253D01*
X237406383Y-34831253D02*
X237442097Y-34759824D01*
X237442097Y-34759824D02*
X237477811Y-34724110D01*
X237477811Y-34724110D02*
X237549240Y-34688396D01*
X237549240Y-34688396D02*
X237692097Y-34688396D01*
X237692097Y-34688396D02*
X237763526Y-34724110D01*
X238084954Y-35188396D02*
X238084954Y-34688396D01*
X238084954Y-34831253D02*
X238120668Y-34759824D01*
X238120668Y-34759824D02*
X238156383Y-34724110D01*
X238156383Y-34724110D02*
X238227811Y-34688396D01*
X238227811Y-34688396D02*
X238299240Y-34688396D01*
X238656383Y-35188396D02*
X238584954Y-35152682D01*
X238584954Y-35152682D02*
X238549240Y-35116967D01*
X238549240Y-35116967D02*
X238513526Y-35045539D01*
X238513526Y-35045539D02*
X238513526Y-34831253D01*
X238513526Y-34831253D02*
X238549240Y-34759824D01*
X238549240Y-34759824D02*
X238584954Y-34724110D01*
X238584954Y-34724110D02*
X238656383Y-34688396D01*
X238656383Y-34688396D02*
X238763526Y-34688396D01*
X238763526Y-34688396D02*
X238834954Y-34724110D01*
X238834954Y-34724110D02*
X238870669Y-34759824D01*
X238870669Y-34759824D02*
X238906383Y-34831253D01*
X238906383Y-34831253D02*
X238906383Y-35045539D01*
X238906383Y-35045539D02*
X238870669Y-35116967D01*
X238870669Y-35116967D02*
X238834954Y-35152682D01*
X238834954Y-35152682D02*
X238763526Y-35188396D01*
X238763526Y-35188396D02*
X238656383Y-35188396D01*
X239227811Y-34438396D02*
X239227811Y-35045539D01*
X239227811Y-35045539D02*
X239263525Y-35116967D01*
X239263525Y-35116967D02*
X239299240Y-35152682D01*
X239299240Y-35152682D02*
X239370668Y-35188396D01*
X239370668Y-35188396D02*
X239513525Y-35188396D01*
X239513525Y-35188396D02*
X239584954Y-35152682D01*
X239584954Y-35152682D02*
X239620668Y-35116967D01*
X239620668Y-35116967D02*
X239656382Y-35045539D01*
X239656382Y-35045539D02*
X239656382Y-34438396D01*
X239977811Y-35152682D02*
X240084954Y-35188396D01*
X240084954Y-35188396D02*
X240263525Y-35188396D01*
X240263525Y-35188396D02*
X240334954Y-35152682D01*
X240334954Y-35152682D02*
X240370668Y-35116967D01*
X240370668Y-35116967D02*
X240406382Y-35045539D01*
X240406382Y-35045539D02*
X240406382Y-34974110D01*
X240406382Y-34974110D02*
X240370668Y-34902682D01*
X240370668Y-34902682D02*
X240334954Y-34866967D01*
X240334954Y-34866967D02*
X240263525Y-34831253D01*
X240263525Y-34831253D02*
X240120668Y-34795539D01*
X240120668Y-34795539D02*
X240049239Y-34759824D01*
X240049239Y-34759824D02*
X240013525Y-34724110D01*
X240013525Y-34724110D02*
X239977811Y-34652682D01*
X239977811Y-34652682D02*
X239977811Y-34581253D01*
X239977811Y-34581253D02*
X240013525Y-34509824D01*
X240013525Y-34509824D02*
X240049239Y-34474110D01*
X240049239Y-34474110D02*
X240120668Y-34438396D01*
X240120668Y-34438396D02*
X240299239Y-34438396D01*
X240299239Y-34438396D02*
X240406382Y-34474110D01*
X240977811Y-34795539D02*
X241084954Y-34831253D01*
X241084954Y-34831253D02*
X241120668Y-34866967D01*
X241120668Y-34866967D02*
X241156382Y-34938396D01*
X241156382Y-34938396D02*
X241156382Y-35045539D01*
X241156382Y-35045539D02*
X241120668Y-35116967D01*
X241120668Y-35116967D02*
X241084954Y-35152682D01*
X241084954Y-35152682D02*
X241013525Y-35188396D01*
X241013525Y-35188396D02*
X240727811Y-35188396D01*
X240727811Y-35188396D02*
X240727811Y-34438396D01*
X240727811Y-34438396D02*
X240977811Y-34438396D01*
X240977811Y-34438396D02*
X241049240Y-34474110D01*
X241049240Y-34474110D02*
X241084954Y-34509824D01*
X241084954Y-34509824D02*
X241120668Y-34581253D01*
X241120668Y-34581253D02*
X241120668Y-34652682D01*
X241120668Y-34652682D02*
X241084954Y-34724110D01*
X241084954Y-34724110D02*
X241049240Y-34759824D01*
X241049240Y-34759824D02*
X240977811Y-34795539D01*
X240977811Y-34795539D02*
X240727811Y-34795539D01*
D12*
X243168764Y-46523850D02*
X243104954Y-46488136D01*
X243104954Y-46488136D02*
X243009240Y-46488136D01*
X243009240Y-46488136D02*
X242913526Y-46523850D01*
X242913526Y-46523850D02*
X242849716Y-46595279D01*
X242849716Y-46595279D02*
X242817811Y-46666707D01*
X242817811Y-46666707D02*
X242785907Y-46809564D01*
X242785907Y-46809564D02*
X242785907Y-46916707D01*
X242785907Y-46916707D02*
X242817811Y-47059564D01*
X242817811Y-47059564D02*
X242849716Y-47130993D01*
X242849716Y-47130993D02*
X242913526Y-47202422D01*
X242913526Y-47202422D02*
X243009240Y-47238136D01*
X243009240Y-47238136D02*
X243073049Y-47238136D01*
X243073049Y-47238136D02*
X243168764Y-47202422D01*
X243168764Y-47202422D02*
X243200668Y-47166707D01*
X243200668Y-47166707D02*
X243200668Y-46916707D01*
X243200668Y-46916707D02*
X243073049Y-46916707D01*
X243487811Y-47238136D02*
X243487811Y-46488136D01*
X243487811Y-46488136D02*
X243870668Y-47238136D01*
X243870668Y-47238136D02*
X243870668Y-46488136D01*
X244189716Y-47238136D02*
X244189716Y-46488136D01*
X244189716Y-46488136D02*
X244349240Y-46488136D01*
X244349240Y-46488136D02*
X244444954Y-46523850D01*
X244444954Y-46523850D02*
X244508764Y-46595279D01*
X244508764Y-46595279D02*
X244540669Y-46666707D01*
X244540669Y-46666707D02*
X244572573Y-46809564D01*
X244572573Y-46809564D02*
X244572573Y-46916707D01*
X244572573Y-46916707D02*
X244540669Y-47059564D01*
X244540669Y-47059564D02*
X244508764Y-47130993D01*
X244508764Y-47130993D02*
X244444954Y-47202422D01*
X244444954Y-47202422D02*
X244349240Y-47238136D01*
X244349240Y-47238136D02*
X244189716Y-47238136D01*
X242420999Y-49738136D02*
X242420999Y-49238136D01*
X242420999Y-49309564D02*
X242452904Y-49273850D01*
X242452904Y-49273850D02*
X242516714Y-49238136D01*
X242516714Y-49238136D02*
X242612428Y-49238136D01*
X242612428Y-49238136D02*
X242676237Y-49273850D01*
X242676237Y-49273850D02*
X242708142Y-49345279D01*
X242708142Y-49345279D02*
X242708142Y-49738136D01*
X242708142Y-49345279D02*
X242740047Y-49273850D01*
X242740047Y-49273850D02*
X242803856Y-49238136D01*
X242803856Y-49238136D02*
X242899571Y-49238136D01*
X242899571Y-49238136D02*
X242963380Y-49273850D01*
X242963380Y-49273850D02*
X242995285Y-49345279D01*
X242995285Y-49345279D02*
X242995285Y-49738136D01*
X243410047Y-49738136D02*
X243346237Y-49702422D01*
X243346237Y-49702422D02*
X243314332Y-49666707D01*
X243314332Y-49666707D02*
X243282428Y-49595279D01*
X243282428Y-49595279D02*
X243282428Y-49380993D01*
X243282428Y-49380993D02*
X243314332Y-49309564D01*
X243314332Y-49309564D02*
X243346237Y-49273850D01*
X243346237Y-49273850D02*
X243410047Y-49238136D01*
X243410047Y-49238136D02*
X243505761Y-49238136D01*
X243505761Y-49238136D02*
X243569570Y-49273850D01*
X243569570Y-49273850D02*
X243601475Y-49309564D01*
X243601475Y-49309564D02*
X243633380Y-49380993D01*
X243633380Y-49380993D02*
X243633380Y-49595279D01*
X243633380Y-49595279D02*
X243601475Y-49666707D01*
X243601475Y-49666707D02*
X243569570Y-49702422D01*
X243569570Y-49702422D02*
X243505761Y-49738136D01*
X243505761Y-49738136D02*
X243410047Y-49738136D01*
X243888618Y-49702422D02*
X243952427Y-49738136D01*
X243952427Y-49738136D02*
X244080046Y-49738136D01*
X244080046Y-49738136D02*
X244143856Y-49702422D01*
X244143856Y-49702422D02*
X244175760Y-49630993D01*
X244175760Y-49630993D02*
X244175760Y-49595279D01*
X244175760Y-49595279D02*
X244143856Y-49523850D01*
X244143856Y-49523850D02*
X244080046Y-49488136D01*
X244080046Y-49488136D02*
X243984332Y-49488136D01*
X243984332Y-49488136D02*
X243920522Y-49452422D01*
X243920522Y-49452422D02*
X243888618Y-49380993D01*
X243888618Y-49380993D02*
X243888618Y-49345279D01*
X243888618Y-49345279D02*
X243920522Y-49273850D01*
X243920522Y-49273850D02*
X243984332Y-49238136D01*
X243984332Y-49238136D02*
X244080046Y-49238136D01*
X244080046Y-49238136D02*
X244143856Y-49273850D01*
X244462903Y-49738136D02*
X244462903Y-49238136D01*
X244462903Y-48988136D02*
X244430999Y-49023850D01*
X244430999Y-49023850D02*
X244462903Y-49059564D01*
X244462903Y-49059564D02*
X244494808Y-49023850D01*
X244494808Y-49023850D02*
X244462903Y-48988136D01*
X244462903Y-48988136D02*
X244462903Y-49059564D01*
X232589212Y-49885550D02*
X232653021Y-49921264D01*
X232653021Y-49921264D02*
X232780640Y-49921264D01*
X232780640Y-49921264D02*
X232844450Y-49885550D01*
X232844450Y-49885550D02*
X232876354Y-49814121D01*
X232876354Y-49814121D02*
X232876354Y-49778407D01*
X232876354Y-49778407D02*
X232844450Y-49706978D01*
X232844450Y-49706978D02*
X232780640Y-49671264D01*
X232780640Y-49671264D02*
X232684926Y-49671264D01*
X232684926Y-49671264D02*
X232621116Y-49635550D01*
X232621116Y-49635550D02*
X232589212Y-49564121D01*
X232589212Y-49564121D02*
X232589212Y-49528407D01*
X232589212Y-49528407D02*
X232621116Y-49456978D01*
X232621116Y-49456978D02*
X232684926Y-49421264D01*
X232684926Y-49421264D02*
X232780640Y-49421264D01*
X232780640Y-49421264D02*
X232844450Y-49456978D01*
X233291116Y-49171264D02*
X233354926Y-49171264D01*
X233354926Y-49171264D02*
X233418735Y-49206978D01*
X233418735Y-49206978D02*
X233450640Y-49242692D01*
X233450640Y-49242692D02*
X233482545Y-49314121D01*
X233482545Y-49314121D02*
X233514450Y-49456978D01*
X233514450Y-49456978D02*
X233514450Y-49635550D01*
X233514450Y-49635550D02*
X233482545Y-49778407D01*
X233482545Y-49778407D02*
X233450640Y-49849835D01*
X233450640Y-49849835D02*
X233418735Y-49885550D01*
X233418735Y-49885550D02*
X233354926Y-49921264D01*
X233354926Y-49921264D02*
X233291116Y-49921264D01*
X233291116Y-49921264D02*
X233227307Y-49885550D01*
X233227307Y-49885550D02*
X233195402Y-49849835D01*
X233195402Y-49849835D02*
X233163497Y-49778407D01*
X233163497Y-49778407D02*
X233131593Y-49635550D01*
X233131593Y-49635550D02*
X233131593Y-49456978D01*
X233131593Y-49456978D02*
X233163497Y-49314121D01*
X233163497Y-49314121D02*
X233195402Y-49242692D01*
X233195402Y-49242692D02*
X233227307Y-49206978D01*
X233227307Y-49206978D02*
X233291116Y-49171264D01*
X234280164Y-49135550D02*
X233705878Y-50099835D01*
X234503497Y-49921264D02*
X234503497Y-49171264D01*
X234503497Y-49171264D02*
X234663021Y-49171264D01*
X234663021Y-49171264D02*
X234758735Y-49206978D01*
X234758735Y-49206978D02*
X234822545Y-49278407D01*
X234822545Y-49278407D02*
X234854450Y-49349835D01*
X234854450Y-49349835D02*
X234886354Y-49492692D01*
X234886354Y-49492692D02*
X234886354Y-49599835D01*
X234886354Y-49599835D02*
X234854450Y-49742692D01*
X234854450Y-49742692D02*
X234822545Y-49814121D01*
X234822545Y-49814121D02*
X234758735Y-49885550D01*
X234758735Y-49885550D02*
X234663021Y-49921264D01*
X234663021Y-49921264D02*
X234503497Y-49921264D01*
X235141593Y-49242692D02*
X235173497Y-49206978D01*
X235173497Y-49206978D02*
X235237307Y-49171264D01*
X235237307Y-49171264D02*
X235396831Y-49171264D01*
X235396831Y-49171264D02*
X235460640Y-49206978D01*
X235460640Y-49206978D02*
X235492545Y-49242692D01*
X235492545Y-49242692D02*
X235524450Y-49314121D01*
X235524450Y-49314121D02*
X235524450Y-49385550D01*
X235524450Y-49385550D02*
X235492545Y-49492692D01*
X235492545Y-49492692D02*
X235109688Y-49921264D01*
X235109688Y-49921264D02*
X235524450Y-49921264D01*
X236162545Y-49921264D02*
X235779688Y-49921264D01*
X235971116Y-49921264D02*
X235971116Y-49171264D01*
X235971116Y-49171264D02*
X235907307Y-49278407D01*
X235907307Y-49278407D02*
X235843497Y-49349835D01*
X235843497Y-49349835D02*
X235779688Y-49385550D01*
X241642574Y-62352422D02*
X241706383Y-62388136D01*
X241706383Y-62388136D02*
X241834002Y-62388136D01*
X241834002Y-62388136D02*
X241897812Y-62352422D01*
X241897812Y-62352422D02*
X241929716Y-62280993D01*
X241929716Y-62280993D02*
X241929716Y-62245279D01*
X241929716Y-62245279D02*
X241897812Y-62173850D01*
X241897812Y-62173850D02*
X241834002Y-62138136D01*
X241834002Y-62138136D02*
X241738288Y-62138136D01*
X241738288Y-62138136D02*
X241674478Y-62102422D01*
X241674478Y-62102422D02*
X241642574Y-62030993D01*
X241642574Y-62030993D02*
X241642574Y-61995279D01*
X241642574Y-61995279D02*
X241674478Y-61923850D01*
X241674478Y-61923850D02*
X241738288Y-61888136D01*
X241738288Y-61888136D02*
X241834002Y-61888136D01*
X241834002Y-61888136D02*
X241897812Y-61923850D01*
X242184955Y-61709564D02*
X242216859Y-61673850D01*
X242216859Y-61673850D02*
X242280669Y-61638136D01*
X242280669Y-61638136D02*
X242440193Y-61638136D01*
X242440193Y-61638136D02*
X242504002Y-61673850D01*
X242504002Y-61673850D02*
X242535907Y-61709564D01*
X242535907Y-61709564D02*
X242567812Y-61780993D01*
X242567812Y-61780993D02*
X242567812Y-61852422D01*
X242567812Y-61852422D02*
X242535907Y-61959564D01*
X242535907Y-61959564D02*
X242153050Y-62388136D01*
X242153050Y-62388136D02*
X242567812Y-62388136D01*
X243205907Y-62388136D02*
X242823050Y-62388136D01*
X243014478Y-62388136D02*
X243014478Y-61638136D01*
X243014478Y-61638136D02*
X242950669Y-61745279D01*
X242950669Y-61745279D02*
X242886859Y-61816707D01*
X242886859Y-61816707D02*
X242823050Y-61852422D01*
X243971621Y-61602422D02*
X243397335Y-62566707D01*
X244194954Y-62388136D02*
X244194954Y-61638136D01*
X244194954Y-61638136D02*
X244354478Y-61638136D01*
X244354478Y-61638136D02*
X244450192Y-61673850D01*
X244450192Y-61673850D02*
X244514002Y-61745279D01*
X244514002Y-61745279D02*
X244545907Y-61816707D01*
X244545907Y-61816707D02*
X244577811Y-61959564D01*
X244577811Y-61959564D02*
X244577811Y-62066707D01*
X244577811Y-62066707D02*
X244545907Y-62209564D01*
X244545907Y-62209564D02*
X244514002Y-62280993D01*
X244514002Y-62280993D02*
X244450192Y-62352422D01*
X244450192Y-62352422D02*
X244354478Y-62388136D01*
X244354478Y-62388136D02*
X244194954Y-62388136D01*
X244801145Y-61638136D02*
X245247811Y-61638136D01*
X245247811Y-61638136D02*
X244960669Y-62388136D01*
X241642574Y-59802422D02*
X241706383Y-59838136D01*
X241706383Y-59838136D02*
X241834002Y-59838136D01*
X241834002Y-59838136D02*
X241897812Y-59802422D01*
X241897812Y-59802422D02*
X241929716Y-59730993D01*
X241929716Y-59730993D02*
X241929716Y-59695279D01*
X241929716Y-59695279D02*
X241897812Y-59623850D01*
X241897812Y-59623850D02*
X241834002Y-59588136D01*
X241834002Y-59588136D02*
X241738288Y-59588136D01*
X241738288Y-59588136D02*
X241674478Y-59552422D01*
X241674478Y-59552422D02*
X241642574Y-59480993D01*
X241642574Y-59480993D02*
X241642574Y-59445279D01*
X241642574Y-59445279D02*
X241674478Y-59373850D01*
X241674478Y-59373850D02*
X241738288Y-59338136D01*
X241738288Y-59338136D02*
X241834002Y-59338136D01*
X241834002Y-59338136D02*
X241897812Y-59373850D01*
X242184955Y-59159564D02*
X242216859Y-59123850D01*
X242216859Y-59123850D02*
X242280669Y-59088136D01*
X242280669Y-59088136D02*
X242440193Y-59088136D01*
X242440193Y-59088136D02*
X242504002Y-59123850D01*
X242504002Y-59123850D02*
X242535907Y-59159564D01*
X242535907Y-59159564D02*
X242567812Y-59230993D01*
X242567812Y-59230993D02*
X242567812Y-59302422D01*
X242567812Y-59302422D02*
X242535907Y-59409564D01*
X242535907Y-59409564D02*
X242153050Y-59838136D01*
X242153050Y-59838136D02*
X242567812Y-59838136D01*
X242982573Y-59088136D02*
X243046383Y-59088136D01*
X243046383Y-59088136D02*
X243110192Y-59123850D01*
X243110192Y-59123850D02*
X243142097Y-59159564D01*
X243142097Y-59159564D02*
X243174002Y-59230993D01*
X243174002Y-59230993D02*
X243205907Y-59373850D01*
X243205907Y-59373850D02*
X243205907Y-59552422D01*
X243205907Y-59552422D02*
X243174002Y-59695279D01*
X243174002Y-59695279D02*
X243142097Y-59766707D01*
X243142097Y-59766707D02*
X243110192Y-59802422D01*
X243110192Y-59802422D02*
X243046383Y-59838136D01*
X243046383Y-59838136D02*
X242982573Y-59838136D01*
X242982573Y-59838136D02*
X242918764Y-59802422D01*
X242918764Y-59802422D02*
X242886859Y-59766707D01*
X242886859Y-59766707D02*
X242854954Y-59695279D01*
X242854954Y-59695279D02*
X242823050Y-59552422D01*
X242823050Y-59552422D02*
X242823050Y-59373850D01*
X242823050Y-59373850D02*
X242854954Y-59230993D01*
X242854954Y-59230993D02*
X242886859Y-59159564D01*
X242886859Y-59159564D02*
X242918764Y-59123850D01*
X242918764Y-59123850D02*
X242982573Y-59088136D01*
X243971621Y-59052422D02*
X243397335Y-60016707D01*
X244194954Y-59838136D02*
X244194954Y-59088136D01*
X244194954Y-59088136D02*
X244354478Y-59088136D01*
X244354478Y-59088136D02*
X244450192Y-59123850D01*
X244450192Y-59123850D02*
X244514002Y-59195279D01*
X244514002Y-59195279D02*
X244545907Y-59266707D01*
X244545907Y-59266707D02*
X244577811Y-59409564D01*
X244577811Y-59409564D02*
X244577811Y-59516707D01*
X244577811Y-59516707D02*
X244545907Y-59659564D01*
X244545907Y-59659564D02*
X244514002Y-59730993D01*
X244514002Y-59730993D02*
X244450192Y-59802422D01*
X244450192Y-59802422D02*
X244354478Y-59838136D01*
X244354478Y-59838136D02*
X244194954Y-59838136D01*
X245152097Y-59088136D02*
X245024478Y-59088136D01*
X245024478Y-59088136D02*
X244960669Y-59123850D01*
X244960669Y-59123850D02*
X244928764Y-59159564D01*
X244928764Y-59159564D02*
X244864954Y-59266707D01*
X244864954Y-59266707D02*
X244833050Y-59409564D01*
X244833050Y-59409564D02*
X244833050Y-59695279D01*
X244833050Y-59695279D02*
X244864954Y-59766707D01*
X244864954Y-59766707D02*
X244896859Y-59802422D01*
X244896859Y-59802422D02*
X244960669Y-59838136D01*
X244960669Y-59838136D02*
X245088288Y-59838136D01*
X245088288Y-59838136D02*
X245152097Y-59802422D01*
X245152097Y-59802422D02*
X245184002Y-59766707D01*
X245184002Y-59766707D02*
X245215907Y-59695279D01*
X245215907Y-59695279D02*
X245215907Y-59516707D01*
X245215907Y-59516707D02*
X245184002Y-59445279D01*
X245184002Y-59445279D02*
X245152097Y-59409564D01*
X245152097Y-59409564D02*
X245088288Y-59373850D01*
X245088288Y-59373850D02*
X244960669Y-59373850D01*
X244960669Y-59373850D02*
X244896859Y-59409564D01*
X244896859Y-59409564D02*
X244864954Y-59445279D01*
X244864954Y-59445279D02*
X244833050Y-59516707D01*
X232589212Y-52273150D02*
X232653021Y-52308864D01*
X232653021Y-52308864D02*
X232780640Y-52308864D01*
X232780640Y-52308864D02*
X232844450Y-52273150D01*
X232844450Y-52273150D02*
X232876354Y-52201721D01*
X232876354Y-52201721D02*
X232876354Y-52166007D01*
X232876354Y-52166007D02*
X232844450Y-52094578D01*
X232844450Y-52094578D02*
X232780640Y-52058864D01*
X232780640Y-52058864D02*
X232684926Y-52058864D01*
X232684926Y-52058864D02*
X232621116Y-52023150D01*
X232621116Y-52023150D02*
X232589212Y-51951721D01*
X232589212Y-51951721D02*
X232589212Y-51916007D01*
X232589212Y-51916007D02*
X232621116Y-51844578D01*
X232621116Y-51844578D02*
X232684926Y-51808864D01*
X232684926Y-51808864D02*
X232780640Y-51808864D01*
X232780640Y-51808864D02*
X232844450Y-51844578D01*
X233514450Y-52308864D02*
X233131593Y-52308864D01*
X233323021Y-52308864D02*
X233323021Y-51558864D01*
X233323021Y-51558864D02*
X233259212Y-51666007D01*
X233259212Y-51666007D02*
X233195402Y-51737435D01*
X233195402Y-51737435D02*
X233131593Y-51773150D01*
X234280164Y-51523150D02*
X233705878Y-52487435D01*
X234503497Y-52308864D02*
X234503497Y-51558864D01*
X234503497Y-51558864D02*
X234663021Y-51558864D01*
X234663021Y-51558864D02*
X234758735Y-51594578D01*
X234758735Y-51594578D02*
X234822545Y-51666007D01*
X234822545Y-51666007D02*
X234854450Y-51737435D01*
X234854450Y-51737435D02*
X234886354Y-51880292D01*
X234886354Y-51880292D02*
X234886354Y-51987435D01*
X234886354Y-51987435D02*
X234854450Y-52130292D01*
X234854450Y-52130292D02*
X234822545Y-52201721D01*
X234822545Y-52201721D02*
X234758735Y-52273150D01*
X234758735Y-52273150D02*
X234663021Y-52308864D01*
X234663021Y-52308864D02*
X234503497Y-52308864D01*
X235141593Y-51630292D02*
X235173497Y-51594578D01*
X235173497Y-51594578D02*
X235237307Y-51558864D01*
X235237307Y-51558864D02*
X235396831Y-51558864D01*
X235396831Y-51558864D02*
X235460640Y-51594578D01*
X235460640Y-51594578D02*
X235492545Y-51630292D01*
X235492545Y-51630292D02*
X235524450Y-51701721D01*
X235524450Y-51701721D02*
X235524450Y-51773150D01*
X235524450Y-51773150D02*
X235492545Y-51880292D01*
X235492545Y-51880292D02*
X235109688Y-52308864D01*
X235109688Y-52308864D02*
X235524450Y-52308864D01*
X235939211Y-51558864D02*
X236003021Y-51558864D01*
X236003021Y-51558864D02*
X236066830Y-51594578D01*
X236066830Y-51594578D02*
X236098735Y-51630292D01*
X236098735Y-51630292D02*
X236130640Y-51701721D01*
X236130640Y-51701721D02*
X236162545Y-51844578D01*
X236162545Y-51844578D02*
X236162545Y-52023150D01*
X236162545Y-52023150D02*
X236130640Y-52166007D01*
X236130640Y-52166007D02*
X236098735Y-52237435D01*
X236098735Y-52237435D02*
X236066830Y-52273150D01*
X236066830Y-52273150D02*
X236003021Y-52308864D01*
X236003021Y-52308864D02*
X235939211Y-52308864D01*
X235939211Y-52308864D02*
X235875402Y-52273150D01*
X235875402Y-52273150D02*
X235843497Y-52237435D01*
X235843497Y-52237435D02*
X235811592Y-52166007D01*
X235811592Y-52166007D02*
X235779688Y-52023150D01*
X235779688Y-52023150D02*
X235779688Y-51844578D01*
X235779688Y-51844578D02*
X235811592Y-51701721D01*
X235811592Y-51701721D02*
X235843497Y-51630292D01*
X235843497Y-51630292D02*
X235875402Y-51594578D01*
X235875402Y-51594578D02*
X235939211Y-51558864D01*
X233218764Y-41473850D02*
X233154954Y-41438136D01*
X233154954Y-41438136D02*
X233059240Y-41438136D01*
X233059240Y-41438136D02*
X232963526Y-41473850D01*
X232963526Y-41473850D02*
X232899716Y-41545279D01*
X232899716Y-41545279D02*
X232867811Y-41616707D01*
X232867811Y-41616707D02*
X232835907Y-41759564D01*
X232835907Y-41759564D02*
X232835907Y-41866707D01*
X232835907Y-41866707D02*
X232867811Y-42009564D01*
X232867811Y-42009564D02*
X232899716Y-42080993D01*
X232899716Y-42080993D02*
X232963526Y-42152422D01*
X232963526Y-42152422D02*
X233059240Y-42188136D01*
X233059240Y-42188136D02*
X233123049Y-42188136D01*
X233123049Y-42188136D02*
X233218764Y-42152422D01*
X233218764Y-42152422D02*
X233250668Y-42116707D01*
X233250668Y-42116707D02*
X233250668Y-41866707D01*
X233250668Y-41866707D02*
X233123049Y-41866707D01*
X233537811Y-42188136D02*
X233537811Y-41438136D01*
X233537811Y-41438136D02*
X233920668Y-42188136D01*
X233920668Y-42188136D02*
X233920668Y-41438136D01*
X234239716Y-42188136D02*
X234239716Y-41438136D01*
X234239716Y-41438136D02*
X234399240Y-41438136D01*
X234399240Y-41438136D02*
X234494954Y-41473850D01*
X234494954Y-41473850D02*
X234558764Y-41545279D01*
X234558764Y-41545279D02*
X234590669Y-41616707D01*
X234590669Y-41616707D02*
X234622573Y-41759564D01*
X234622573Y-41759564D02*
X234622573Y-41866707D01*
X234622573Y-41866707D02*
X234590669Y-42009564D01*
X234590669Y-42009564D02*
X234558764Y-42080993D01*
X234558764Y-42080993D02*
X234494954Y-42152422D01*
X234494954Y-42152422D02*
X234399240Y-42188136D01*
X234399240Y-42188136D02*
X234239716Y-42188136D01*
X241642574Y-54702422D02*
X241706383Y-54738136D01*
X241706383Y-54738136D02*
X241834002Y-54738136D01*
X241834002Y-54738136D02*
X241897812Y-54702422D01*
X241897812Y-54702422D02*
X241929716Y-54630993D01*
X241929716Y-54630993D02*
X241929716Y-54595279D01*
X241929716Y-54595279D02*
X241897812Y-54523850D01*
X241897812Y-54523850D02*
X241834002Y-54488136D01*
X241834002Y-54488136D02*
X241738288Y-54488136D01*
X241738288Y-54488136D02*
X241674478Y-54452422D01*
X241674478Y-54452422D02*
X241642574Y-54380993D01*
X241642574Y-54380993D02*
X241642574Y-54345279D01*
X241642574Y-54345279D02*
X241674478Y-54273850D01*
X241674478Y-54273850D02*
X241738288Y-54238136D01*
X241738288Y-54238136D02*
X241834002Y-54238136D01*
X241834002Y-54238136D02*
X241897812Y-54273850D01*
X242567812Y-54738136D02*
X242184955Y-54738136D01*
X242376383Y-54738136D02*
X242376383Y-53988136D01*
X242376383Y-53988136D02*
X242312574Y-54095279D01*
X242312574Y-54095279D02*
X242248764Y-54166707D01*
X242248764Y-54166707D02*
X242184955Y-54202422D01*
X242791145Y-53988136D02*
X243205907Y-53988136D01*
X243205907Y-53988136D02*
X242982573Y-54273850D01*
X242982573Y-54273850D02*
X243078288Y-54273850D01*
X243078288Y-54273850D02*
X243142097Y-54309564D01*
X243142097Y-54309564D02*
X243174002Y-54345279D01*
X243174002Y-54345279D02*
X243205907Y-54416707D01*
X243205907Y-54416707D02*
X243205907Y-54595279D01*
X243205907Y-54595279D02*
X243174002Y-54666707D01*
X243174002Y-54666707D02*
X243142097Y-54702422D01*
X243142097Y-54702422D02*
X243078288Y-54738136D01*
X243078288Y-54738136D02*
X242886859Y-54738136D01*
X242886859Y-54738136D02*
X242823050Y-54702422D01*
X242823050Y-54702422D02*
X242791145Y-54666707D01*
X243971621Y-53952422D02*
X243397335Y-54916707D01*
X244194954Y-54738136D02*
X244194954Y-53988136D01*
X244194954Y-53988136D02*
X244354478Y-53988136D01*
X244354478Y-53988136D02*
X244450192Y-54023850D01*
X244450192Y-54023850D02*
X244514002Y-54095279D01*
X244514002Y-54095279D02*
X244545907Y-54166707D01*
X244545907Y-54166707D02*
X244577811Y-54309564D01*
X244577811Y-54309564D02*
X244577811Y-54416707D01*
X244577811Y-54416707D02*
X244545907Y-54559564D01*
X244545907Y-54559564D02*
X244514002Y-54630993D01*
X244514002Y-54630993D02*
X244450192Y-54702422D01*
X244450192Y-54702422D02*
X244354478Y-54738136D01*
X244354478Y-54738136D02*
X244194954Y-54738136D01*
X245152097Y-54238136D02*
X245152097Y-54738136D01*
X244992573Y-53952422D02*
X244833050Y-54488136D01*
X244833050Y-54488136D02*
X245247811Y-54488136D01*
X232298095Y-39638136D02*
X232298095Y-39138136D01*
X232298095Y-39280993D02*
X232330000Y-39209564D01*
X232330000Y-39209564D02*
X232361905Y-39173850D01*
X232361905Y-39173850D02*
X232425714Y-39138136D01*
X232425714Y-39138136D02*
X232489524Y-39138136D01*
X233000000Y-39638136D02*
X233000000Y-39245279D01*
X233000000Y-39245279D02*
X232968095Y-39173850D01*
X232968095Y-39173850D02*
X232904286Y-39138136D01*
X232904286Y-39138136D02*
X232776667Y-39138136D01*
X232776667Y-39138136D02*
X232712857Y-39173850D01*
X233000000Y-39602422D02*
X232936191Y-39638136D01*
X232936191Y-39638136D02*
X232776667Y-39638136D01*
X232776667Y-39638136D02*
X232712857Y-39602422D01*
X232712857Y-39602422D02*
X232680953Y-39530993D01*
X232680953Y-39530993D02*
X232680953Y-39459564D01*
X232680953Y-39459564D02*
X232712857Y-39388136D01*
X232712857Y-39388136D02*
X232776667Y-39352422D01*
X232776667Y-39352422D02*
X232936191Y-39352422D01*
X232936191Y-39352422D02*
X233000000Y-39316707D01*
X233255238Y-39138136D02*
X233382857Y-39638136D01*
X233382857Y-39638136D02*
X233510476Y-39280993D01*
X233510476Y-39280993D02*
X233638095Y-39638136D01*
X233638095Y-39638136D02*
X233765714Y-39138136D01*
X233362335Y-44738136D02*
X233139002Y-44380993D01*
X232979478Y-44738136D02*
X232979478Y-43988136D01*
X232979478Y-43988136D02*
X233234716Y-43988136D01*
X233234716Y-43988136D02*
X233298526Y-44023850D01*
X233298526Y-44023850D02*
X233330431Y-44059564D01*
X233330431Y-44059564D02*
X233362335Y-44130993D01*
X233362335Y-44130993D02*
X233362335Y-44238136D01*
X233362335Y-44238136D02*
X233330431Y-44309564D01*
X233330431Y-44309564D02*
X233298526Y-44345279D01*
X233298526Y-44345279D02*
X233234716Y-44380993D01*
X233234716Y-44380993D02*
X232979478Y-44380993D01*
X233617574Y-44702422D02*
X233713288Y-44738136D01*
X233713288Y-44738136D02*
X233872812Y-44738136D01*
X233872812Y-44738136D02*
X233936621Y-44702422D01*
X233936621Y-44702422D02*
X233968526Y-44666707D01*
X233968526Y-44666707D02*
X234000431Y-44595279D01*
X234000431Y-44595279D02*
X234000431Y-44523850D01*
X234000431Y-44523850D02*
X233968526Y-44452422D01*
X233968526Y-44452422D02*
X233936621Y-44416707D01*
X233936621Y-44416707D02*
X233872812Y-44380993D01*
X233872812Y-44380993D02*
X233745193Y-44345279D01*
X233745193Y-44345279D02*
X233681383Y-44309564D01*
X233681383Y-44309564D02*
X233649478Y-44273850D01*
X233649478Y-44273850D02*
X233617574Y-44202422D01*
X233617574Y-44202422D02*
X233617574Y-44130993D01*
X233617574Y-44130993D02*
X233649478Y-44059564D01*
X233649478Y-44059564D02*
X233681383Y-44023850D01*
X233681383Y-44023850D02*
X233745193Y-43988136D01*
X233745193Y-43988136D02*
X233904716Y-43988136D01*
X233904716Y-43988136D02*
X234000431Y-44023850D01*
X234191859Y-43988136D02*
X234574716Y-43988136D01*
X234383288Y-44738136D02*
X234383288Y-43988136D01*
D10*
X228067924Y-36942464D02*
X228184038Y-36981169D01*
X228184038Y-36981169D02*
X228222743Y-37019873D01*
X228222743Y-37019873D02*
X228261447Y-37097283D01*
X228261447Y-37097283D02*
X228261447Y-37213397D01*
X228261447Y-37213397D02*
X228222743Y-37290807D01*
X228222743Y-37290807D02*
X228184038Y-37329512D01*
X228184038Y-37329512D02*
X228106628Y-37368216D01*
X228106628Y-37368216D02*
X227796990Y-37368216D01*
X227796990Y-37368216D02*
X227796990Y-36555416D01*
X227796990Y-36555416D02*
X228067924Y-36555416D01*
X228067924Y-36555416D02*
X228145333Y-36594121D01*
X228145333Y-36594121D02*
X228184038Y-36632826D01*
X228184038Y-36632826D02*
X228222743Y-36710235D01*
X228222743Y-36710235D02*
X228222743Y-36787645D01*
X228222743Y-36787645D02*
X228184038Y-36865054D01*
X228184038Y-36865054D02*
X228145333Y-36903759D01*
X228145333Y-36903759D02*
X228067924Y-36942464D01*
X228067924Y-36942464D02*
X227796990Y-36942464D01*
X228958133Y-37368216D02*
X228958133Y-36942464D01*
X228958133Y-36942464D02*
X228919428Y-36865054D01*
X228919428Y-36865054D02*
X228842019Y-36826350D01*
X228842019Y-36826350D02*
X228687200Y-36826350D01*
X228687200Y-36826350D02*
X228609790Y-36865054D01*
X228958133Y-37329512D02*
X228880724Y-37368216D01*
X228880724Y-37368216D02*
X228687200Y-37368216D01*
X228687200Y-37368216D02*
X228609790Y-37329512D01*
X228609790Y-37329512D02*
X228571086Y-37252102D01*
X228571086Y-37252102D02*
X228571086Y-37174692D01*
X228571086Y-37174692D02*
X228609790Y-37097283D01*
X228609790Y-37097283D02*
X228687200Y-37058578D01*
X228687200Y-37058578D02*
X228880724Y-37058578D01*
X228880724Y-37058578D02*
X228958133Y-37019873D01*
X229229066Y-36826350D02*
X229538704Y-36826350D01*
X229345180Y-36555416D02*
X229345180Y-37252102D01*
X229345180Y-37252102D02*
X229383885Y-37329512D01*
X229383885Y-37329512D02*
X229461295Y-37368216D01*
X229461295Y-37368216D02*
X229538704Y-37368216D01*
X229809637Y-37058578D02*
X230428914Y-37058578D01*
X230119275Y-37368216D02*
X230119275Y-36748940D01*
X230970780Y-36555416D02*
X231048190Y-36555416D01*
X231048190Y-36555416D02*
X231125599Y-36594121D01*
X231125599Y-36594121D02*
X231164304Y-36632826D01*
X231164304Y-36632826D02*
X231203009Y-36710235D01*
X231203009Y-36710235D02*
X231241714Y-36865054D01*
X231241714Y-36865054D02*
X231241714Y-37058578D01*
X231241714Y-37058578D02*
X231203009Y-37213397D01*
X231203009Y-37213397D02*
X231164304Y-37290807D01*
X231164304Y-37290807D02*
X231125599Y-37329512D01*
X231125599Y-37329512D02*
X231048190Y-37368216D01*
X231048190Y-37368216D02*
X230970780Y-37368216D01*
X230970780Y-37368216D02*
X230893371Y-37329512D01*
X230893371Y-37329512D02*
X230854666Y-37290807D01*
X230854666Y-37290807D02*
X230815961Y-37213397D01*
X230815961Y-37213397D02*
X230777257Y-37058578D01*
X230777257Y-37058578D02*
X230777257Y-36865054D01*
X230777257Y-36865054D02*
X230815961Y-36710235D01*
X230815961Y-36710235D02*
X230854666Y-36632826D01*
X230854666Y-36632826D02*
X230893371Y-36594121D01*
X230893371Y-36594121D02*
X230970780Y-36555416D01*
X245567924Y-36942464D02*
X245684038Y-36981169D01*
X245684038Y-36981169D02*
X245722743Y-37019873D01*
X245722743Y-37019873D02*
X245761447Y-37097283D01*
X245761447Y-37097283D02*
X245761447Y-37213397D01*
X245761447Y-37213397D02*
X245722743Y-37290807D01*
X245722743Y-37290807D02*
X245684038Y-37329512D01*
X245684038Y-37329512D02*
X245606628Y-37368216D01*
X245606628Y-37368216D02*
X245296990Y-37368216D01*
X245296990Y-37368216D02*
X245296990Y-36555416D01*
X245296990Y-36555416D02*
X245567924Y-36555416D01*
X245567924Y-36555416D02*
X245645333Y-36594121D01*
X245645333Y-36594121D02*
X245684038Y-36632826D01*
X245684038Y-36632826D02*
X245722743Y-36710235D01*
X245722743Y-36710235D02*
X245722743Y-36787645D01*
X245722743Y-36787645D02*
X245684038Y-36865054D01*
X245684038Y-36865054D02*
X245645333Y-36903759D01*
X245645333Y-36903759D02*
X245567924Y-36942464D01*
X245567924Y-36942464D02*
X245296990Y-36942464D01*
X246458133Y-37368216D02*
X246458133Y-36942464D01*
X246458133Y-36942464D02*
X246419428Y-36865054D01*
X246419428Y-36865054D02*
X246342019Y-36826350D01*
X246342019Y-36826350D02*
X246187200Y-36826350D01*
X246187200Y-36826350D02*
X246109790Y-36865054D01*
X246458133Y-37329512D02*
X246380724Y-37368216D01*
X246380724Y-37368216D02*
X246187200Y-37368216D01*
X246187200Y-37368216D02*
X246109790Y-37329512D01*
X246109790Y-37329512D02*
X246071086Y-37252102D01*
X246071086Y-37252102D02*
X246071086Y-37174692D01*
X246071086Y-37174692D02*
X246109790Y-37097283D01*
X246109790Y-37097283D02*
X246187200Y-37058578D01*
X246187200Y-37058578D02*
X246380724Y-37058578D01*
X246380724Y-37058578D02*
X246458133Y-37019873D01*
X246729066Y-36826350D02*
X247038704Y-36826350D01*
X246845180Y-36555416D02*
X246845180Y-37252102D01*
X246845180Y-37252102D02*
X246883885Y-37329512D01*
X246883885Y-37329512D02*
X246961295Y-37368216D01*
X246961295Y-37368216D02*
X247038704Y-37368216D01*
X247309637Y-37058578D02*
X247928914Y-37058578D01*
X248470780Y-36555416D02*
X248548190Y-36555416D01*
X248548190Y-36555416D02*
X248625599Y-36594121D01*
X248625599Y-36594121D02*
X248664304Y-36632826D01*
X248664304Y-36632826D02*
X248703009Y-36710235D01*
X248703009Y-36710235D02*
X248741714Y-36865054D01*
X248741714Y-36865054D02*
X248741714Y-37058578D01*
X248741714Y-37058578D02*
X248703009Y-37213397D01*
X248703009Y-37213397D02*
X248664304Y-37290807D01*
X248664304Y-37290807D02*
X248625599Y-37329512D01*
X248625599Y-37329512D02*
X248548190Y-37368216D01*
X248548190Y-37368216D02*
X248470780Y-37368216D01*
X248470780Y-37368216D02*
X248393371Y-37329512D01*
X248393371Y-37329512D02*
X248354666Y-37290807D01*
X248354666Y-37290807D02*
X248315961Y-37213397D01*
X248315961Y-37213397D02*
X248277257Y-37058578D01*
X248277257Y-37058578D02*
X248277257Y-36865054D01*
X248277257Y-36865054D02*
X248315961Y-36710235D01*
X248315961Y-36710235D02*
X248354666Y-36632826D01*
X248354666Y-36632826D02*
X248393371Y-36594121D01*
X248393371Y-36594121D02*
X248470780Y-36555416D01*
X240842438Y-79884398D02*
X240794819Y-79979636D01*
X240794819Y-79979636D02*
X240794819Y-80122493D01*
X240794819Y-80122493D02*
X240842438Y-80265350D01*
X240842438Y-80265350D02*
X240937676Y-80360588D01*
X240937676Y-80360588D02*
X241032914Y-80408207D01*
X241032914Y-80408207D02*
X241223390Y-80455826D01*
X241223390Y-80455826D02*
X241366247Y-80455826D01*
X241366247Y-80455826D02*
X241556723Y-80408207D01*
X241556723Y-80408207D02*
X241651961Y-80360588D01*
X241651961Y-80360588D02*
X241747200Y-80265350D01*
X241747200Y-80265350D02*
X241794819Y-80122493D01*
X241794819Y-80122493D02*
X241794819Y-80027255D01*
X241794819Y-80027255D02*
X241747200Y-79884398D01*
X241747200Y-79884398D02*
X241699580Y-79836779D01*
X241699580Y-79836779D02*
X241366247Y-79836779D01*
X241366247Y-79836779D02*
X241366247Y-80027255D01*
X241794819Y-79408207D02*
X240794819Y-79408207D01*
X240794819Y-79408207D02*
X241794819Y-78836779D01*
X241794819Y-78836779D02*
X240794819Y-78836779D01*
X241794819Y-78360588D02*
X240794819Y-78360588D01*
X240794819Y-78360588D02*
X240794819Y-78122493D01*
X240794819Y-78122493D02*
X240842438Y-77979636D01*
X240842438Y-77979636D02*
X240937676Y-77884398D01*
X240937676Y-77884398D02*
X241032914Y-77836779D01*
X241032914Y-77836779D02*
X241223390Y-77789160D01*
X241223390Y-77789160D02*
X241366247Y-77789160D01*
X241366247Y-77789160D02*
X241556723Y-77836779D01*
X241556723Y-77836779D02*
X241651961Y-77884398D01*
X241651961Y-77884398D02*
X241747200Y-77979636D01*
X241747200Y-77979636D02*
X241794819Y-78122493D01*
X241794819Y-78122493D02*
X241794819Y-78360588D01*
X244239580Y-78741541D02*
X244287200Y-78789160D01*
X244287200Y-78789160D02*
X244334819Y-78932017D01*
X244334819Y-78932017D02*
X244334819Y-79027255D01*
X244334819Y-79027255D02*
X244287200Y-79170112D01*
X244287200Y-79170112D02*
X244191961Y-79265350D01*
X244191961Y-79265350D02*
X244096723Y-79312969D01*
X244096723Y-79312969D02*
X243906247Y-79360588D01*
X243906247Y-79360588D02*
X243763390Y-79360588D01*
X243763390Y-79360588D02*
X243572914Y-79312969D01*
X243572914Y-79312969D02*
X243477676Y-79265350D01*
X243477676Y-79265350D02*
X243382438Y-79170112D01*
X243382438Y-79170112D02*
X243334819Y-79027255D01*
X243334819Y-79027255D02*
X243334819Y-78932017D01*
X243334819Y-78932017D02*
X243382438Y-78789160D01*
X243382438Y-78789160D02*
X243430057Y-78741541D01*
X244287200Y-78360588D02*
X244334819Y-78217731D01*
X244334819Y-78217731D02*
X244334819Y-77979636D01*
X244334819Y-77979636D02*
X244287200Y-77884398D01*
X244287200Y-77884398D02*
X244239580Y-77836779D01*
X244239580Y-77836779D02*
X244144342Y-77789160D01*
X244144342Y-77789160D02*
X244049104Y-77789160D01*
X244049104Y-77789160D02*
X243953866Y-77836779D01*
X243953866Y-77836779D02*
X243906247Y-77884398D01*
X243906247Y-77884398D02*
X243858628Y-77979636D01*
X243858628Y-77979636D02*
X243811009Y-78170112D01*
X243811009Y-78170112D02*
X243763390Y-78265350D01*
X243763390Y-78265350D02*
X243715771Y-78312969D01*
X243715771Y-78312969D02*
X243620533Y-78360588D01*
X243620533Y-78360588D02*
X243525295Y-78360588D01*
X243525295Y-78360588D02*
X243430057Y-78312969D01*
X243430057Y-78312969D02*
X243382438Y-78265350D01*
X243382438Y-78265350D02*
X243334819Y-78170112D01*
X243334819Y-78170112D02*
X243334819Y-77932017D01*
X243334819Y-77932017D02*
X243382438Y-77789160D01*
X238174819Y-75805588D02*
X239174819Y-75472255D01*
X239174819Y-75472255D02*
X238174819Y-75138922D01*
X239079580Y-74234160D02*
X239127200Y-74281779D01*
X239127200Y-74281779D02*
X239174819Y-74424636D01*
X239174819Y-74424636D02*
X239174819Y-74519874D01*
X239174819Y-74519874D02*
X239127200Y-74662731D01*
X239127200Y-74662731D02*
X239031961Y-74757969D01*
X239031961Y-74757969D02*
X238936723Y-74805588D01*
X238936723Y-74805588D02*
X238746247Y-74853207D01*
X238746247Y-74853207D02*
X238603390Y-74853207D01*
X238603390Y-74853207D02*
X238412914Y-74805588D01*
X238412914Y-74805588D02*
X238317676Y-74757969D01*
X238317676Y-74757969D02*
X238222438Y-74662731D01*
X238222438Y-74662731D02*
X238174819Y-74519874D01*
X238174819Y-74519874D02*
X238174819Y-74424636D01*
X238174819Y-74424636D02*
X238222438Y-74281779D01*
X238222438Y-74281779D02*
X238270057Y-74234160D01*
X239079580Y-73234160D02*
X239127200Y-73281779D01*
X239127200Y-73281779D02*
X239174819Y-73424636D01*
X239174819Y-73424636D02*
X239174819Y-73519874D01*
X239174819Y-73519874D02*
X239127200Y-73662731D01*
X239127200Y-73662731D02*
X239031961Y-73757969D01*
X239031961Y-73757969D02*
X238936723Y-73805588D01*
X238936723Y-73805588D02*
X238746247Y-73853207D01*
X238746247Y-73853207D02*
X238603390Y-73853207D01*
X238603390Y-73853207D02*
X238412914Y-73805588D01*
X238412914Y-73805588D02*
X238317676Y-73757969D01*
X238317676Y-73757969D02*
X238222438Y-73662731D01*
X238222438Y-73662731D02*
X238174819Y-73519874D01*
X238174819Y-73519874D02*
X238174819Y-73424636D01*
X238174819Y-73424636D02*
X238222438Y-73281779D01*
X238222438Y-73281779D02*
X238270057Y-73234160D01*
X236667200Y-80360588D02*
X236714819Y-80217731D01*
X236714819Y-80217731D02*
X236714819Y-79979636D01*
X236714819Y-79979636D02*
X236667200Y-79884398D01*
X236667200Y-79884398D02*
X236619580Y-79836779D01*
X236619580Y-79836779D02*
X236524342Y-79789160D01*
X236524342Y-79789160D02*
X236429104Y-79789160D01*
X236429104Y-79789160D02*
X236333866Y-79836779D01*
X236333866Y-79836779D02*
X236286247Y-79884398D01*
X236286247Y-79884398D02*
X236238628Y-79979636D01*
X236238628Y-79979636D02*
X236191009Y-80170112D01*
X236191009Y-80170112D02*
X236143390Y-80265350D01*
X236143390Y-80265350D02*
X236095771Y-80312969D01*
X236095771Y-80312969D02*
X236000533Y-80360588D01*
X236000533Y-80360588D02*
X235905295Y-80360588D01*
X235905295Y-80360588D02*
X235810057Y-80312969D01*
X235810057Y-80312969D02*
X235762438Y-80265350D01*
X235762438Y-80265350D02*
X235714819Y-80170112D01*
X235714819Y-80170112D02*
X235714819Y-79932017D01*
X235714819Y-79932017D02*
X235762438Y-79789160D01*
X236619580Y-78789160D02*
X236667200Y-78836779D01*
X236667200Y-78836779D02*
X236714819Y-78979636D01*
X236714819Y-78979636D02*
X236714819Y-79074874D01*
X236714819Y-79074874D02*
X236667200Y-79217731D01*
X236667200Y-79217731D02*
X236571961Y-79312969D01*
X236571961Y-79312969D02*
X236476723Y-79360588D01*
X236476723Y-79360588D02*
X236286247Y-79408207D01*
X236286247Y-79408207D02*
X236143390Y-79408207D01*
X236143390Y-79408207D02*
X235952914Y-79360588D01*
X235952914Y-79360588D02*
X235857676Y-79312969D01*
X235857676Y-79312969D02*
X235762438Y-79217731D01*
X235762438Y-79217731D02*
X235714819Y-79074874D01*
X235714819Y-79074874D02*
X235714819Y-78979636D01*
X235714819Y-78979636D02*
X235762438Y-78836779D01*
X235762438Y-78836779D02*
X235810057Y-78789160D01*
X236714819Y-78360588D02*
X235714819Y-78360588D01*
X236714819Y-77789160D02*
X236143390Y-78217731D01*
X235714819Y-77789160D02*
X236286247Y-78360588D01*
X234174819Y-80979635D02*
X233174819Y-80979635D01*
X233174819Y-80979635D02*
X233889104Y-80646302D01*
X233889104Y-80646302D02*
X233174819Y-80312969D01*
X233174819Y-80312969D02*
X234174819Y-80312969D01*
X233174819Y-79646302D02*
X233174819Y-79455826D01*
X233174819Y-79455826D02*
X233222438Y-79360588D01*
X233222438Y-79360588D02*
X233317676Y-79265350D01*
X233317676Y-79265350D02*
X233508152Y-79217731D01*
X233508152Y-79217731D02*
X233841485Y-79217731D01*
X233841485Y-79217731D02*
X234031961Y-79265350D01*
X234031961Y-79265350D02*
X234127200Y-79360588D01*
X234127200Y-79360588D02*
X234174819Y-79455826D01*
X234174819Y-79455826D02*
X234174819Y-79646302D01*
X234174819Y-79646302D02*
X234127200Y-79741540D01*
X234127200Y-79741540D02*
X234031961Y-79836778D01*
X234031961Y-79836778D02*
X233841485Y-79884397D01*
X233841485Y-79884397D02*
X233508152Y-79884397D01*
X233508152Y-79884397D02*
X233317676Y-79836778D01*
X233317676Y-79836778D02*
X233222438Y-79741540D01*
X233222438Y-79741540D02*
X233174819Y-79646302D01*
X234127200Y-78836778D02*
X234174819Y-78693921D01*
X234174819Y-78693921D02*
X234174819Y-78455826D01*
X234174819Y-78455826D02*
X234127200Y-78360588D01*
X234127200Y-78360588D02*
X234079580Y-78312969D01*
X234079580Y-78312969D02*
X233984342Y-78265350D01*
X233984342Y-78265350D02*
X233889104Y-78265350D01*
X233889104Y-78265350D02*
X233793866Y-78312969D01*
X233793866Y-78312969D02*
X233746247Y-78360588D01*
X233746247Y-78360588D02*
X233698628Y-78455826D01*
X233698628Y-78455826D02*
X233651009Y-78646302D01*
X233651009Y-78646302D02*
X233603390Y-78741540D01*
X233603390Y-78741540D02*
X233555771Y-78789159D01*
X233555771Y-78789159D02*
X233460533Y-78836778D01*
X233460533Y-78836778D02*
X233365295Y-78836778D01*
X233365295Y-78836778D02*
X233270057Y-78789159D01*
X233270057Y-78789159D02*
X233222438Y-78741540D01*
X233222438Y-78741540D02*
X233174819Y-78646302D01*
X233174819Y-78646302D02*
X233174819Y-78408207D01*
X233174819Y-78408207D02*
X233222438Y-78265350D01*
X234174819Y-77836778D02*
X233174819Y-77836778D01*
%TO.C,RSW0*%
X192701712Y-94088023D02*
X198570597Y-95335493D01*
X198570597Y-95335493D02*
X198622575Y-95090956D01*
X192701712Y-94088023D02*
X192753690Y-93843486D01*
X193429403Y-90664507D02*
X193377425Y-90909044D01*
X193429403Y-90664507D02*
X199298288Y-91911977D01*
X199298288Y-91911977D02*
X199246310Y-92156514D01*
%TO.C,20/25*%
X154969284Y-61500340D02*
X155967913Y-61448004D01*
X155021620Y-62498969D02*
X154969284Y-61500340D01*
X155701987Y-75481153D02*
X155649651Y-74482524D01*
X156700616Y-75428817D02*
X155701987Y-75481153D01*
X160548594Y-72423311D02*
X161021741Y-71897828D01*
X160731770Y-75918514D02*
X161257253Y-76391661D01*
X161021741Y-71897828D02*
X163518315Y-71766988D01*
X161257253Y-76391661D02*
X164253141Y-76234653D01*
X164253141Y-76234653D02*
X164726288Y-75709171D01*
X164673952Y-74710541D02*
X164726288Y-75709171D01*
X164901120Y-69491499D02*
X169394953Y-69255988D01*
X164937755Y-70190540D02*
X164901120Y-69491499D01*
X167951468Y-60819973D02*
X168950097Y-60767637D01*
X168950097Y-60767637D02*
X169002433Y-61766266D01*
X169394953Y-69255988D02*
X169421121Y-69755302D01*
X169609530Y-73350369D02*
X169640932Y-73949546D01*
X169630464Y-73749821D02*
X169682800Y-74748450D01*
X169640932Y-73949546D02*
X165147099Y-74185058D01*
X169682800Y-74748450D02*
X168684171Y-74800786D01*
X164673952Y-74710541D02*
G75*
G02*
X165147099Y-74185058I499315J26168D01*
G01*
X164937755Y-70190540D02*
G75*
G02*
X163518315Y-71766988I-1497944J-78504D01*
G01*
%TO.C,26/29*%
X212436854Y-80781419D02*
X213402779Y-81040238D01*
X212178034Y-81747345D02*
X212436854Y-80781419D01*
X208813387Y-94304380D02*
X209072206Y-93338455D01*
X209779313Y-94563200D02*
X208813387Y-94304380D01*
X214367709Y-92893883D02*
X214980082Y-92540330D01*
X213461843Y-96274624D02*
X213815396Y-96886996D01*
X214980082Y-92540330D02*
X217394896Y-93187378D01*
X213815396Y-96886996D02*
X216713174Y-97663453D01*
X216713174Y-97663453D02*
X217325546Y-97309900D01*
X217584365Y-96343974D02*
X217325546Y-97309900D01*
X219413187Y-91450569D02*
X223759853Y-92615255D01*
X219232014Y-92126717D02*
X219413187Y-91450569D01*
X224993889Y-84146066D02*
X225959815Y-84404886D01*
X225959815Y-84404886D02*
X225700996Y-85370811D01*
X223759853Y-92615255D02*
X223630444Y-93098218D01*
X222698695Y-96575551D02*
X222543404Y-97155106D01*
X222595168Y-96961921D02*
X222336348Y-97927847D01*
X222543404Y-97155106D02*
X218196737Y-95990421D01*
X222336348Y-97927847D02*
X221370423Y-97669028D01*
X217584365Y-96343974D02*
G75*
G02*
X218196737Y-95990421I482963J-129410D01*
G01*
X219232014Y-92126717D02*
G75*
G02*
X217394896Y-93187378I-1448889J388228D01*
G01*
%TO.C,21/24*%
X173505801Y-54236833D02*
X174505801Y-54236833D01*
X173505801Y-55236833D02*
X173505801Y-54236833D01*
X173505801Y-68236833D02*
X173505801Y-67236833D01*
X174505801Y-68236833D02*
X173505801Y-68236833D01*
X178505801Y-65436833D02*
X179005801Y-64936833D01*
X178505801Y-68936833D02*
X179005801Y-69436833D01*
X179005801Y-64936833D02*
X181505801Y-64936833D01*
X179005801Y-69436833D02*
X182005801Y-69436833D01*
X182005801Y-69436833D02*
X182505801Y-68936833D01*
X182505801Y-67936833D02*
X182505801Y-68936833D01*
X183005801Y-62736833D02*
X187505801Y-62736833D01*
X183005801Y-63436833D02*
X183005801Y-62736833D01*
X186505801Y-54236833D02*
X187505801Y-54236833D01*
X187505801Y-54236833D02*
X187505801Y-55236833D01*
X187505801Y-62736833D02*
X187505801Y-63236833D01*
X187505801Y-66836833D02*
X187505801Y-67436833D01*
X187505801Y-67236833D02*
X187505801Y-68236833D01*
X187505801Y-67436833D02*
X183005801Y-67436833D01*
X187505801Y-68236833D02*
X186505801Y-68236833D01*
X182505801Y-67936833D02*
G75*
G02*
X183005801Y-67436833I500000J0D01*
G01*
X183005801Y-63436833D02*
G75*
G02*
X181505801Y-64936833I-1500000J0D01*
G01*
%TO.C,22/23*%
X191514401Y-59596233D02*
X192514401Y-59596233D01*
X191514401Y-60596233D02*
X191514401Y-59596233D01*
X191514401Y-73596233D02*
X191514401Y-72596233D01*
X192514401Y-73596233D02*
X191514401Y-73596233D01*
X196514401Y-70796233D02*
X197014401Y-70296233D01*
X196514401Y-74296233D02*
X197014401Y-74796233D01*
X197014401Y-70296233D02*
X199514401Y-70296233D01*
X197014401Y-74796233D02*
X200014401Y-74796233D01*
X200014401Y-74796233D02*
X200514401Y-74296233D01*
X200514401Y-73296233D02*
X200514401Y-74296233D01*
X201014401Y-68096233D02*
X205514401Y-68096233D01*
X201014401Y-68796233D02*
X201014401Y-68096233D01*
X204514401Y-59596233D02*
X205514401Y-59596233D01*
X205514401Y-59596233D02*
X205514401Y-60596233D01*
X205514401Y-68096233D02*
X205514401Y-68596233D01*
X205514401Y-72196233D02*
X205514401Y-72796233D01*
X205514401Y-72596233D02*
X205514401Y-73596233D01*
X205514401Y-72796233D02*
X201014401Y-72796233D01*
X205514401Y-73596233D02*
X204514401Y-73596233D01*
X200514401Y-73296233D02*
G75*
G02*
X201014401Y-72796233I500000J0D01*
G01*
X201014401Y-68796233D02*
G75*
G02*
X199514401Y-70296233I-1500000J0D01*
G01*
%TO.C,1/8*%
X153202708Y-27306734D02*
X154201337Y-27254398D01*
X153255044Y-28305363D02*
X153202708Y-27306734D01*
X153935411Y-41287547D02*
X153883075Y-40288918D01*
X154934040Y-41235211D02*
X153935411Y-41287547D01*
X158782018Y-38229705D02*
X159255165Y-37704222D01*
X158965194Y-41724908D02*
X159490677Y-42198055D01*
X159255165Y-37704222D02*
X161751739Y-37573382D01*
X159490677Y-42198055D02*
X162486565Y-42041047D01*
X162486565Y-42041047D02*
X162959712Y-41515565D01*
X162907376Y-40516935D02*
X162959712Y-41515565D01*
X163134544Y-35297893D02*
X167628377Y-35062382D01*
X163171179Y-35996934D02*
X163134544Y-35297893D01*
X166184892Y-26626367D02*
X167183521Y-26574031D01*
X167183521Y-26574031D02*
X167235857Y-27572660D01*
X167628377Y-35062382D02*
X167654545Y-35561696D01*
X167842954Y-39156763D02*
X167874356Y-39755940D01*
X167863888Y-39556215D02*
X167916224Y-40554844D01*
X167874356Y-39755940D02*
X163380523Y-39991452D01*
X167916224Y-40554844D02*
X166917595Y-40607180D01*
X162907376Y-40516935D02*
G75*
G02*
X163380523Y-39991452I499315J26168D01*
G01*
X163171179Y-35996934D02*
G75*
G02*
X161751739Y-37573382I-1497944J-78504D01*
G01*
%TO.C,0/9*%
X134926689Y-39607575D02*
X135922884Y-39520420D01*
X135013845Y-40603770D02*
X134926689Y-39607575D01*
X136146869Y-53554301D02*
X136059714Y-52558106D01*
X137143064Y-53467145D02*
X136146869Y-53554301D01*
X140883807Y-50329177D02*
X141338326Y-49787502D01*
X141188852Y-53815859D02*
X141730527Y-54270378D01*
X141338326Y-49787502D02*
X143828813Y-49569613D01*
X141730527Y-54270378D02*
X144719111Y-54008911D01*
X144719111Y-54008911D02*
X145173631Y-53467236D01*
X145086475Y-52471041D02*
X145173631Y-53467236D01*
X145131362Y-47247251D02*
X149614239Y-46855050D01*
X145192371Y-47944587D02*
X145131362Y-47247251D01*
X147877220Y-38474551D02*
X148873415Y-38387395D01*
X148873415Y-38387395D02*
X148960570Y-39383590D01*
X149614239Y-46855050D02*
X149657816Y-47353147D01*
X149971577Y-50939448D02*
X150023870Y-51537165D01*
X150006439Y-51337926D02*
X150093595Y-52334121D01*
X150023870Y-51537165D02*
X145540994Y-51929366D01*
X150093595Y-52334121D02*
X149097400Y-52421276D01*
X145086475Y-52471041D02*
G75*
G02*
X145540994Y-51929366I498097J43578D01*
G01*
X145192371Y-47944587D02*
G75*
G02*
X143828813Y-49569613I-1494292J-130734D01*
G01*
%TO.C,10/19*%
X136416547Y-56636727D02*
X137412742Y-56549572D01*
X136503703Y-57632922D02*
X136416547Y-56636727D01*
X137636727Y-70583453D02*
X137549572Y-69587258D01*
X138632922Y-70496297D02*
X137636727Y-70583453D01*
X142373665Y-67358329D02*
X142828184Y-66816654D01*
X142678710Y-70845011D02*
X143220385Y-71299530D01*
X142828184Y-66816654D02*
X145318671Y-66598765D01*
X143220385Y-71299530D02*
X146208969Y-71038063D01*
X146208969Y-71038063D02*
X146663489Y-70496388D01*
X146576333Y-69500193D02*
X146663489Y-70496388D01*
X146621220Y-64276403D02*
X151104097Y-63884202D01*
X146682229Y-64973739D02*
X146621220Y-64276403D01*
X149367078Y-55503703D02*
X150363273Y-55416547D01*
X150363273Y-55416547D02*
X150450428Y-56412742D01*
X151104097Y-63884202D02*
X151147674Y-64382299D01*
X151461435Y-67968600D02*
X151513728Y-68566317D01*
X151496297Y-68367078D02*
X151583453Y-69363273D01*
X151513728Y-68566317D02*
X147030852Y-68958518D01*
X151583453Y-69363273D02*
X150587258Y-69450428D01*
X146576333Y-69500193D02*
G75*
G02*
X147030852Y-68958518I498097J43578D01*
G01*
X146682229Y-64973739D02*
G75*
G02*
X145318671Y-66598765I-1494292J-130734D01*
G01*
%TO.C,13/16*%
X191514401Y-42476633D02*
X192514401Y-42476633D01*
X191514401Y-43476633D02*
X191514401Y-42476633D01*
X191514401Y-56476633D02*
X191514401Y-55476633D01*
X192514401Y-56476633D02*
X191514401Y-56476633D01*
X196514401Y-53676633D02*
X197014401Y-53176633D01*
X196514401Y-57176633D02*
X197014401Y-57676633D01*
X197014401Y-53176633D02*
X199514401Y-53176633D01*
X197014401Y-57676633D02*
X200014401Y-57676633D01*
X200014401Y-57676633D02*
X200514401Y-57176633D01*
X200514401Y-56176633D02*
X200514401Y-57176633D01*
X201014401Y-50976633D02*
X205514401Y-50976633D01*
X201014401Y-51676633D02*
X201014401Y-50976633D01*
X204514401Y-42476633D02*
X205514401Y-42476633D01*
X205514401Y-42476633D02*
X205514401Y-43476633D01*
X205514401Y-50976633D02*
X205514401Y-51476633D01*
X205514401Y-55076633D02*
X205514401Y-55676633D01*
X205514401Y-55476633D02*
X205514401Y-56476633D01*
X205514401Y-55676633D02*
X201014401Y-55676633D01*
X205514401Y-56476633D02*
X204514401Y-56476633D01*
X200514401Y-56176633D02*
G75*
G02*
X201014401Y-55676633I500000J0D01*
G01*
X201014401Y-51676633D02*
G75*
G02*
X199514401Y-53176633I-1500000J0D01*
G01*
%TO.C,12/17*%
X173505801Y-37117233D02*
X174505801Y-37117233D01*
X173505801Y-38117233D02*
X173505801Y-37117233D01*
X173505801Y-51117233D02*
X173505801Y-50117233D01*
X174505801Y-51117233D02*
X173505801Y-51117233D01*
X178505801Y-48317233D02*
X179005801Y-47817233D01*
X178505801Y-51817233D02*
X179005801Y-52317233D01*
X179005801Y-47817233D02*
X181505801Y-47817233D01*
X179005801Y-52317233D02*
X182005801Y-52317233D01*
X182005801Y-52317233D02*
X182505801Y-51817233D01*
X182505801Y-50817233D02*
X182505801Y-51817233D01*
X183005801Y-45617233D02*
X187505801Y-45617233D01*
X183005801Y-46317233D02*
X183005801Y-45617233D01*
X186505801Y-37117233D02*
X187505801Y-37117233D01*
X187505801Y-37117233D02*
X187505801Y-38117233D01*
X187505801Y-45617233D02*
X187505801Y-46117233D01*
X187505801Y-49717233D02*
X187505801Y-50317233D01*
X187505801Y-50117233D02*
X187505801Y-51117233D01*
X187505801Y-50317233D02*
X183005801Y-50317233D01*
X187505801Y-51117233D02*
X186505801Y-51117233D01*
X182505801Y-50817233D02*
G75*
G02*
X183005801Y-50317233I500000J0D01*
G01*
X183005801Y-46317233D02*
G75*
G02*
X181505801Y-47817233I-1500000J0D01*
G01*
%TO.C,3/6*%
X191539801Y-25357033D02*
X192539801Y-25357033D01*
X191539801Y-26357033D02*
X191539801Y-25357033D01*
X191539801Y-39357033D02*
X191539801Y-38357033D01*
X192539801Y-39357033D02*
X191539801Y-39357033D01*
X196539801Y-36557033D02*
X197039801Y-36057033D01*
X196539801Y-40057033D02*
X197039801Y-40557033D01*
X197039801Y-36057033D02*
X199539801Y-36057033D01*
X197039801Y-40557033D02*
X200039801Y-40557033D01*
X200039801Y-40557033D02*
X200539801Y-40057033D01*
X200539801Y-39057033D02*
X200539801Y-40057033D01*
X201039801Y-33857033D02*
X205539801Y-33857033D01*
X201039801Y-34557033D02*
X201039801Y-33857033D01*
X204539801Y-25357033D02*
X205539801Y-25357033D01*
X205539801Y-25357033D02*
X205539801Y-26357033D01*
X205539801Y-33857033D02*
X205539801Y-34357033D01*
X205539801Y-37957033D02*
X205539801Y-38557033D01*
X205539801Y-38357033D02*
X205539801Y-39357033D01*
X205539801Y-38557033D02*
X201039801Y-38557033D01*
X205539801Y-39357033D02*
X204539801Y-39357033D01*
X200539801Y-39057033D02*
G75*
G02*
X201039801Y-38557033I500000J0D01*
G01*
X201039801Y-34557033D02*
G75*
G02*
X199539801Y-36057033I-1500000J0D01*
G01*
%TO.C,2/7*%
X173531201Y-20023033D02*
X174531201Y-20023033D01*
X173531201Y-21023033D02*
X173531201Y-20023033D01*
X173531201Y-34023033D02*
X173531201Y-33023033D01*
X174531201Y-34023033D02*
X173531201Y-34023033D01*
X178531201Y-31223033D02*
X179031201Y-30723033D01*
X178531201Y-34723033D02*
X179031201Y-35223033D01*
X179031201Y-30723033D02*
X181531201Y-30723033D01*
X179031201Y-35223033D02*
X182031201Y-35223033D01*
X182031201Y-35223033D02*
X182531201Y-34723033D01*
X182531201Y-33723033D02*
X182531201Y-34723033D01*
X183031201Y-28523033D02*
X187531201Y-28523033D01*
X183031201Y-29223033D02*
X183031201Y-28523033D01*
X186531201Y-20023033D02*
X187531201Y-20023033D01*
X187531201Y-20023033D02*
X187531201Y-21023033D01*
X187531201Y-28523033D02*
X187531201Y-29023033D01*
X187531201Y-32623033D02*
X187531201Y-33223033D01*
X187531201Y-33023033D02*
X187531201Y-34023033D01*
X187531201Y-33223033D02*
X183031201Y-33223033D01*
X187531201Y-34023033D02*
X186531201Y-34023033D01*
X182531201Y-33723033D02*
G75*
G02*
X183031201Y-33223033I500000J0D01*
G01*
X183031201Y-29223033D02*
G75*
G02*
X181531201Y-30723033I-1500000J0D01*
G01*
%TO.C,11/18*%
X154073314Y-44404202D02*
X155071943Y-44351866D01*
X154125650Y-45402831D02*
X154073314Y-44404202D01*
X154806017Y-58385015D02*
X154753681Y-57386386D01*
X155804646Y-58332679D02*
X154806017Y-58385015D01*
X159652624Y-55327173D02*
X160125771Y-54801690D01*
X159835800Y-58822376D02*
X160361283Y-59295523D01*
X160125771Y-54801690D02*
X162622345Y-54670850D01*
X160361283Y-59295523D02*
X163357171Y-59138515D01*
X163357171Y-59138515D02*
X163830318Y-58613033D01*
X163777982Y-57614403D02*
X163830318Y-58613033D01*
X164005150Y-52395361D02*
X168498983Y-52159850D01*
X164041785Y-53094402D02*
X164005150Y-52395361D01*
X167055498Y-43723835D02*
X168054127Y-43671499D01*
X168054127Y-43671499D02*
X168106463Y-44670128D01*
X168498983Y-52159850D02*
X168525151Y-52659164D01*
X168713560Y-56254231D02*
X168744962Y-56853408D01*
X168734494Y-56653683D02*
X168786830Y-57652312D01*
X168744962Y-56853408D02*
X164251129Y-57088920D01*
X168786830Y-57652312D02*
X167788201Y-57704648D01*
X163777982Y-57614403D02*
G75*
G02*
X164251129Y-57088920I499315J26168D01*
G01*
X164041785Y-53094402D02*
G75*
G02*
X162622345Y-54670850I-1497944J-78504D01*
G01*
%TO.C,14/15*%
X209500000Y-50600000D02*
X210500000Y-50600000D01*
X209500000Y-51600000D02*
X209500000Y-50600000D01*
X209500000Y-64600000D02*
X209500000Y-63600000D01*
X210500000Y-64600000D02*
X209500000Y-64600000D01*
X214500000Y-61800000D02*
X215000000Y-61300000D01*
X214500000Y-65300000D02*
X215000000Y-65800000D01*
X215000000Y-61300000D02*
X217500000Y-61300000D01*
X215000000Y-65800000D02*
X218000000Y-65800000D01*
X218000000Y-65800000D02*
X218500000Y-65300000D01*
X218500000Y-64300000D02*
X218500000Y-65300000D01*
X219000000Y-59100000D02*
X223500000Y-59100000D01*
X219000000Y-59800000D02*
X219000000Y-59100000D01*
X222500000Y-50600000D02*
X223500000Y-50600000D01*
X223500000Y-50600000D02*
X223500000Y-51600000D01*
X223500000Y-59100000D02*
X223500000Y-59600000D01*
X223500000Y-63200000D02*
X223500000Y-63800000D01*
X223500000Y-63600000D02*
X223500000Y-64600000D01*
X223500000Y-63800000D02*
X219000000Y-63800000D01*
X223500000Y-64600000D02*
X222500000Y-64600000D01*
X218500000Y-64300000D02*
G75*
G02*
X219000000Y-63800000I500000J0D01*
G01*
X219000000Y-59800000D02*
G75*
G02*
X217500000Y-61300000I-1500000J0D01*
G01*
%TO.C,27/28*%
X230297332Y-85714265D02*
X231237024Y-86056285D01*
X229955312Y-86653957D02*
X230297332Y-85714265D01*
X225509050Y-98869961D02*
X225851070Y-97930269D01*
X226448742Y-99211981D02*
X225509050Y-98869961D01*
X231165169Y-97948923D02*
X231806026Y-97650086D01*
X229968099Y-101237847D02*
X230266935Y-101878703D01*
X231806026Y-97650086D02*
X234155257Y-98505137D01*
X230266935Y-101878703D02*
X233086013Y-102904764D01*
X233086013Y-102904764D02*
X233726869Y-102605927D01*
X234068889Y-101666235D02*
X233726869Y-102605927D01*
X236317240Y-96950843D02*
X240545857Y-98489934D01*
X236077826Y-97608628D02*
X236317240Y-96950843D01*
X242513336Y-90160527D02*
X243453028Y-90502547D01*
X243453028Y-90502547D02*
X243111008Y-91442239D01*
X240545857Y-98489934D02*
X240374847Y-98959780D01*
X239143575Y-102342674D02*
X238938362Y-102906489D01*
X239006766Y-102718551D02*
X238664746Y-103658243D01*
X238938362Y-102906489D02*
X234709746Y-101367399D01*
X238664746Y-103658243D02*
X237725054Y-103316223D01*
X234068889Y-101666235D02*
G75*
G02*
X234709746Y-101367398I469847J-171010D01*
G01*
X236077826Y-97608628D02*
G75*
G02*
X234155257Y-98505137I-1409539J513030D01*
G01*
%TO.C,4/5*%
X209500000Y-33480400D02*
X210500000Y-33480400D01*
X209500000Y-34480400D02*
X209500000Y-33480400D01*
X209500000Y-47480400D02*
X209500000Y-46480400D01*
X210500000Y-47480400D02*
X209500000Y-47480400D01*
X214500000Y-44680400D02*
X215000000Y-44180400D01*
X214500000Y-48180400D02*
X215000000Y-48680400D01*
X215000000Y-44180400D02*
X217500000Y-44180400D01*
X215000000Y-48680400D02*
X218000000Y-48680400D01*
X218000000Y-48680400D02*
X218500000Y-48180400D01*
X218500000Y-47180400D02*
X218500000Y-48180400D01*
X219000000Y-41980400D02*
X223500000Y-41980400D01*
X219000000Y-42680400D02*
X219000000Y-41980400D01*
X222500000Y-33480400D02*
X223500000Y-33480400D01*
X223500000Y-33480400D02*
X223500000Y-34480400D01*
X223500000Y-41980400D02*
X223500000Y-42480400D01*
X223500000Y-46080400D02*
X223500000Y-46680400D01*
X223500000Y-46480400D02*
X223500000Y-47480400D01*
X223500000Y-46680400D02*
X219000000Y-46680400D01*
X223500000Y-47480400D02*
X222500000Y-47480400D01*
X218500000Y-47180400D02*
G75*
G02*
X219000000Y-46680400I500000J0D01*
G01*
X219000000Y-42680400D02*
G75*
G02*
X217500000Y-44180400I-1500000J0D01*
G01*
%TO.C,U0*%
X229824240Y-35497672D02*
X229824240Y-36497672D01*
X229824240Y-35497672D02*
X230824240Y-35497672D01*
X229824240Y-67497672D02*
X229824240Y-68547672D01*
X229824240Y-68547672D02*
X230824240Y-68547672D01*
X234974240Y-32597672D02*
X234974240Y-33897672D01*
X234974240Y-33897672D02*
X242474240Y-33897672D01*
X238224240Y-32947672D02*
X239224240Y-32947672D01*
X238374240Y-33097672D02*
X239074240Y-33097672D01*
X238474240Y-33247672D02*
X238974240Y-33247672D01*
X238574240Y-33397672D02*
X238874240Y-33397672D01*
X238724240Y-33597672D02*
X238224240Y-32947672D01*
X239224240Y-32947672D02*
X238724240Y-33597672D01*
X242474240Y-32597672D02*
X234974240Y-32597672D01*
X242474240Y-33897672D02*
X242474240Y-32597672D01*
X247624240Y-35497672D02*
X246674240Y-35497672D01*
X247624240Y-35497672D02*
X247624240Y-36497672D01*
X247624240Y-67547672D02*
X247624240Y-68547672D01*
X247624240Y-68547672D02*
X246614240Y-68547672D01*
D13*
%TO.C,JP1*%
X242840000Y-74001000D02*
X244840000Y-74001000D01*
X242840000Y-76801000D02*
X242840000Y-74001000D01*
X244840000Y-74001000D02*
X244840000Y-76801000D01*
X244840000Y-76801000D02*
X242840000Y-76801000D01*
%TO.C,JP3*%
X240300000Y-74001000D02*
X242300000Y-74001000D01*
X240300000Y-76801000D02*
X240300000Y-74001000D01*
X242300000Y-74001000D02*
X242300000Y-76801000D01*
X242300000Y-76801000D02*
X240300000Y-76801000D01*
%TO.C,JP5*%
X235220000Y-74001000D02*
X237220000Y-74001000D01*
X235220000Y-76801000D02*
X235220000Y-74001000D01*
X237220000Y-74001000D02*
X237220000Y-76801000D01*
X237220000Y-76801000D02*
X235220000Y-76801000D01*
D10*
%TO.C,Bat+0*%
X231531040Y-35866072D02*
X231531040Y-37866072D01*
X231531040Y-37866072D02*
X233531040Y-37866072D01*
X233531040Y-35866072D02*
X231531040Y-35866072D01*
X233531040Y-37866072D02*
X233531040Y-35866072D01*
%TO.C,Bat-0*%
X243672240Y-35916872D02*
X243672240Y-37916872D01*
X243672240Y-37916872D02*
X245672240Y-37916872D01*
X245672240Y-35916872D02*
X243672240Y-35916872D01*
X245672240Y-37916872D02*
X245672240Y-35916872D01*
D13*
%TO.C,JP7*%
X232680000Y-74001000D02*
X234680000Y-74001000D01*
X232680000Y-76801000D02*
X232680000Y-74001000D01*
X234680000Y-74001000D02*
X234680000Y-76801000D01*
X234680000Y-76801000D02*
X232680000Y-76801000D01*
%TO.C,J0*%
X232450000Y-70405000D02*
X245150000Y-70405000D01*
X245150000Y-72945000D01*
X232450000Y-72945000D01*
X232450000Y-70405000D01*
%TD*%
D14*
%TO.C,RSW0*%
X199178980Y-93675713D03*
X192821020Y-92324287D03*
%TD*%
D15*
%TO.C,U0*%
X246335640Y-39319672D03*
X246335640Y-41859672D03*
X246335640Y-44399672D03*
X246335640Y-46939672D03*
X246335640Y-49479672D03*
X246335640Y-52019672D03*
X246335640Y-54559672D03*
X246335640Y-57099672D03*
X246335640Y-59639672D03*
X246335640Y-62179672D03*
X246335640Y-64719672D03*
X246335640Y-67259672D03*
X231115640Y-67259672D03*
X231115640Y-64719672D03*
X231115640Y-62179672D03*
X231115640Y-59639672D03*
X231115640Y-57099672D03*
X231115640Y-54559672D03*
X231115640Y-52019672D03*
X231115640Y-49479672D03*
X231115640Y-46939672D03*
X231115640Y-44399672D03*
X231115640Y-41859672D03*
X231115640Y-39319672D03*
%TD*%
D16*
%TO.C,Bat+0*%
X232531040Y-36866072D03*
%TD*%
%TO.C,Bat-0*%
X244672240Y-36916872D03*
%TD*%
M02*
